<svg version="1.2" xmlns="http://www.w3.org/2000/svg" viewBox="0 0 496 425" width="496" height="425">
	<title>capa-svg</title>
	<style>
		.s0 { fill: #363636;stroke: #263238;stroke-linecap: round;stroke-linejoin: round } 
		.s1 { fill: none;stroke: #242424;stroke-linecap: round;stroke-linejoin: round;stroke-width: 3 } 
		.s2 { fill: none;stroke: #000000;stroke-linecap: round;stroke-linejoin: round;stroke-width: 2 } 
		.s3 { fill: #eb9c00;stroke: #263238;stroke-linecap: round;stroke-linejoin: round;stroke-width: 2 } 
		.s4 { fill: none;stroke: #263238;stroke-linecap: round;stroke-linejoin: round;stroke-width: 2 } 
		.s5 { fill: #e6e6e6;stroke: #263238;stroke-linecap: round;stroke-linejoin: round;stroke-width: 2 } 
		.s6 { fill: #5e5e5e;stroke: #263238;stroke-linecap: round;stroke-linejoin: round } 
		.s7 { fill: none;stroke: #263238;stroke-linecap: round;stroke-linejoin: round } 
		.s8 { fill: #d5d5d5;stroke: #263238;stroke-linecap: round;stroke-linejoin: round } 
		.s9 { fill: #007f7a;stroke: #263238;stroke-linecap: round;stroke-linejoin: round } 
		.s10 { fill: #aaaaaa;stroke: #263238;stroke-linecap: round;stroke-linejoin: round } 
		.s11 { fill: #f5f5f5;stroke: #263238;stroke-linecap: round;stroke-linejoin: round } 
		.s12 { fill: #cccccc;stroke: #263238;stroke-linecap: round;stroke-linejoin: round } 
		.s13 { fill: #efefef;stroke: #263238;stroke-linecap: round;stroke-linejoin: round } 
		.s14 { fill: #d2d2d2;stroke: #263238;stroke-linecap: round;stroke-linejoin: round } 
		.s15 { fill: #d8e6e6;stroke: #263238;stroke-linecap: round;stroke-linejoin: round } 
		.s16 { fill: none;stroke: #5e5e5e;stroke-linecap: round;stroke-linejoin: round } 
		.s17 { fill: none;stroke: #000000;stroke-linecap: round;stroke-linejoin: round } 
		.s18 { fill: #000000;stroke: #000000;stroke-linecap: round } 
		.s19 { fill: #000000;stroke: #263238;stroke-linecap: round;stroke-linejoin: round } 
		.s20 { fill: #000000;stroke: #000000;stroke-linecap: round;stroke-linejoin: round } 
		.s21 { fill: #bebebe;stroke: #263238;stroke-linecap: round;stroke-linejoin: round } 
		.s22 { fill: #a4a4a4;stroke: #263238;stroke-linecap: round;stroke-linejoin: round } 
		.s23 { fill: #dedede;stroke: #263238;stroke-linecap: round;stroke-linejoin: round } 
		.s24 { fill: #e1e1e1;stroke: #263238;stroke-linecap: round;stroke-linejoin: round } 
		.s25 { fill: #263238;stroke: #263238;stroke-linecap: round;stroke-linejoin: round } 
		.s26 { fill: #ececec;stroke: #263238;stroke-linecap: round;stroke-linejoin: round } 
		.s27 { fill: #e9e9e9;stroke: #263238;stroke-linecap: round;stroke-linejoin: round } 
	</style>
	<g id="Imagem_capa">
		<g id="Bulb">
			<path id="Caminho_48124" class="s0" d="m288.6 423.1c10.7-16 56.6-83.2 70-85 13.1-1.8 59.5 66.2 72.1 85z"/>
			<g id="Grupo_16703">
				<g id="Grupo_16699">
					<path id="Linha_2" class="s1" d="m229.8 30.3v155"/>
					<path id="Linha_3" class="s1" d="m211 34.5v150.8"/>
					<path id="Linha_4" class="s1" d="m190.3 117v146.1"/>
					<path id="Linha_5" class="s1" d="m168.4 34.5v228.6"/>
					<path id="Linha_6" class="s1" d="m146.6 34.5v155"/>
					<path id="Linha_7" class="s1" d="m246.2 51.1h-100.2"/>
					<path id="Linha_8" class="s1" d="m246.2 85.5h-108.7"/>
					<path id="Linha_9" class="s1" d="m248 117h-120.9"/>
					<path id="Linha_10" class="s1" d="m249.8 152h-122.7"/>
					<path id="Linha_11" class="s1" d="m226.8 190.1h-93"/>
					<path id="Linha_12" class="s1" d="m202.5 226.9h-60.8"/>
				</g>
				<g id="Grupo_16700">
					<path id="Linha_13" class="s2" d="m362.4 45l-21.4 16.4"/>
					<path id="Linha_14" class="s2" d="m319.5 27.7l-7.4 10.9"/>
					<path id="Linha_15" class="s2" d="m281.3 1.3l-6.6 20"/>
				</g>
				<g id="Grupo_16701">
					<path id="Caminho_48125" class="s3" d="m158.9 259h35.4v-82.2h48v-145.6c65.1 0.6 117.4 52.7 116.7 116.4q-0.1 6.9-1 13.7-0.9 6.8-2.6 13.5-1.7 6.6-4.3 13-2.5 6.4-5.8 12.5c-3.8 8.7-12.8 30.1-21.9 57.9-8.3 25.5-12.7 51.3-12.7 55.1q0 0.6 0 1.2c0 1.2-0.2 2.3-0.6 3.4-0.4 1-1 2-1.8 2.8-0.8 0.9-1.7 1.5-2.8 2-1 0.5-2.2 0.7-3.3 0.7q-0.1 0-0.3 0h-121.7c-1.2 0-2.3-0.2-3.4-0.6-1-0.4-2-1.1-2.8-1.9-0.8-0.8-1.5-1.7-1.9-2.8-0.5-1-0.7-2.2-0.7-3.3q0-0.1 0-0.3 0-0.6 0-1.2c0-3.8-4.3-29-12.5-54.3z"/>
					<path id="Caminho_48126" fill-rule="evenodd" class="s4" d="m282.2 49.7q-1.2-0.6-2.5-1.1-1.3-0.5-2.7-1-1.3-0.5-2.6-1-1.3-0.4-2.7-0.8"/>
					<path id="Caminho_48127" fill-rule="evenodd" class="s4" d="m321.5 78.9c0 0-9.6-14.9-30.7-25"/>
					<path id="Caminho_48128" fill-rule="evenodd" class="s4" d="m319 244.8c-4.4 14-10.2 33.3-12.2 44.1-3.4 18.3-1.1 27.7-8.5 29.3"/>
					<path id="Caminho_48129" fill-rule="evenodd" class="s4" d="m324.3 228.2c0 0-1.2 3.7-3.1 9.4"/>
					<path id="Caminho_48130" fill-rule="evenodd" class="s4" d="m248.5 322.3v-110.2c0 0-4.6-28.8 10.7-28.8 15.3 0 14.1 15-3.6 31.1-17.6 16.1-44.8 1.2-48.3-11.5-3.5-12.7 5.9-18.5 11.8-8.1 5.9 10.4 0 127.9 0 127.9"/>
				</g>
				<g id="Grupo_16702">
					<path id="Retângulo_4666" class="s5" d="m177.1 322.7h127.2v28.9h-127.2z"/>
					<path id="Retângulo_4667" class="s5" d="m177.1 358.5h127.2v28.8h-127.2z"/>
					<path id="Retângulo_4668" class="s6" d="m177.1 351.6h127.2v6.9h-127.2z"/>
					<path id="Retângulo_4669" class="s5" d="m177.1 394.2h127.2v28.9h-127.2z"/>
					<path id="Linha_16" class="s7" d="m190.4 347.7h-9.5"/>
					<path id="Linha_17" class="s7" d="m299.3 347.7h-104.3"/>
					<path id="Linha_18" class="s7" d="m214.9 384h-30.5"/>
					<path id="Linha_19" class="s7" d="m280.4 384h-62"/>
					<path id="Linha_20" class="s7" d="m290.6 384h-5.3"/>
					<path id="Retângulo_4670" class="s6" d="m177.1 387.3h127.2v6.9h-127.2z"/>
					<path id="Retângulo_4671" class="s8" d="m244.2 400.5h43.6v22.2h-43.6z"/>
					<path id="Retângulo_4672" class="s9" d="m187.5 400.5h43.6v22.2h-43.6z"/>
				</g>
			</g>
		</g>
		<g id="Ground">
			<path id="Caminho_48131" class="s0" d="m148.3 423.1c8.4-7.2 44-37.3 54.4-38.1 10.2-0.8 46.2 29.6 56 38.1z"/>
			<g id="Grupo_16704">
				<path id="Linha_21" class="s7" d="m10.7 423.1h-10.2"/>
				<path id="Linha_22" class="s7" d="m479.2 423.1h-458.2"/>
				<path id="Linha_23" class="s7" d="m495.1 423.1h-7.9"/>
			</g>
		</g>
		<g id="Trucks">
			<g id="Grupo_16709">
				<path id="Caminho_48132" class="s0" d="m31.3 357.3h30.6v41.9h-43.2v-21z"/>
				<path id="Retângulo_4673" class="s10" d="m18.7 399.2h14v9.6h-14z"/>
				<path id="Caminho_48133" class="s11" d="m84.7 398.8c0 0-15.3-8.1-10-48.5l19.4-10.3 33.6-5.2 30.1 1.1v16.8c0 0-17.1 14.4-18.9 19q-0.4 1.1-0.7 2.4-0.3 1.2-0.6 2.4-0.2 1.2-0.3 2.5-0.1 1.2-0.2 2.5v16.1z"/>
				<path id="Linha_24" class="s7" d="m74.7 350.3l10 48.5"/>
				<path id="Linha_25" class="s7" d="m94.1 340l11.2 58.8"/>
				<path id="Linha_26" class="s7" d="m127.7 334.8l8.3 43.8"/>
				<path id="Caminho_48134" fill-rule="evenodd" class="s7" d="m156.6 350.3c0 0-19.5 8.1-27.1 13.3-7.7 5.2-6.5 16.1-6.5 16.1"/>
				<path id="Retângulo_4674" class="s12" d="m61.7 399.5h91.4v7.5h-91.4z"/>
				<g id="Grupo_16705">
					<path id="Caminho_48135" class="s13" d="m43.4 380.3h-19.1l10.3-17.3h8.8z"/>
					<path id="Retângulo_4675" class="s13" d="m46.4 363h8.2v17.3h-8.2z"/>
				</g>
				<path id="Retângulo_4676" class="s14" d="m96.9 399.2h55.7v13h-55.7z"/>
				<g id="Grupo_16706">
					<path id="Elipse_3" class="s0" d="m46.3 423.1c-6.4 0-11.7-5.2-11.7-11.5 0-6.3 5.3-11.4 11.7-11.4 6.5 0 11.7 5.1 11.7 11.4 0 6.3-5.2 11.5-11.7 11.5z"/>
					<path id="Elipse_4" class="s15" d="m46.3 418.3c-3.8 0-6.8-3-6.8-6.7 0-3.7 3-6.7 6.8-6.7 3.8 0 6.8 3 6.8 6.7 0 3.7-3 6.7-6.8 6.7z"/>
				</g>
				<g id="Grupo_16707">
					<path id="Elipse_5" class="s0" d="m136.5 423.1c-6.5 0-11.7-5.1-11.7-11.5 0-6.3 5.2-11.4 11.7-11.4 6.5 0 11.7 5.1 11.7 11.4 0 6.4-5.2 11.5-11.7 11.5z"/>
					<path id="Elipse_6" class="s15" d="m136.5 418.3c-3.8 0-6.8-3-6.8-6.7 0-3.7 3-6.7 6.8-6.7 3.8 0 6.8 3 6.8 6.7 0 3.7-3 6.7-6.8 6.7z"/>
				</g>
				<g id="Grupo_16708">
					<path id="Elipse_7" class="s0" d="m108.3 423.1c-6.5 0-11.7-5.1-11.7-11.5 0-6.3 5.2-11.4 11.7-11.4 6.4 0 11.7 5.1 11.7 11.4 0 6.4-5.3 11.5-11.7 11.5z"/>
					<path id="Elipse_8" class="s15" d="m108.3 418.3c-3.8 0-6.9-3-6.9-6.7 0-3.7 3.1-6.7 6.9-6.7 3.7 0 6.8 3 6.8 6.7 0 3.7-3.1 6.7-6.8 6.7z"/>
				</g>
				<path id="Retângulo_4677" class="s0" d="m141.6 379.2h-29.5q-0.8 0-1.5 0.2-0.7 0.3-1.2 0.8-0.5 0.6-0.8 1.3-0.3 0.7-0.3 1.4v12.1q0 0.8 0.3 1.5 0.3 0.6 0.8 1.2 0.5 0.5 1.2 0.8 0.7 0.3 1.5 0.3h29.5q0.7 0 1.4-0.3 0.7-0.3 1.3-0.8 0.5-0.6 0.8-1.2 0.3-0.7 0.3-1.5v-12.1q0-0.7-0.3-1.4-0.3-0.7-0.8-1.3-0.6-0.5-1.3-0.8-0.7-0.2-1.4-0.2z"/>
				<path id="Caminho_48136" fill-rule="evenodd" class="s16" d="m160.1 398.8v-57h-11.8v57"/>
				<path id="Linha_27" class="s16" d="m160.1 349.3h-11.6"/>
				<path id="Linha_28" class="s16" d="m160.1 358.2h-11.6"/>
				<path id="Linha_29" class="s16" d="m160.1 367.1h-11.6"/>
				<path id="Linha_30" class="s16" d="m160.1 376h-11.6"/>
				<path id="Linha_31" class="s16" d="m160.1 384.9h-11.6"/>
				<path id="Linha_32" class="s16" d="m160.1 393.8h-11.6"/>
			</g>
			<g id="Grupo_16711">
				<path id="Caminho_48137" fill-rule="evenodd" class="s17" d="m395.9 424.2h21.3v-361.9l-21.3 24.1z"/>
				<path id="Caminho_48138" fill-rule="evenodd" class="s17" d="m417 348.1h-20.9l20.9-19.7h-20.9z"/>
				<path id="Caminho_48139" fill-rule="evenodd" class="s17" d="m417 327.9h-20.9l20.9-19.6h-20.9z"/>
				<path id="Caminho_48140" fill-rule="evenodd" class="s17" d="m417 307.8h-20.9l20.9-19.7h-20.9z"/>
				<path id="Caminho_48141" fill-rule="evenodd" class="s17" d="m417 287.6h-20.9l20.9-19.7h-20.9z"/>
				<path id="Caminho_48142" fill-rule="evenodd" class="s17" d="m417 267.4h-20.9l20.9-19.7h-20.9z"/>
				<path id="Caminho_48143" fill-rule="evenodd" class="s17" d="m417 247.3h-20.9l20.9-19.7h-20.9z"/>
				<path id="Caminho_48144" fill-rule="evenodd" class="s17" d="m417 227.1h-20.9l20.9-19.7h-20.9z"/>
				<path id="Caminho_48145" fill-rule="evenodd" class="s17" d="m417 206.9h-20.9l20.9-19.7h-20.9z"/>
				<path id="Caminho_48146" fill-rule="evenodd" class="s17" d="m417 186.7h-20.9l20.9-19.6h-20.9z"/>
				<path id="Caminho_48147" fill-rule="evenodd" class="s17" d="m417 166.6h-20.9l20.9-19.7h-20.9z"/>
				<path id="Caminho_48148" fill-rule="evenodd" class="s17" d="m417 146.4h-20.9l20.9-19.7h-20.9z"/>
				<path id="Caminho_48149" fill-rule="evenodd" class="s17" d="m417 126.2h-20.9l20.9-19.6h-20.9z"/>
				<path id="Caminho_48150" fill-rule="evenodd" class="s17" d="m417 106.1h-20.9l20.9-19.7h-20.9z"/>
				<path id="Caminho_48151" fill-rule="evenodd" class="s17" d="m297.4 106.6l10.3-6.3h73.4l8.9 6.3z"/>
				<path id="Retângulo_4678" class="s18" d="m474.9 106.1h-179.2v4.6h179.2z"/>
				<path id="Caminho_48152" fill-rule="evenodd" class="s17" d="m307.7 100.3l109.5-38-36.1 38"/>
				<path id="Linha_33" class="s17" d="m417.2 62.3l57.7 43.8"/>
				<path id="Retângulo_4679" class="s19" d="m380.6 115.9h44.2v27.6h-44.2z"/>
				<path id="Retângulo_4680" class="s15" d="m389.8 121.6h25.8v8.1h-25.8z"/>
				<path id="Linha_34" class="s17" d="m295.7 110.7v49.7"/>
				<g id="Grupo_16710">
					<path id="Retângulo_4681" class="s20" d="m289 177.3h13.1v14.6h-13.1z"/>
					<path id="Caminho_48153" fill-rule="evenodd" class="s17" d="m302.1 177.3l-6.6-17.9-6.5 17.9"/>
				</g>
			</g>
			<g id="Grupo_16712">
				<path id="Caminho_48154" class="s21" d="m331.1 352.5l-28.4 43.7-7.1-5.1 20.8-40.7q0.7-1.4 1.8-2.5 1.1-1.1 2.4-1.9 1.3-0.8 2.8-1.3 1.5-0.4 3.1-0.4 1 0 2 0.4 1 0.4 1.8 1.2 0.7 0.7 1.2 1.7 0.4 1 0.4 2 0 0.4-0.1 0.8 0 0.3-0.1 0.7-0.1 0.4-0.3 0.7-0.1 0.3-0.3 0.7z"/>
				<path id="Caminho_48155" class="s0" d="m298.2 385.4l29.1 20.3c0 0-2.6 10.7-19.4 10.1-16.8-0.6-16.2-17.7-16.2-17.7z"/>
				<path id="Caminho_48156" class="s11" d="m379 372.2l-52.7-23.3q-1.3-0.5-2.7-0.7-1.4-0.1-2.8 0.3-1.4 0.3-2.6 1.1-1.2 0.8-2 1.9c-0.7 0.9-1.1 1.9-1.4 2.9-0.3 1-0.3 2.1-0.2 3.2 0.2 1.1 0.6 2.1 1.2 3 0.5 0.9 1.3 1.7 2.1 2.3l0.2 0.1 57.7 39.5z"/>
				<path id="Retângulo_4682" class="s22" d="m386.8 400.6h54.3v8.2h-54.3z"/>
				<path id="Retângulo_4683" class="s0" d="m413.3 377.2h47.2v19h-47.2z"/>
				<path id="Retângulo_4684" class="s11" d="m419.5 355.7h-40.1q-0.7 0-1.4 0.3-0.6 0.2-1.1 0.7-0.5 0.5-0.8 1.1-0.3 0.7-0.3 1.4v37h47.2v-37q0-0.7-0.3-1.4-0.2-0.6-0.7-1.1-0.5-0.5-1.2-0.7-0.6-0.3-1.3-0.3z"/>
				<path id="Caminho_48157" class="s0" d="m461 423.1h-77.3c-1.2 0-2.4-0.3-3.5-0.7-1.1-0.4-2.1-1.1-3-1.9-0.8-0.9-1.5-1.9-2-3-0.4-1.1-0.7-2.3-0.7-3.5 0-1.2 0.3-2.3 0.7-3.4 0.5-1.1 1.2-2.1 2-3 0.9-0.8 1.9-1.5 3-1.9 1.1-0.5 2.3-0.7 3.5-0.7h77.3c1.2 0 2.4 0.2 3.5 0.7 1.1 0.4 2.1 1.1 3 1.9 0.9 0.9 1.5 1.9 2 3 0.5 1.1 0.7 2.2 0.7 3.4 0 1.2-0.2 2.4-0.7 3.5-0.5 1.1-1.1 2.1-2 3-0.9 0.8-1.9 1.5-3 1.9-1.1 0.4-2.3 0.7-3.5 0.7z"/>
				<path id="Caminho_48158" class="s23" d="m449.4 423.1h-77.3c-1.2 0-2.4-0.3-3.5-0.7-1.1-0.4-2.1-1.1-3-1.9-0.9-0.9-1.5-1.9-2-3-0.5-1.1-0.7-2.3-0.7-3.5 0-1.2 0.2-2.3 0.7-3.4 0.5-1.1 1.1-2.1 2-3 0.9-0.8 1.9-1.5 3-1.9 1.1-0.5 2.3-0.7 3.5-0.7h77.3c1.2 0 2.4 0.2 3.5 0.7 1.1 0.4 2.1 1.1 3 1.9 0.8 0.9 1.5 1.9 2 3 0.4 1.1 0.7 2.2 0.7 3.4 0 1.2-0.3 2.4-0.7 3.5-0.5 1.1-1.2 2.1-2 3-0.9 0.8-1.9 1.5-3 1.9-1.1 0.4-2.3 0.7-3.5 0.7z"/>
				<path id="Retângulo_4685" class="s24" d="m375.8 396.2h84.7v6.3h-84.7z"/>
				<path id="Caminho_48159" class="s25" d="m443.1 414q0 1.2 0.4 2.2 0.5 1.1 1.3 1.9 0.8 0.8 1.9 1.2 1 0.5 2.2 0.4 1.1 0.1 2.2-0.4 1.1-0.4 1.9-1.2 0.8-0.8 1.2-1.9 0.5-1 0.5-2.2 0-1.1-0.5-2.1-0.4-1.1-1.2-1.9-0.8-0.8-1.9-1.2-1.1-0.5-2.2-0.4-1.2-0.1-2.2 0.4-1.1 0.4-1.9 1.2-0.8 0.8-1.3 1.8-0.4 1.1-0.4 2.2z"/>
				<path id="Elipse_9" class="s25" d="m433.4 419.7c-3.3 0-5.9-2.5-5.9-5.7 0-3.1 2.6-5.6 5.9-5.6 3.2 0 5.8 2.5 5.8 5.6 0 3.2-2.6 5.7-5.8 5.7z"/>
				<path id="Elipse_10" class="s25" d="m417.8 419.7c-3.2 0-5.8-2.5-5.8-5.7 0-3.1 2.6-5.6 5.8-5.6 3.3 0 5.9 2.5 5.9 5.6 0 3.2-2.6 5.7-5.9 5.7z"/>
				<path id="Caminho_48160" class="s25" d="m396.5 414c-0.1 2.4 1.3 4.6 3.5 5.5 2.2 1 4.7 0.5 6.4-1.2 1.7-1.6 2.2-4.1 1.3-6.3-0.9-2.2-3-3.6-5.4-3.6q-1.1-0.1-2.2 0.4-1.1 0.4-1.9 1.2-0.8 0.8-1.2 1.8-0.5 1.1-0.5 2.2z"/>
				<path id="Caminho_48161" class="s25" d="m381 414c-0.1 2.4 1.3 4.6 3.5 5.5 2.1 1 4.7 0.5 6.4-1.2 1.7-1.6 2.2-4.1 1.3-6.3-0.9-2.2-3-3.6-5.4-3.6q-1.2-0.1-2.2 0.4-1.1 0.4-1.9 1.2-0.8 0.8-1.3 1.8-0.4 1.1-0.4 2.2z"/>
				<path id="Caminho_48162" class="s25" d="m365.4 414c0 2.4 1.4 4.6 3.5 5.5 2.2 1 4.7 0.5 6.4-1.2 1.7-1.6 2.3-4.1 1.4-6.3-0.9-2.2-3.1-3.6-5.4-3.6q-1.2-0.1-2.2 0.4-1.1 0.4-1.9 1.2-0.8 0.8-1.3 1.8-0.4 1.1-0.5 2.2z"/>
				<path id="Caminho_48163" class="s25" d="m320.2 355.7c-0.1-1.3 0.7-2.5 1.9-3 1.2-0.6 2.6-0.3 3.6 0.6 0.9 0.9 1.2 2.3 0.7 3.6-0.5 1.2-1.7 2-3 2q-0.6 0-1.2-0.3-0.6-0.2-1.1-0.6-0.4-0.5-0.7-1.1-0.2-0.5-0.2-1.2z"/>
				<path id="Retângulo_4686" class="s26" d="m382.9 360.8h34.3v20.2h-34.3z"/>
				<path id="Retângulo_4687" class="s27" d="m382.9 360.8h18.8v20.2h-18.8z"/>
			</g>
		</g>
	</g>
</svg>