<svg width="256" height="182" viewBox="0 0 256 182" fill="none" xmlns="http://www.w3.org/2000/svg">
<g clip-path="url(#clip0_24_2)">
<path d="M94.15 97.22L50.54 122.26C48.83 123.25 46.73 123.25 45.04 122.26L1.43997 97.22C0.13997 96.47 -0.49003 93.11 0.45997 91.14C-0.0100304 92.19 0.33997 93.51 1.45997 94.14L45.07 119.2C46.78 120.17 48.88 120.17 50.57 119.2L94.2 94.14C95.4 93.45 95.71 91.97 95.1 90.88C96.46 92.87 95.53 96.43 94.16 97.22H94.15Z" fill="white"/>
<path d="M147.55 65.07L103.94 90.11C102.23 91.1 100.13 91.1 98.44 90.11L54.83 65.07C53.53 64.32 52.9 60.96 53.85 58.99C53.38 60.04 53.73 61.36 54.85 61.99L98.46 87.05C100.17 88.02 102.27 88.02 103.96 87.05L147.59 61.99C148.79 61.3 149.1 59.82 148.49 58.73C149.85 60.72 148.92 64.28 147.55 65.07Z" fill="white"/>
<path d="M201.3 33.03L157.69 58.07C155.98 59.06 153.88 59.06 152.19 58.07L108.58 33.03C107.28 32.28 106.65 28.92 107.6 26.95C107.13 28 107.48 29.32 108.6 29.95L152.21 55.01C153.92 55.98 156.02 55.98 157.71 55.01L201.34 29.95C202.54 29.26 202.85 27.78 202.24 26.69C203.6 28.68 202.67 32.24 201.3 33.03Z" fill="white"/>
<path d="M254.13 65.07L210.52 90.11C208.81 91.1 206.71 91.1 205.02 90.11L161.41 65.07C160.11 64.32 159.48 60.96 160.43 58.99C159.96 60.04 160.31 61.36 161.43 61.99L205.04 87.05C206.75 88.02 208.85 88.02 210.54 87.05L254.17 61.99C255.37 61.3 255.68 59.82 255.07 58.73C256.43 60.72 255.5 64.28 254.13 65.07Z" fill="white"/>
<path d="M201.3 97.22L157.69 122.26C155.98 123.25 153.88 123.25 152.19 122.26L108.58 97.22C107.28 96.47 106.65 93.11 107.6 91.14C107.13 92.19 107.48 93.51 108.6 94.14L152.21 119.2C153.92 120.17 156.02 120.17 157.71 119.2L201.34 94.14C202.54 93.45 202.85 91.97 202.24 90.88C203.6 92.87 202.67 96.43 201.3 97.22Z" fill="white"/>
<path d="M147.55 129.23L103.94 154.27C102.23 155.26 100.13 155.26 98.44 154.27L54.83 129.23C53.53 128.48 52.9 125.12 53.85 123.15C53.38 124.2 53.73 125.52 54.85 126.15L98.46 151.21C100.17 152.18 102.27 152.18 103.96 151.21L147.59 126.15C148.79 125.46 149.1 123.98 148.49 122.89C149.85 124.88 148.92 128.44 147.55 129.23Z" fill="white"/>
<path d="M47.81 64.43C48.73 64.43 49.65 64.67 50.45 65.13L94.06 90.17C94.75 90.56 95.16 91.27 95.16 92.06C95.16 92.85 94.75 93.56 94.06 93.95L50.45 118.99C49.65 119.45 48.74 119.69 47.81 119.69C46.88 119.69 45.97 119.45 45.17 118.99L1.56999 93.95C0.879985 93.56 0.469985 92.85 0.469985 92.06C0.469985 91.27 0.879985 90.56 1.56999 90.17L45.18 65.13C45.98 64.67 46.89 64.43 47.82 64.43M47.81 64.2C46.86 64.2 45.91 64.44 45.06 64.93L1.44999 89.97C-0.170015 90.9 -0.170015 93.22 1.44999 94.15L45.06 119.19C45.91 119.68 46.86 119.92 47.81 119.92C48.76 119.92 49.71 119.68 50.56 119.19L94.17 94.15C95.79 93.22 95.79 90.9 94.17 89.97L50.56 64.93C49.71 64.44 48.76 64.2 47.81 64.2Z" fill="white"/>
<path d="M101.21 32.28C102.13 32.28 103.05 32.52 103.85 32.98L147.46 58.02C148.15 58.41 148.56 59.12 148.56 59.91C148.56 60.7 148.15 61.41 147.46 61.8L103.85 86.84C103.05 87.3 102.14 87.54 101.21 87.54C100.28 87.54 99.37 87.3 98.57 86.84L54.96 61.8C54.27 61.41 53.86 60.7 53.86 59.91C53.86 59.12 54.27 58.41 54.96 58.02L98.57 32.98C99.37 32.52 100.28 32.28 101.21 32.28ZM101.21 32.05C100.26 32.05 99.31 32.29 98.46 32.78L54.85 57.82C53.23 58.75 53.23 61.07 54.85 62L98.46 87.04C99.31 87.53 100.26 87.77 101.21 87.77C102.16 87.77 103.11 87.53 103.96 87.04L147.57 62C149.19 61.07 149.19 58.75 147.57 57.82L103.96 32.78C103.11 32.29 102.16 32.05 101.21 32.05Z" fill="white"/>
<path d="M154.97 0.23C155.89 0.23 156.81 0.47 157.61 0.93L201.22 25.97C201.91 26.36 202.32 27.07 202.32 27.86C202.32 28.65 201.91 29.36 201.22 29.75L157.61 54.79C156.81 55.25 155.9 55.49 154.97 55.49C154.04 55.49 153.13 55.25 152.33 54.79L108.72 29.75C108.03 29.36 107.62 28.65 107.62 27.86C107.62 27.07 108.03 26.36 108.72 25.97L152.34 0.93C153.14 0.47 154.05 0.23 154.98 0.23M154.97 0C154.02 0 153.07 0.24 152.22 0.73L108.61 25.77C106.99 26.7 106.99 29.02 108.61 29.95L152.22 54.99C153.07 55.48 154.02 55.72 154.97 55.72C155.92 55.72 156.87 55.48 157.72 54.99L201.33 29.95C202.95 29.02 202.95 26.7 201.33 25.77L157.73 0.73C156.88 0.24 155.93 0 154.98 0H154.97Z" fill="white"/>
<path d="M207.8 32.27C208.72 32.27 209.64 32.51 210.44 32.97L254.05 58.01C254.74 58.4 255.15 59.11 255.15 59.9C255.15 60.69 254.74 61.4 254.05 61.79L210.44 86.83C209.64 87.29 208.73 87.53 207.8 87.53C206.87 87.53 205.96 87.29 205.16 86.83L161.55 61.79C160.86 61.4 160.45 60.69 160.45 59.9C160.45 59.11 160.86 58.4 161.55 58.01L205.16 32.97C205.96 32.51 206.87 32.27 207.8 32.27ZM207.8 32.04C206.85 32.04 205.9 32.28 205.05 32.77L161.44 57.81C159.82 58.74 159.82 61.06 161.44 61.99L205.05 87.03C205.9 87.52 206.85 87.76 207.8 87.76C208.75 87.76 209.7 87.52 210.55 87.03L254.16 61.99C255.78 61.06 255.78 58.74 254.16 57.81L210.55 32.77C209.7 32.28 208.75 32.04 207.8 32.04Z" fill="white"/>
<path d="M154.97 64.43C155.89 64.43 156.81 64.67 157.61 65.13L201.22 90.17C201.91 90.56 202.32 91.27 202.32 92.06C202.32 92.85 201.91 93.56 201.22 93.95L157.61 118.99C156.81 119.45 155.9 119.69 154.97 119.69C154.04 119.69 153.13 119.45 152.33 118.99L108.72 93.95C108.03 93.56 107.62 92.85 107.62 92.06C107.62 91.27 108.03 90.56 108.72 90.17L152.33 65.13C153.13 64.67 154.04 64.43 154.97 64.43ZM154.97 64.2C154.02 64.2 153.07 64.44 152.22 64.93L108.61 89.97C106.99 90.9 106.99 93.22 108.61 94.15L152.22 119.19C153.07 119.68 154.02 119.92 154.97 119.92C155.92 119.92 156.87 119.68 157.72 119.19L201.33 94.15C202.95 93.22 202.95 90.9 201.33 89.97L157.72 64.93C156.87 64.44 155.92 64.2 154.97 64.2Z" fill="white"/>
<path d="M101.21 96.45C102.13 96.45 103.05 96.69 103.85 97.15L147.46 122.19C148.15 122.58 148.56 123.29 148.56 124.08C148.56 124.87 148.15 125.58 147.46 125.97L103.85 151.01C103.05 151.47 102.14 151.71 101.21 151.71C100.28 151.71 99.37 151.47 98.57 151.01L54.96 125.97C54.27 125.58 53.86 124.87 53.86 124.08C53.86 123.29 54.27 122.58 54.96 122.19L98.57 97.15C99.37 96.69 100.28 96.45 101.21 96.45ZM101.21 96.22C100.26 96.22 99.31 96.46 98.46 96.95L54.85 121.99C53.23 122.92 53.23 125.24 54.85 126.17L98.46 151.21C99.31 151.7 100.26 151.94 101.21 151.94C102.16 151.94 103.11 151.7 103.96 151.21L147.57 126.17C149.19 125.24 149.19 122.92 147.57 121.99L103.96 96.95C103.11 96.46 102.16 96.22 101.21 96.22Z" fill="white"/>
<path d="M111.34 180.69C110.72 181.06 110.45 180.85 110.44 180.01L110.42 163.51L106.77 165.69C106.15 166.06 105.88 165.85 105.87 165.01V160.94C105.87 160.1 106.14 159.57 106.76 159.2L119.87 151.38C120.49 151.01 120.76 151.22 120.77 152.06V156.13C120.77 156.97 120.5 157.5 119.88 157.87L116.23 160.05L116.25 176.55C116.25 177.39 115.98 177.92 115.36 178.29L111.34 180.69Z" fill="white"/>
<path d="M123.11 173.68C122.49 174.05 122.22 173.84 122.21 173L122.18 151.22C122.18 150.38 122.45 149.85 123.07 149.48L134.59 142.61C135.21 142.24 135.48 142.45 135.49 143.29V147.22C135.49 148.06 135.22 148.59 134.6 148.96L127.75 153.05V155.64L132.59 152.75C133.21 152.38 133.48 152.59 133.49 153.43V157.03C133.49 157.87 133.22 158.4 132.6 158.77L127.76 161.66V164.55L134.61 160.46C135.23 160.09 135.5 160.3 135.51 161.14V165.07C135.51 165.91 135.24 166.44 134.62 166.81L123.1 173.68H123.11Z" fill="white"/>
<path d="M143.16 161.71C138.99 164.2 137.05 163.17 137.04 158.5L137.02 148.05C137.02 143.34 138.95 140 143.12 137.52L149.18 133.91C149.8 133.54 150.07 133.75 150.08 134.59V138.66C150.08 139.5 149.81 140.03 149.19 140.4L144.2 143.38C143.16 144 142.69 144.82 142.69 145.96V153.96C142.7 155.07 143.18 155.29 144.22 154.67L149.21 151.69C149.83 151.32 150.1 151.53 150.11 152.37V156.37C150.11 157.21 149.84 157.74 149.22 158.11L143.16 161.72V161.71Z" fill="white"/>
<path d="M152.82 155.95C152.2 156.32 151.93 156.11 151.92 155.27L151.89 133.49C151.89 132.65 152.16 132.12 152.78 131.75L156.63 129.46C157.25 129.09 157.52 129.3 157.53 130.14V137.43L161.69 134.96V127.67C161.68 126.83 161.95 126.3 162.57 125.93L166.42 123.64C167.04 123.27 167.31 123.48 167.32 124.32L167.35 146.1C167.35 146.94 167.08 147.47 166.46 147.84L162.61 150.13C161.99 150.5 161.72 150.29 161.71 149.45V141.99L157.55 144.46V151.92C157.56 152.76 157.29 153.29 156.67 153.66L152.82 155.95Z" fill="white"/>
<path d="M178.41 140.69L174.76 142.87C174.14 143.24 173.87 143.03 173.86 142.19V133.32C173.85 131.98 174.14 130.12 174.81 127.36L176.96 118.44C177.16 117.55 177.55 116.98 178.22 116.58L184.9 112.6C185.55 112.22 185.94 112.31 186.14 112.97L188.31 119.31C188.98 121.26 189.28 122.77 189.29 124.11V132.98C189.3 133.82 189.03 134.35 188.41 134.72L184.66 136.96C183.99 137.36 183.69 137.17 183.69 136.33V131.62L179.29 134.24V138.95C179.29 139.79 179.03 140.32 178.41 140.69ZM179.53 127.98L183.43 125.66L182.26 121.25C182.14 120.92 181.99 120.84 181.79 120.96L181.17 121.33C180.97 121.45 180.82 121.71 180.7 122.18L179.54 127.98H179.53Z" fill="white"/>
<path d="M200.01 127.81C199.39 128.18 199.12 127.97 199.11 127.13L199.09 110.63L195.44 112.81C194.82 113.18 194.55 112.97 194.54 112.13V108.06C194.54 107.22 194.81 106.69 195.43 106.32L208.54 98.5C209.16 98.13 209.43 98.34 209.44 99.18V103.25C209.44 104.09 209.17 104.62 208.55 104.99L204.9 107.17L204.92 123.67C204.92 124.51 204.65 125.04 204.03 125.41L200.01 127.81Z" fill="white"/>
<path d="M211.77 120.79C211.15 121.16 210.88 120.95 210.87 120.11L210.84 98.33C210.84 97.49 211.11 96.96 211.73 96.59L223.25 89.72C223.87 89.35 224.14 89.56 224.15 90.4V94.33C224.15 95.17 223.88 95.7 223.26 96.07L216.41 100.16V102.75L221.25 99.86C221.87 99.49 222.14 99.7 222.15 100.54V104.14C222.15 104.98 221.88 105.51 221.26 105.88L216.42 108.77V111.66L223.27 107.57C223.89 107.2 224.16 107.41 224.17 108.25V112.18C224.17 113.02 223.9 113.55 223.28 113.92L211.76 120.79H211.77Z" fill="white"/>
<path d="M231.83 108.83C227.66 111.32 225.72 110.29 225.71 105.62L225.69 95.17C225.69 90.46 227.62 87.12 231.79 84.64L237.85 81.03C238.47 80.66 238.74 80.87 238.75 81.71V85.78C238.75 86.62 238.48 87.15 237.86 87.52L232.87 90.5C231.83 91.12 231.36 91.94 231.36 93.08V101.08C231.37 102.19 231.85 102.41 232.89 101.79L237.88 98.81C238.5 98.44 238.77 98.65 238.78 99.49V103.49C238.78 104.33 238.51 104.86 237.89 105.23L231.83 108.84V108.83Z" fill="white"/>
<path d="M241.48 103.07C240.86 103.44 240.59 103.23 240.58 102.39L240.55 80.61C240.55 79.77 240.82 79.24 241.44 78.87L245.29 76.58C245.91 76.21 246.18 76.42 246.19 77.26V84.55L250.35 82.08V74.79C250.34 73.95 250.61 73.42 251.23 73.05L255.08 70.76C255.7 70.39 255.97 70.6 255.98 71.44L256.01 93.22C256.01 94.06 255.74 94.59 255.12 94.96L251.27 97.25C250.65 97.62 250.38 97.41 250.37 96.57V89.11L246.21 91.58V99.04C246.22 99.88 245.95 100.41 245.33 100.78L241.48 103.07Z" fill="white"/>
<path d="M136.13 29.48C135.51 29.14 135.58 28.8 136.37 28.35L156.74 16.81C157.53 16.36 158.15 16.32 158.77 16.66L170.31 22.93C170.93 23.27 170.86 23.61 170.07 24.06L166.39 26.14C165.6 26.59 164.98 26.63 164.36 26.29L157.5 22.56L155.08 23.93L159.93 26.56C160.55 26.9 160.48 27.24 159.69 27.69L156.33 29.6C155.54 30.05 154.92 30.09 154.3 29.75L149.45 27.11L146.75 28.64L153.61 32.37C154.23 32.71 154.16 33.05 153.37 33.5L149.69 35.58C148.9 36.03 148.28 36.07 147.66 35.73L136.12 29.46L136.13 29.48Z" fill="white"/>
<path d="M136.13 95.33C135.51 94.99 135.58 94.65 136.37 94.2L156.74 82.66C157.53 82.21 158.15 82.17 158.77 82.51L170.31 88.78C170.93 89.12 170.86 89.46 170.07 89.91L166.39 91.99C165.6 92.44 164.98 92.48 164.36 92.14L157.5 88.41L155.08 89.78L159.93 92.41C160.55 92.75 160.48 93.09 159.69 93.54L156.33 95.45C155.54 95.9 154.92 95.94 154.3 95.6L149.45 92.96L146.75 94.49L153.61 98.22C154.23 98.56 154.16 98.9 153.37 99.35L149.69 101.43C148.9 101.88 148.28 101.92 147.66 101.58L136.12 95.31L136.13 95.33Z" fill="white"/>
<path d="M188.34 61.37C187.66 61 187.7 60.65 188.46 60.21L208.22 48.99C208.98 48.56 209.62 48.53 210.29 48.9L219.43 53.9C223.99 56.39 224.12 58.68 219.88 61.08L210.37 66.48C206.13 68.89 202.03 68.85 197.48 66.36L188.34 61.36V61.37ZM199.28 60.93L202.51 62.7C203.38 63.18 204.24 63.14 205.28 62.55L212.69 58.34C213.7 57.77 213.75 57.29 212.88 56.81L209.65 55.04L199.28 60.93Z" fill="white"/>
<path d="M85.96 64.73C85.33 64.38 85.38 64.04 86.13 63.62L100.96 55.27L97.23 53.23C96.6 52.88 96.65 52.54 97.4 52.12L101.06 50.06C101.82 49.63 102.43 49.6 103.06 49.95L116.47 57.27C117.1 57.62 117.05 57.96 116.3 58.38L112.64 60.44C111.88 60.87 111.27 60.9 110.64 60.55L106.91 58.51L92.08 66.86C91.32 67.29 90.71 67.32 90.08 66.97L85.97 64.72L85.96 64.73Z" fill="white"/>
<path d="M34.15 98.03C29.31 95.59 29.18 93.29 33.73 90.81L43.9 85.26C48.48 82.76 52.85 82.73 57.69 85.18L64.72 88.73C65.44 89.09 65.4 89.45 64.58 89.9L60.62 92.06C59.8 92.51 59.13 92.54 58.41 92.18L52.62 89.26C51.41 88.65 50.34 88.66 49.23 89.26L41.45 93.51C40.37 94.1 40.43 94.64 41.64 95.25L47.43 98.17C48.15 98.53 48.11 98.89 47.29 99.34L43.4 101.46C42.58 101.91 41.91 101.94 41.19 101.58L34.16 98.03H34.15Z" fill="white"/>
<path d="M83.06 125.09C82.39 124.73 82.43 124.38 83.2 123.94L103.03 112.49C103.8 112.05 104.43 112.01 105.1 112.37L109.26 114.6C109.93 114.96 109.89 115.31 109.12 115.75L102.48 119.58L106.96 121.98L113.6 118.15C114.37 117.71 115 117.67 115.67 118.03L119.83 120.26C120.5 120.62 120.46 120.97 119.69 121.41L99.86 132.86C99.09 133.3 98.46 133.34 97.79 132.98L93.63 130.75C92.96 130.39 93 130.04 93.77 129.6L100.56 125.68L96.08 123.28L89.29 127.2C88.52 127.64 87.89 127.68 87.22 127.32L83.06 125.09Z" fill="white"/>
<path d="M0.929998 125.13C0.319998 124.76 0.0599976 124.25 0.0599976 123.46V102.92C0.0599976 102.13 0.329998 101.94 0.929998 102.31L12.17 109.12C12.78 109.49 13.04 110 13.04 110.79V114.5C13.04 115.29 12.77 115.48 12.17 115.11L5.48 111.06V113.5L10.2 116.36C10.81 116.73 11.07 117.24 11.07 118.03V121.42C11.07 122.21 10.8 122.4 10.2 122.03L5.48 119.17V121.9L12.17 125.95C12.78 126.32 13.04 126.83 13.04 127.62V131.33C13.04 132.12 12.77 132.31 12.17 131.94L0.929998 125.13Z" fill="white"/>
<path d="M15.81 134.14C15.2 133.77 14.94 133.26 14.94 132.47V111.93C14.94 111.14 15.21 110.95 15.81 111.32L23.97 116.27C28.04 118.74 29.93 121.94 29.93 126.35V136.24C29.93 140.65 28.04 141.56 23.97 139.1L15.81 134.15V134.14ZM20.44 130.95L23.32 132.7C24.1 133.17 24.46 132.91 24.46 131.84V124.14C24.46 123.09 24.1 122.4 23.32 121.93L20.44 120.18V130.96V130.95Z" fill="white"/>
<path d="M39.41 148.91C33.4 145.27 31.92 141.78 31.92 137.91V122.22C31.92 121.43 32.19 121.24 32.79 121.61L36.59 123.91C37.2 124.28 37.46 124.79 37.46 125.58V140.04C37.46 140.9 37.75 141.71 39.45 142.73C41.17 143.77 41.46 143.31 41.46 142.46V128C41.46 127.21 41.7 127.01 42.33 127.39L46.01 129.62C46.62 129.99 46.88 130.5 46.88 131.29V146.98C46.88 150.85 45.4 152.55 39.39 148.91H39.41Z" fill="white"/>
<path d="M54.84 157.78C50.77 155.31 48.88 152.11 48.88 147.7V137.84C48.88 133.4 50.77 132.49 54.84 134.95L60.75 138.53C61.36 138.9 61.62 139.41 61.62 140.2V144.04C61.62 144.83 61.35 145.02 60.75 144.65L55.88 141.7C54.86 141.08 54.4 141.31 54.4 142.39V149.94C54.4 150.99 54.86 151.74 55.88 152.36L60.75 155.31C61.36 155.68 61.62 156.19 61.62 156.98V160.75C61.62 161.54 61.35 161.73 60.75 161.36L54.84 157.78Z" fill="white"/>
<path d="M67.46 165.43L63.9 163.27C63.29 162.9 63.03 162.39 63.03 161.6V153.23C63.03 151.96 63.32 150.55 63.97 148.73L66.08 142.81C66.27 142.2 66.66 142.12 67.32 142.51L73.84 146.46C74.47 146.84 74.86 147.39 75.05 148.24L77.16 156.71C77.81 159.33 78.1 161.09 78.1 162.35V170.72C78.1 171.51 77.83 171.7 77.23 171.33L73.57 169.11C72.92 168.71 72.63 168.19 72.63 167.4V162.96L68.34 160.36V164.8C68.34 165.59 68.07 165.78 67.47 165.41L67.46 165.43ZM68.57 154.75L72.37 157.05L71.23 151.54C71.11 151.09 70.96 150.84 70.77 150.72L70.16 150.35C69.97 150.23 69.82 150.3 69.7 150.61L68.56 154.74L68.57 154.75Z" fill="white"/>
<path d="M80.98 173.62C80.37 173.25 80.11 172.74 80.11 171.95V151.41C80.11 150.62 80.38 150.43 80.98 150.8L89.05 155.69C92.68 157.89 93.82 160.74 93.82 163.88V165.34C93.82 167.12 93.48 168.18 92.46 168.13C94.23 169.45 95.39 171.84 95.39 174.5V181.22C95.39 182.01 95.12 182.2 94.52 181.83L90.76 179.56C90.15 179.19 89.89 178.68 89.89 177.89V173.04C89.89 172.09 89.65 171.53 88.97 171.12L85.58 169.07V175.28C85.58 176.07 85.31 176.26 84.71 175.89L80.98 173.63V173.62ZM85.58 163.34L87.4 164.44C88.25 164.95 88.47 164.45 88.47 163.6V162.52C88.47 161.66 88.25 160.9 87.4 160.38L85.58 159.28V163.34Z" fill="white"/>
</g>
<defs>
<clipPath id="clip0_24_2">
<rect width="256" height="182" fill="white"/>
</clipPath>
</defs>
</svg>
