<svg version="1.2" xmlns="http://www.w3.org/2000/svg" viewBox="0 0 4167 4167" width="4167" height="4167">
	<title>Logo EDTECH 03-svg</title>
	<style>
		.s0 { fill: currentColor } 
	</style>
	<path fill-rule="evenodd" class="s0" d="m2412.6 1068.3q0.5 0 1.1 0c17.1 0.1 30.2 6.8 44.6 15.3q4.8 2.8 9.6 5.6 0.8 0.5 1.7 1 1.6 0.9 3.3 1.9 4 2.3 8.1 4.7 1.6 0.9 3.3 1.8 29.2 16.9 58.5 33.8 0.8 0.4 1.6 0.9 1.6 0.9 3.2 1.9 4.1 2.3 8.2 4.7 7.8 4.5 15.6 9.1 6.5 3.8 13.1 7.5 7.3 4.2 14.5 8.4 7.9 4.6 15.9 9.2 4 2.3 8.1 4.7 1.6 0.9 3.3 1.8c48.7 28.2 48.7 28.2 97.5 56.3q0.8 0.4 1.6 0.9 1.6 0.9 3.2 1.9 4.1 2.3 8.2 4.7 7.8 4.5 15.6 9.1 6.5 3.8 13.1 7.5 7.3 4.2 14.5 8.4 7.9 4.6 15.9 9.2 4 2.3 8.1 4.7 1.6 0.9 3.3 1.8 48.7 28.2 97.5 56.3 0.8 0.4 1.6 0.9 1.6 0.9 3.2 1.9 4.1 2.3 8.2 4.7 7.8 4.5 15.6 9.1 6.5 3.8 13.1 7.5 7.3 4.1 14.5 8.4 4 2.3 8 4.6 0.8 0.5 1.7 1 1.7 0.9 3.3 1.9c12 6.8 19.1 15.7 22.9 29 4.1 18.3 0.8 38.6-8.9 54.6-1.2 1.8-2.5 3.4-4 5q-0.5 0.5-0.9 1c-3 2.9-6.4 4.7-10 6.6-2.8 1.5-5.6 3.1-8.3 4.7q-6.4 3.8-12.7 7.4-0.8 0.5-1.7 1-1.6 0.9-3.3 1.9-4 2.3-8.1 4.7-1.6 0.9-3.2 1.8-0.9 0.5-1.7 1c-108.9 62.8-108.9 62.8-110.5 63.7q-1.6 0.9-3.2 1.9-4.1 2.3-8.2 4.7-7.8 4.5-15.6 9.1-7 4-14 8-6.8 3.9-13.6 7.9-7.9 4.6-15.9 9.2-4 2.3-8.1 4.7-1.6 0.9-3.2 1.8-0.9 0.5-1.7 1c-121.8 70.3-121.8 70.3-123.5 71.2q-1.6 0.9-3.2 1.9-4.1 2.3-8.2 4.7-7.8 4.5-15.6 9.1-7 4-14 8-6.8 3.9-13.6 7.9-7.9 4.6-15.9 9.2-4 2.3-8.1 4.7-1.6 0.9-3.2 1.8-0.9 0.5-1.7 1-28.4 16.4-56.8 32.8-0.9 0.4-1.7 0.9-1.6 0.9-3.2 1.9-5 2.8-9.9 5.7-2.5 1.4-4.9 2.8-3 1.7-5.9 3.5c-16.4 9.6-34.8 14.5-53.7 9.8-10.9-2.9-20.1-8.4-29.8-14q-4.1-2.4-8.3-4.8-6.2-3.6-12.3-7.2-7-4-14-8-6.8-3.9-13.6-7.9-5.7-3.3-11.5-6.6-7.3-4.2-14.5-8.4-7.9-4.6-15.9-9.2-4-2.3-8.1-4.6-1.6-1-3.2-1.9-48.8-28.1-97.5-56.3-0.9-0.4-1.7-0.9-1.6-0.9-3.2-1.9-4.1-2.3-8.2-4.7-7.8-4.5-15.6-9.1-6.5-3.8-13.1-7.5-7.3-4.2-14.5-8.4-7.9-4.6-15.9-9.2-4-2.3-8.1-4.6-1.6-1-3.2-1.9c-61.8-35.6-61.8-35.6-123.5-71.3q-0.9-0.4-1.7-0.9-1.6-0.9-3.2-1.9-4.1-2.3-8.2-4.7-7.8-4.5-15.6-9.1-6.5-3.8-13.1-7.5-7.3-4.2-14.5-8.4-7.9-4.6-15.9-9.2-4-2.3-8.1-4.6-1.6-1-3.2-1.9c-3.3-1.9-3.3-1.9-6.5-3.8-0.9-0.4-0.9-0.4-1.7-0.9q-1.6-0.9-3.2-1.9-3.8-2.2-7.6-4.3-1.3-0.8-2.6-1.5-1.7-1-3.3-2c-11.7-6.6-17.6-14.7-21.2-27.7-0.7-2.6-1.2-5.2-1.7-7.8q-0.2-0.8-0.3-1.7c-2.5-14.7-1.5-34.2 6.9-47.1 4.4-6 10-9.3 16.4-12.9q0.9-0.6 1.8-1.1 1.5-0.8 2.9-1.6 4.7-2.7 9.4-5.4 0.8-0.5 1.6-0.9 5.4-3.1 10.7-6.3 7-4 14-8 6.8-3.9 13.6-7.9 7.9-4.6 15.9-9.2 4-2.3 8.1-4.6 1.6-1 3.3-1.9c0.8-0.5 0.8-0.5 1.6-1 95.9-55.3 95.9-55.3 97.5-56.2q1.6-0.9 3.2-1.9 4.1-2.3 8.2-4.7 7.8-4.5 15.6-9.1 7-4 14-8 6.8-3.9 13.6-7.9 7.9-4.6 15.9-9.2 4-2.3 8.1-4.6 1.6-1 3.3-1.9 0.8-0.5 1.6-1c95.9-55.3 95.9-55.3 97.5-56.2q1.6-0.9 3.2-1.9 4.1-2.3 8.2-4.7 7.8-4.5 15.6-9.1 7-4 14-8 6.8-3.9 13.6-7.9 7.9-4.6 15.9-9.2 4-2.3 8.1-4.6 1.6-1 3.3-1.9 0.8-0.5 1.6-1 28.4-16.4 56.9-32.8 0.8-0.4 1.6-0.9 1.6-0.9 3.2-1.9 4.2-2.4 8.3-4.8 4.1-2.3 8.2-4.7 1.3-0.7 2.6-1.5c4.1-2.3 8.1-4.2 12.6-5.7q0.6-0.2 1.2-0.5c6.6-2.1 13.2-2.9 20.1-2.8zm-43.9 18.7q-4.1 2.4-8.2 4.8-1.6 0.9-3.2 1.8c-6.6 3.8-6.6 3.8-8.2 4.7q-1.6 0.9-3.2 1.9-4.1 2.3-8.2 4.7-7.8 4.5-15.6 9.1-7 4-14 8-6.8 3.9-13.6 7.9-7.9 4.6-15.9 9.2-4 2.3-8.1 4.7-1.6 0.9-3.2 1.8-0.9 0.5-1.7 1c-95.8 55.3-95.8 55.3-97.5 56.2q-1.6 0.9-3.2 1.9-4.1 2.3-8.2 4.7-7.8 4.5-15.6 9.1-7 4-14 8-6.8 3.9-13.6 7.9-7.9 4.6-15.9 9.2-4 2.3-8.1 4.7-1.6 0.9-3.2 1.8-0.9 0.5-1.7 1c-95.8 55.3-95.8 55.3-97.5 56.2q-1.6 0.9-3.2 1.9-4.1 2.3-8.2 4.7-7.8 4.5-15.6 9.1-7 4-14 8-6.8 3.9-13.6 7.9-7.9 4.6-15.9 9.2-4 2.3-8.1 4.7-1.6 0.9-3.2 1.8c-0.9 0.5-0.9 0.5-1.7 1-30.8 17.8-30.8 17.8-32.5 18.7q-1.6 0.9-3.2 1.9-4.2 2.4-8.4 4.8c-14.9 8.3-14.9 8.3-23.6 22.7-1.6 7.1-0.5 14.1 3 20.4q0.8 1.2 1.6 2.4 0.4 0.5 0.7 1c4.8 6.2 13.6 9.7 20.2 13.5q4.6 2.6 9.1 5.3 1.6 0.9 3.3 1.8 9.7 5.7 19.5 11.3 0.8 0.4 1.6 0.9 1.6 0.9 3.2 1.9 4.1 2.3 8.2 4.7 7.8 4.5 15.6 9.1 6.5 3.8 13.1 7.5 7.3 4.2 14.5 8.4 7.9 4.6 15.9 9.2 4 2.3 8.1 4.7 1.6 0.9 3.3 1.8 48.7 28.2 97.5 56.3 0.8 0.4 1.6 0.9 1.6 0.9 3.2 1.9 4.1 2.3 8.2 4.7 7.8 4.5 15.6 9.1 6.5 3.8 13.1 7.5 7.3 4.2 14.5 8.4 7.9 4.6 15.9 9.2 4 2.3 8.1 4.7 1.6 0.9 3.3 1.8c42.2 24.4 42.2 24.4 84.5 48.8q0.8 0.4 1.6 0.9 1.6 0.9 3.2 1.9 4.1 2.3 8.2 4.7 7.8 4.5 15.6 9.1 6.5 3.8 13.1 7.5 7.3 4.2 14.5 8.4 7.9 4.6 15.9 9.2 4 2.3 8.1 4.7 1.6 0.9 3.3 1.8c32.5 18.8 32.5 18.8 34.1 19.7q1.6 0.9 3.2 1.9 4.2 2.4 8.3 4.8c18.3 10.6 36 17.5 57.4 12.1 10-2.7 18.8-7.9 27.6-13.2q4-2.3 8-4.6 1.7-1 3.3-1.9 0.8-0.5 1.7-1 4-2.3 8.1-4.6 1.6-1 3.3-1.9 0.8-0.5 1.6-1c17.8-10.3 17.8-10.3 19.5-11.2q1.6-0.9 3.2-1.9 4.1-2.3 8.2-4.7 7.8-4.5 15.6-9.1 7-4 14-8 6.8-3.9 13.6-7.9 7.9-4.6 15.9-9.2 4-2.3 8.1-4.6 1.6-1 3.3-1.9 0.8-0.5 1.6-1c95.8-55.3 95.8-55.3 97.5-56.2q1.6-0.9 3.2-1.9 4.1-2.3 8.2-4.7 7.8-4.5 15.6-9.1 7-4 14-8 6.8-3.9 13.6-7.9 7.9-4.6 15.9-9.2 4-2.3 8.1-4.6 1.6-1 3.3-1.9c0.8-0.5 0.8-0.5 1.6-1 95.8-55.3 95.8-55.3 97.5-56.2q1.6-0.9 3.2-1.9 4.1-2.3 8.2-4.7 7.8-4.5 15.6-9.1 7-4 14-8 6.8-3.9 13.6-7.9 7.9-4.6 15.9-9.2 4-2.3 8.1-4.6 1.6-1 3.3-1.9 0.8-0.5 1.6-1c4.9-2.8 4.9-2.8 6.5-3.7q1.6-0.9 3.2-1.9 3.8-2.1 7.5-4.3 1.3-0.8 2.7-1.5 1.6-1 3.3-1.9c8.5-4.9 15.9-9.6 19.1-19.4 1.8-6.9 1.2-13.8-1.9-20.2-3.4-5.7-8.1-9.5-13.9-12.6q-1.3-0.8-2.6-1.5-1.3-0.7-2.6-1.4c-2.6-1.5-5.1-3-7.7-4.5q-8.7-5.1-17.4-10.1-4-2.3-8.1-4.6-1.6-1-3.2-1.9-48.8-28.1-97.5-56.3-0.9-0.4-1.7-0.9-1.6-0.9-3.2-1.9-4.1-2.3-8.2-4.7-7.8-4.5-15.6-9.1-6.5-3.8-13.1-7.5-7.3-4.2-14.5-8.4-7.9-4.6-15.9-9.2-4-2.3-8.1-4.6-1.6-1-3.2-1.9-48.8-28.1-97.5-56.3-0.9-0.4-1.7-0.9-1.6-0.9-3.2-1.9-4.1-2.3-8.2-4.7-7.8-4.5-15.6-9.1-6.5-3.8-13.1-7.5-7.3-4.2-14.5-8.4-7.9-4.6-15.9-9.2-4-2.3-8.1-4.6-1.6-1-3.2-1.9c-97.6-56.3-97.6-56.3-99.2-57.2q-1.6-0.9-3.2-1.9-4.2-2.4-8.3-4.8-4.1-2.3-8.2-4.7-1.9-1.1-3.7-2.1c-27.8-16.1-52.6-10.1-79 5.3z"/>
	<path class="s0" d="m2465.2 1275.5q0.9 0.5 1.8 1 6.3 3.4 12.5 7c4.5 2.5 9 4.9 13.5 7.3q7.2 3.8 14.2 7.8c3.9 2.2 7.8 4.3 11.8 6.4 4.4 2.3 8.8 4.7 13.2 7.2 4.9 2.8 9.9 5.5 14.8 8.1q7.1 3.7 14.1 7.7c4.1 2.4 8.2 4.6 12.4 6.8 5.2 2.7 10.4 5.5 15.5 8.4q3.4 2 6.9 3.8 0.6 0.4 1.4 0.8 1.2 0.7 2.6 1.4c2.8 1.5 4.6 2.8 5.7 6-0.1 2.7-1.2 3.9-3.1 5.8q-1.5 1-3 1.9c-0.4 0.3-0.4 0.3-0.8 0.5-3.1 1.8-6.1 3.6-9.2 5.4q-0.9 0.5-1.9 1-1.4 0.8-2.8 1.6-3.2 1.8-6.4 3.7-9.3 5.3-18.6 10.5-3.8 2.1-7.4 4.3c-5.8 3.3-12.1 5.3-18.9 4.1-4.7-1.3-8.9-3.7-13.1-6q-1.1-0.5-2.2-1.1-6.7-3.6-13.4-7.5c-3.9-2.2-7.8-4.3-11.8-6.4-4.4-2.3-8.8-4.7-13.2-7.2-4.9-2.8-9.8-5.5-14.8-8.1q-8.8-4.6-17.5-9.6-0.5-0.3-1-0.6-0.5-0.3-1-0.6c-1.3-0.5-2.1-0.3-3.5 0.1-1 0.5-1 0.5-2 1.1-0.6 0.3-0.6 0.3-1.2 0.7q-0.7 0.3-1.3 0.7-1.4 0.8-2.8 1.7-0.8 0.4-1.6 0.8-2.6 1.6-5.4 3.1-1.4 0.8-2.8 1.6-1 0.6-1.9 1.1-1.3 0.8-2.7 1.5-0.7 0.4-1.5 0.9c-1.1 0.7-1.9 1.3-2.8 2.3q9.4 5.4 19 10.5 7.3 3.9 14.5 8c4.9 2.8 9.9 5.4 14.8 8 3.2 1.6 6.3 3.3 9.3 5.1q0.8 0.5 1.6 0.9c1.4 1.1 2.3 2 3.3 3.5 0.4 2.6 0.5 3.4-1.1 5.5-4.4 5-11.8 7.9-17.5 11.1q-4.7 2.6-9.4 5.3-1.3 0.8-2.7 1.5-4 2.4-8.1 4.7-1.9 1.1-3.7 2.2-1.3 0.7-2.6 1.5c-5.8 3.3-11.4 6.3-18.2 6.4q-0.5 0-1.1 0c-5.8 0.1-10.8-3-15.7-5.7q-1-0.5-1.9-1-6.3-3.4-12.5-7c-4.5-2.5-9-4.9-13.5-7.3q-8.1-4.3-16-8.8-0.6-0.3-1.2-0.7-1.4-0.8-2.7-1.6c-0.8-0.4-0.8-0.4-1.5-0.8q-0.7-0.4-1.3-0.8c-1.6-0.6-2.2-0.5-3.8 0q-1.4 0.7-2.8 1.5c-0.8 0.4-0.8 0.4-1.7 0.9q-0.9 0.5-1.7 1-1 0.5-1.9 1-2.7 1.6-5.4 3.1-0.8 0.4-1.6 0.9-7.5 4.2-14.9 8.6c1.5 1.2 3.1 2.1 4.9 3.1q0.8 0.4 1.7 0.9 0.4 0.2 0.9 0.4 7.3 3.9 14.5 8 5.7 3.2 11.4 6.2c3 1.6 6 3.2 8.9 4.9 4.7 2.7 9.4 5.2 14.2 7.8 5.3 2.7 10.5 5.5 15.6 8.5 2.1 1.2 4.2 2.4 6.4 3.5q0.6 0.3 1.2 0.6 1 0.5 2.1 1c2.4 1.2 4.2 2.8 5.7 5.1 0.4 1.8 0.4 2.8-0.6 4.5-1.6 2.1-3.6 3.5-5.9 4.9q-0.4 0.2-0.8 0.5c-3.1 1.9-6.2 3.6-9.3 5.4q-0.9 0.5-1.9 1.1-6.7 3.8-13.4 7.5-5.4 3.1-10.8 6.2c-3.6 2.2-7.3 4.3-11 6.2-0.5 0.3-0.5 0.3-1.1 0.6-4.1 2.2-8.1 3.4-12.7 3.3q-0.5 0-1.1 0c-5.7 0-10.6-3-15.5-5.7q-1-0.5-1.9-1-6.3-3.4-12.5-7c-4.5-2.5-9-4.9-13.5-7.3q-7.2-3.8-14.2-7.8c-3.9-2.2-7.8-4.3-11.8-6.4-4.4-2.3-8.8-4.7-13.2-7.2-4.9-2.8-9.9-5.5-14.8-8.1q-7.4-3.9-14.6-8-4.3-2.4-8.6-4.7c-4-2-7.8-4.2-11.6-6.4q-4.3-2.4-8.6-4.7-1.1-0.5-2.1-1-1.5-0.8-3-1.6c-3.7-1.8-7.2-3.6-9.5-7.3-0.4-1.5-0.4-1.5 0-3 3.4-5.4 10.1-8.2 15.5-11.2q0.9-0.5 1.8-1.1 1.4-0.8 2.9-1.6 3.2-1.8 6.4-3.7 8.4-4.8 16.8-9.5 6.8-3.8 13.6-7.8c4.1-2.4 8.3-4.7 12.4-7q6.9-3.9 13.7-7.8 4.1-2.3 8.2-4.7c4.9-2.8 4.9-2.8 9.9-5.6q2.2-1.3 4.4-2.6 0.4-0.2 0.9-0.5 6.2-3.5 12.4-7 6.8-3.8 13.6-7.8c4.1-2.4 8.3-4.7 12.4-7q6.9-3.9 13.7-7.8 4.1-2.3 8.2-4.7c4.9-2.8 4.9-2.8 9.9-5.6q2.2-1.3 4.4-2.6c0.4-0.2 0.4-0.2 0.9-0.5q6.2-3.5 12.4-7 6.8-3.8 13.6-7.8c4.1-2.4 8.3-4.7 12.4-7q4.9-2.8 9.8-5.5 0.6-0.4 1.2-0.8 2.1-1.1 4.1-2.3c35.4-20.3 35.4-20.3 52.2-11z"/>
	<path fill-rule="evenodd" class="s0" d="m1800.4 1476.1q4 2.3 8 4.6 1.7 1 3.3 1.9 0.8 0.5 1.7 1 4 2.3 8.1 4.7 1.6 0.9 3.3 1.8c35.7 20.7 35.7 20.7 71.5 41.3q0.8 0.4 1.6 0.9 1.6 0.9 3.2 1.9 4.1 2.3 8.2 4.7 7.8 4.5 15.6 9.1 6.5 3.8 13.1 7.5 7.3 4.2 14.5 8.4 7.9 4.6 15.9 9.2 4 2.3 8.1 4.7 1.6 0.9 3.3 1.8c48.7 28.2 48.7 28.2 97.5 56.3q0.8 0.4 1.6 0.9 1.6 0.9 3.2 1.9 4.1 2.3 8.2 4.7 7.8 4.5 15.6 9.1 6.5 3.8 13.1 7.5 7.3 4.2 14.5 8.4 7.9 4.6 15.9 9.2 4 2.3 8.1 4.7 1.6 0.9 3.3 1.8 48.7 28.2 97.5 56.3 0.8 0.4 1.6 0.9 1.6 0.9 3.2 1.9 4.1 2.3 8.2 4.7 7.8 4.5 15.6 9.1 6.5 3.8 13.1 7.5 8.9 5.1 17.8 10.3 1.6 0.9 3.2 1.9c5.1 2.9 9.2 6.4 12.5 11.3q0.4 0.6 0.8 1.1c8.7 12.4 9.5 29.7 6.9 44.2-2.3 11.6-6.7 25.9-16.9 33-3.4 2.2-6.8 4.2-10.3 6.2q-1.3 0.7-2.6 1.5-1.3 0.7-2.7 1.5-4.1 2.4-8.2 4.8-1.6 0.9-3.2 1.8-0.9 0.5-1.7 1c-4.9 2.8-4.9 2.8-6.5 3.7q-1.6 0.9-3.2 1.9-4.1 2.3-8.2 4.7-7.8 4.5-15.6 9.1-7 4-14 8-6.8 3.9-13.6 7.9-7.9 4.6-15.9 9.2-4 2.3-8.1 4.7-1.6 0.9-3.2 1.8-0.9 0.5-1.7 1c-121.9 70.3-121.9 70.3-123.5 71.2q-1.6 0.9-3.2 1.9-4.1 2.3-8.2 4.7-7.8 4.5-15.6 9.1-7 4-14 8-6.8 3.9-13.6 7.9-7.9 4.6-15.9 9.2-4 2.3-8.1 4.7-1.6 0.9-3.2 1.8-0.9 0.5-1.7 1c-121.8 70.3-121.8 70.3-123.5 71.2q-1.6 0.9-3.2 1.9-4.1 2.3-8.2 4.7-7.8 4.5-15.6 9.1-7 4-14 8-6.8 3.9-13.6 7.9-6.3 3.6-12.6 7.3-4.2 2.4-8.3 4.8c-19 11.1-37.8 18.1-60 12.4-11.3-3.2-21-9.2-31-15.1q-4.7-2.8-9.5-5.5-0.8-0.5-1.7-1-1.6-0.9-3.3-1.9-4-2.3-8.1-4.6-1.6-1-3.2-1.9-48.8-28.1-97.5-56.3-0.9-0.4-1.7-0.9-1.6-0.9-3.2-1.9-4.1-2.3-8.2-4.7-7.8-4.5-15.6-9.1-6.5-3.8-13.1-7.5-7.3-4.2-14.5-8.4-7.9-4.6-15.9-9.2-4-2.3-8.1-4.6-1.6-1-3.2-1.9-61.8-35.6-123.5-71.3-0.9-0.4-1.7-0.9-1.6-0.9-3.2-1.9-4.1-2.3-8.2-4.7-7.8-4.5-15.6-9.1-6.5-3.8-13.1-7.5-7.3-4.2-14.5-8.4-7.9-4.6-15.9-9.2-4-2.3-8.1-4.6-1.6-1-3.2-1.9-35.8-20.6-71.5-41.3-0.9-0.4-1.7-0.9-1.6-0.9-3.2-1.9-4.9-2.8-9.8-5.6-1.7-1-3.3-1.9-4-2.4-8.1-4.7-1.6-0.9-3.2-1.8-0.8-0.4-1.5-0.8c-9-5.1-13.5-13.9-16.5-23.5-1.7-6.4-3.1-13-3.1-19.6q0-0.6 0-1.2 0-1.2 0-2.4 0-1.8-0.1-3.6c0-7.3 0.9-14.4 3.1-21.4q0.2-0.6 0.4-1.2c3.4-10.8 10.1-16.2 19.7-21.6q1.3-0.8 2.6-1.5 1.3-0.8 2.7-1.5 4.1-2.4 8.2-4.7 1.6-1 3.3-1.9 0.8-0.5 1.6-1c95.9-55.3 95.9-55.3 97.5-56.2q1.6-0.9 3.2-1.9 4.1-2.3 8.2-4.7 7.8-4.5 15.6-9.1 7-4 14-8 6.8-3.9 13.6-7.9 7.9-4.6 15.9-9.2 4-2.3 8.1-4.6 1.6-1 3.3-1.9 0.8-0.5 1.6-1c95.9-55.3 95.9-55.3 97.5-56.2q1.6-0.9 3.2-1.9 4.1-2.3 8.2-4.7 7.8-4.5 15.6-9.1 7-4 14-8 6.8-3.9 13.6-7.9 7.9-4.6 15.9-9.2 4-2.3 8.1-4.6 1.6-1 3.3-1.9 0.8-0.5 1.6-1c95.8-55.3 95.8-55.3 97.5-56.2q1.6-0.9 3.2-1.9 4.1-2.3 8.2-4.7 7.8-4.5 15.6-9.1 10-5.8 20.1-11.5 0.7-0.4 1.4-0.8c8-4.5 16-7.3 25.1-8.7q0.6-0.1 1.3-0.2c19.2-2.4 35.5 4.7 51.6 14.3zm-84.8 2.4q-4 2.4-8 4.7-1.7 1-3.3 1.9-0.8 0.5-1.7 1-4 2.3-8.1 4.7-1.6 0.9-3.2 1.8-0.9 0.5-1.7 1c-108.8 62.8-108.8 62.8-110.5 63.7q-1.6 0.9-3.2 1.9-4.1 2.3-8.2 4.7-7.8 4.5-15.6 9.1-7 4-14 8-6.8 3.9-13.6 7.9-7.9 4.6-15.9 9.2-4 2.3-8.1 4.7-1.6 0.9-3.2 1.8-0.9 0.5-1.7 1c-82.9 47.8-82.9 47.8-84.5 48.7q-1.6 0.9-3.2 1.9-4.1 2.3-8.2 4.7-7.8 4.5-15.6 9.1-7 4-14 8-6.8 3.9-13.6 7.9-7.9 4.6-15.9 9.2-4 2.3-8.1 4.7-1.6 0.9-3.2 1.8-0.9 0.5-1.7 1c-95.9 55.3-95.9 55.3-97.5 56.2q-1.6 0.9-3.2 1.9-4.1 2.3-8.2 4.7-10.2 5.9-20.4 11.8-1.8 1.1-3.6 2.1c-7.1 4.2-12.2 8.9-14.9 16.9-1.9 7.6-0.8 14.5 2.8 21.3 3.9 6.4 9.9 9.8 16.2 13.3q6.4 3.5 12.7 7.2 6.2 3.6 12.4 7.2 0.8 0.5 1.7 1 1.6 0.9 3.3 1.9 4 2.3 8.1 4.7 1.6 0.9 3.3 1.8c3.2 1.9 3.2 1.9 6.5 3.8q0.8 0.4 1.6 0.9 1.6 0.9 3.2 1.9 4.1 2.3 8.2 4.7 7.8 4.5 15.6 9.1 6.5 3.8 13.1 7.5 7.3 4.2 14.5 8.4 7.9 4.6 15.9 9.2 4 2.3 8.1 4.7 1.6 0.9 3.3 1.8 48.7 28.2 97.5 56.3 0.8 0.4 1.6 0.9 1.6 0.9 3.2 1.9 4.1 2.3 8.2 4.7 7.8 4.5 15.6 9.1 6.5 3.8 13.1 7.5 7.3 4.2 14.5 8.4 7.9 4.6 15.9 9.2 4 2.3 8.1 4.7 1.6 0.9 3.3 1.8c48.7 28.2 48.7 28.2 97.5 56.3q0.8 0.4 1.6 0.9 1.6 0.9 3.2 1.9 4.1 2.3 8.2 4.7 7.8 4.5 15.6 9.1 6.5 3.8 13.1 7.5 7.3 4.2 14.5 8.4 7.9 4.6 15.9 9.2 4 2.3 8.1 4.7 1.6 0.9 3.3 1.8c6.5 3.8 6.5 3.8 8.1 4.7q1.6 0.9 3.2 1.9 5 2.9 10 5.8 2.5 1.4 5 2.8 2.6 1.5 5.2 3c14.4 8.6 31.6 11.3 47.9 7.4 11.9-3 22.2-9.7 32.7-15.9q4.7-2.8 9.5-5.5c0.8-0.5 0.8-0.5 1.7-1q1.6-0.9 3.3-1.9 4-2.3 8.1-4.6 1.6-1 3.3-1.9 0.8-0.5 1.6-1c43.8-25.3 43.8-25.3 45.5-26.2q1.6-0.9 3.2-1.9 4.1-2.3 8.2-4.7 7.8-4.5 15.6-9.1 7-4 14-8 6.8-3.9 13.6-7.9 7.9-4.6 15.9-9.2 4-2.3 8.1-4.6 1.6-1 3.3-1.9 0.8-0.5 1.6-1c95.9-55.3 95.9-55.3 97.5-56.2q1.6-0.9 3.2-1.9 4.1-2.3 8.2-4.7 7.8-4.5 15.6-9.1 7-4 14-8 6.8-3.9 13.6-7.9 7.9-4.6 15.9-9.2 4-2.3 8.1-4.6 1.6-1 3.3-1.9c0.8-0.5 0.8-0.5 1.6-1 95.9-55.3 95.9-55.3 97.5-56.2q1.6-0.9 3.2-1.9 4.1-2.3 8.2-4.7 7.8-4.5 15.6-9.1 7-4 14-8 6.8-3.9 13.6-7.9 5.5-3.2 11-6.3 1.6-1 3.2-1.9 3.3-1.9 6.6-3.8 1.7-0.9 3.3-1.8 0.7-0.5 1.4-0.9c7.5-4.3 12-9.9 14.4-18.3 1.5-6.9 0.1-13.9-3.5-20-3.4-4.9-7.3-7.7-12.4-10.6q-1.4-0.8-2.9-1.7-3.7-2.1-7.5-4.3-4.6-2.6-9.1-5.2-1.6-1-3.2-1.9-29.3-16.9-58.5-33.8-0.9-0.4-1.7-0.9-1.6-0.9-3.2-1.9-4.1-2.3-8.2-4.7-7.8-4.5-15.6-9.1-6.5-3.8-13.1-7.5-7.3-4.2-14.5-8.4-7.9-4.6-15.9-9.2-4-2.3-8.1-4.6-1.6-1-3.2-1.9-48.8-28.1-97.5-56.3-0.9-0.4-1.7-0.9-1.6-0.9-3.2-1.9-4.1-2.3-8.2-4.7-7.8-4.5-15.6-9.1-6.5-3.8-13.1-7.5-7.3-4.2-14.5-8.4-7.9-4.6-15.9-9.2-4-2.3-8.1-4.6-1.6-1-3.2-1.9-48.8-28.1-97.5-56.3-0.9-0.4-1.7-0.9-1.6-0.9-3.2-1.9-4.1-2.3-8.2-4.7-7.8-4.5-15.6-9.1-6.5-3.8-13.1-7.5-7.3-4.2-14.5-8.4-6.3-3.6-12.6-7.3-4.1-2.4-8.3-4.8c-28.6-16.7-53.4-17-82 0z"/>
	<path fill-rule="evenodd" class="s0" d="m3091 1470c0.7 0.4 0.7 0.4 1.4 0.8 6.7 3.7 13.4 7.5 20.1 11.4q4.7 2.8 9.4 5.5 0.8 0.5 1.7 1 1.6 0.9 3.3 1.9 4 2.3 8.1 4.6 1.6 1 3.2 1.9 9.8 5.7 19.5 11.3 0.9 0.4 1.7 0.9 1.6 0.9 3.2 1.9 4.1 2.3 8.2 4.7 7.8 4.5 15.6 9.1 6.5 3.8 13.1 7.5 7.3 4.2 14.5 8.4 7.9 4.6 15.9 9.2 4 2.3 8.1 4.7 1.6 0.9 3.3 1.8c48.7 28.1 48.7 28.1 97.5 56.3q0.8 0.4 1.6 0.9 1.6 0.9 3.2 1.9 4.1 2.3 8.2 4.7 7.8 4.5 15.6 9.1 6.5 3.8 13.1 7.5 7.3 4.2 14.5 8.4 7.9 4.6 15.9 9.2 4 2.3 8.1 4.7 1.6 0.9 3.3 1.8c48.7 28.2 48.7 28.2 97.5 56.3q0.8 0.4 1.6 0.9 1.6 0.9 3.2 1.9 4.1 2.3 8.2 4.7 7.8 4.5 15.6 9.1 6.5 3.8 13.1 7.5 7.3 4.2 14.5 8.4 7.9 4.6 15.9 9.2 4.8 2.8 9.7 5.6 4.2 2.4 8.3 4.8 4.1 2.3 8.2 4.7 1.9 1.1 3.7 2.1c5.6 3.3 9.8 6.7 13.2 12.2q0.5 0.8 1 1.6c5.5 8.9 7.3 18.8 7.2 29.1q0 0.5 0 1.1c-0.1 5.5-0.3 10.8-1.7 16.2-0.1 0.6-0.1 0.6-0.3 1.2-2.7 11.1-7.4 23.2-17.2 29.8q-2.5 1.5-5 2.8-1 0.6-1.9 1.1-1.9 1-3.8 2.1c-2.6 1.5-5.2 3-7.8 4.5q-6.5 3.8-13 7.5-7.3 4.2-14.5 8.4-7.9 4.6-15.9 9.2-4 2.3-8.1 4.7-1.6 0.9-3.2 1.8-0.9 0.5-1.7 1c-108.9 62.8-108.9 62.8-110.5 63.7q-1.6 0.9-3.2 1.9-4.1 2.3-8.2 4.7-7.8 4.5-15.6 9.1-7 4-14 8-6.1 3.5-12.1 7-6.5 3.8-13 7.5-7.3 4.2-14.5 8.4-7.9 4.6-15.9 9.2-4 2.3-8.1 4.7-1.6 0.9-3.2 1.8-0.9 0.5-1.7 1c-95.9 55.3-95.9 55.3-97.5 56.2q-1.6 0.9-3.2 1.9-4.1 2.3-8.2 4.7-7.8 4.5-15.6 9.1-7 4-14 8-6.1 3.5-12.1 7-6.5 3.8-13 7.5-7.3 4.2-14.5 8.4-7.9 4.6-15.9 9.2-4 2.3-8.1 4.7-1.6 0.9-3.3 1.8-0.8 0.5-1.6 1c-2.4 1.4-2.4 1.4-4.9 2.8q-0.8 0.4-1.6 0.9-1.6 0.9-3.2 1.9-4.2 2.4-8.3 4.8-4.1 2.3-8.1 4.7-2 1.1-4 2.3c-16.2 9.3-34.9 11.8-53 7-7.4-2.1-13.9-5.7-20.5-9.5q-0.5-0.3-1.1-0.6-2.6-1.5-5.1-3-4.2-2.5-8.5-5-0.8-0.5-1.7-1-1.7-0.9-3.4-1.9-4.1-2.4-8.2-4.7-1.6-1-3.3-1.9-29.2-16.9-58.5-33.8-0.8-0.4-1.6-0.9-1.6-0.9-3.2-1.9-4.1-2.3-8.2-4.7-7.8-4.5-15.6-9.1-6.5-3.8-13.1-7.5-7.3-4.2-14.5-8.4-7.9-4.6-15.9-9.2-4-2.3-8.1-4.7-1.6-0.9-3.3-1.8-55.2-31.9-110.5-63.8-0.8-0.4-1.6-0.9-1.6-0.9-3.2-1.9-4.1-2.3-8.2-4.7-7.8-4.5-15.6-9.1-6.5-3.8-13.1-7.5-7.3-4.2-14.5-8.4-7.9-4.6-15.9-9.2-4-2.3-8.1-4.7-1.6-0.9-3.3-1.8c-61.7-35.7-61.7-35.7-123.5-71.3q-0.8-0.4-1.6-0.9-1.6-0.9-3.2-1.9-4.1-2.3-8.2-4.7-4-2.3-8.1-4.7-1.6-0.9-3.3-1.9-2.4-1.3-4.8-2.8-0.7-0.4-1.5-0.8c-11.5-6.7-17.2-15.3-20.6-28.2-1.9-7.2-2.6-14.4-2.6-21.8q0-0.6 0-1.2c0.1-5.7 0.2-11.2 1.7-16.7q0.2-0.6 0.3-1.2c2.6-9.9 6.5-18.4 15.4-24.1q2-1.1 4-2.2 1.6-0.9 3.1-1.7 0.8-0.5 1.6-0.9 3.8-2.1 7.4-4.3 6.6-3.8 13.2-7.6 7.3-4.2 14.5-8.4 7.9-4.6 15.9-9.2 4-2.3 8.1-4.7 1.6-0.9 3.2-1.8c0.9-0.5 0.9-0.5 1.7-1 82.9-47.8 82.9-47.8 84.5-48.7q1.6-0.9 3.2-1.9 4.1-2.3 8.2-4.7 7.8-4.5 15.6-9.1 7-4 14-8 6.8-3.9 13.6-7.9 7.9-4.6 15.9-9.2 4-2.3 8.1-4.7 1.6-0.9 3.2-1.8 0.9-0.5 1.7-1c95.8-55.3 95.8-55.3 97.5-56.2q1.6-0.9 3.2-1.9 4.1-2.3 8.2-4.7 7.8-4.5 15.6-9.1 7-4 14-8 6.8-3.9 13.6-7.9 7.9-4.6 15.9-9.2 4-2.3 8.1-4.7 1.6-0.9 3.2-1.8 0.9-0.5 1.7-1 41.4-23.9 82.8-47.8 0.9-0.4 1.7-0.9 1.6-0.9 3.2-1.9 4.2-2.4 8.3-4.8 4.1-2.3 8.2-4.7 1.3-0.7 2.6-1.5c22.5-13 48-15.7 71.3-2.8zm-67.5 4.5c-0.7 0.4-0.7 0.4-1.3 0.8q-3.8 2.1-7.5 4.3-4.8 2.8-9.6 5.6-0.8 0.5-1.7 1-1.6 0.9-3.3 1.9-4 2.3-8.1 4.6-1.6 1-3.2 1.9-0.9 0.5-1.7 1c-69.8 40.3-69.8 40.3-71.5 41.2q-1.6 0.9-3.2 1.9-4.1 2.3-8.2 4.7-7.8 4.5-15.6 9.1-7 4-14 8-6.8 3.9-13.6 7.9-7.9 4.6-15.9 9.2-4 2.3-8.1 4.6-1.6 1-3.2 1.9-0.9 0.5-1.7 1c-95.8 55.3-95.8 55.3-97.5 56.2q-1.6 0.9-3.2 1.9-4.1 2.3-8.2 4.7-7.8 4.5-15.6 9.1-7 4-14 8-6.8 3.9-13.6 7.9-7.9 4.6-15.9 9.2-4 2.3-8.1 4.6-1.6 1-3.2 1.9-0.9 0.5-1.7 1c-82.8 47.8-82.8 47.8-84.5 48.7q-1.6 0.9-3.2 1.9-4.1 2.3-8.2 4.7-7.8 4.5-15.6 9.1-7 4-14 8-6.8 3.9-13.6 7.9-4 2.3-8 4.6-0.8 0.5-1.7 1-1.7 0.9-3.3 1.9c-8.5 4.8-15 9.7-18.1 19.4-1.8 7.3-0.7 14.2 2.9 20.8 3.3 5.1 7.8 8.3 13 11.2q2.1 1.2 4.1 2.4 4.2 2.4 8.4 4.8 4.1 2.4 8.2 4.7 1.6 1 3.3 1.9 42.2 24.4 84.5 48.8 0.8 0.4 1.6 0.9 1.6 0.9 3.2 1.9 4.1 2.3 8.2 4.7 7.8 4.5 15.6 9.1 6.5 3.8 13.1 7.5 7.3 4.2 14.5 8.4 7.9 4.6 15.9 9.2 4 2.3 8.1 4.6 1.6 1 3.3 1.9 48.7 28.1 97.5 56.3 0.8 0.4 1.6 0.9 1.6 0.9 3.2 1.9 4.1 2.3 8.2 4.7 7.8 4.5 15.6 9.1 6.5 3.8 13.1 7.5 7.3 4.2 14.5 8.4 7.9 4.6 15.9 9.2 4 2.3 8.1 4.6 1.6 1 3.3 1.9 48.7 28.1 97.5 56.3 0.8 0.4 1.6 0.9 1.6 0.9 3.2 1.9 4.1 2.3 8.2 4.7 7.8 4.5 15.6 9.1 7.4 4.3 14.9 8.5 4.2 2.4 8.5 4.9c6.8 4.1 13.4 7.7 21 10q0.5 0.2 1 0.3c16.8 4.8 34.4 1.4 49.4-6.9q5.6-3.2 11.1-6.4 4.8-2.8 9.6-5.6c0.8-0.5 0.8-0.5 1.7-1q1.6-0.9 3.3-1.9 4-2.3 8.1-4.6 1.6-1 3.3-1.9 0.8-0.5 1.6-1c82.8-47.8 82.8-47.8 84.5-48.7q1.6-0.9 3.2-1.9 4.1-2.3 8.2-4.7 7.8-4.5 15.6-9.1 7-4 14-8 6.8-3.9 13.6-7.9 7.9-4.6 15.9-9.2 4-2.3 8.1-4.6 1.6-1 3.3-1.9 0.8-0.5 1.6-1c95.8-55.3 95.8-55.3 97.5-56.2q1.6-0.9 3.2-1.9 4.1-2.3 8.2-4.7 7.8-4.5 15.6-9.1 7-4 14-8 6.8-3.9 13.6-7.9 7.9-4.6 15.9-9.2 4-2.3 8.1-4.6 1.6-1 3.3-1.9c0.8-0.5 0.8-0.5 1.6-1 95.8-55.3 95.8-55.3 97.5-56.2q1.6-0.9 3.2-1.9 4.1-2.3 8.2-4.7 8.6-4.9 17.1-9.9 4.1-2.4 8.3-4.8 1.4-0.8 2.8-1.5 1.3-0.8 2.6-1.5c8.2-4.6 14.2-10.1 16.8-19.3 1.7-7.7 0.2-14.9-3.9-21.6-3.8-5.2-9.2-8.2-14.7-11.3q-2.3-1.3-4.6-2.6-0.5-0.3-1-0.5-4.4-2.5-8.7-5.1-6.5-3.8-13-7.5-7.3-4.2-14.5-8.4-7.9-4.6-15.9-9.2-4-2.3-8.1-4.6-1.6-1-3.2-1.9-48.8-28.1-97.5-56.3-0.9-0.4-1.7-0.9-1.6-0.9-3.2-1.9-4.1-2.3-8.2-4.7-7.8-4.5-15.6-9.1-6.5-3.8-13.1-7.5-7.3-4.2-14.5-8.4-7.9-4.6-15.9-9.2-4-2.3-8.1-4.6-1.6-1-3.2-1.9-48.8-28.1-97.5-56.3-0.9-0.4-1.7-0.9-1.6-0.9-3.2-1.9-4.1-2.3-8.2-4.7-7.8-4.5-15.6-9.1-6.5-3.8-13.1-7.5-7.3-4.2-14.5-8.4-7.9-4.6-15.9-9.2-4-2.3-8.1-4.6-1.6-1-3.2-1.9c-71.5-41.3-71.5-41.3-73.2-42.2q-1.6-0.9-3.2-1.9-4.2-2.4-8.3-4.8-4.1-2.4-8.2-4.7-1.3-0.7-2.5-1.5c-5.4-3.1-10.9-5.1-16.9-6.8q-0.5-0.1-1-0.3c-16.4-4.5-34.2 0-48.5 8.3z"/>
	<path fill-rule="evenodd" class="s0" d="m3090.4 1669.4q1.7 0.9 3.3 1.7c4.8 2.5 9.5 5.1 14.2 7.8q5.8 3.3 11.8 6.4 6.7 3.6 13.4 7.4 4.6 2.5 9.3 5.1 1.9 1.1 3.8 2.1 0.4 0.2 0.9 0.5 3.3 1.8 6.6 3.7 9.3 5.1 18.6 10.1 4.8 2.6 9.6 5.3 3.4 1.9 6.9 3.8c14.3 7.8 28.6 15.6 40.7 26.7q0.7 0.6 1.4 1.3c4.5 4.3 8.2 9.4 10.6 15.2q0.2 0.5 0.5 1.1c2.4 6.7 1.4 14.1-1.5 20.4-8.5 16.5-26.7 26.2-42.2 34.8q-5.5 3.1-10.8 6.2-6.9 4-13.8 7.9-5.4 3-10.7 6.1-6.9 4-13.8 7.9-5.4 3-10.7 6.1-6.9 4.1-13.9 7.9-6.9 3.9-13.7 7.8-6.4 3.7-12.8 7.3-2.8 1.6-5.7 3.3c-17.9 10.2-36.5 18.2-56.9 21.7q-0.7 0.1-1.4 0.3c-40.4 6.7-78.7-8.1-113.3-27.6q-4.1-2.3-8.2-4.5-1.9-1.1-3.8-2.1-0.4-0.2-0.9-0.5-3.3-1.8-6.6-3.7-9.3-5.1-18.6-10.1-4.8-2.6-9.6-5.3-6.2-3.4-12.4-6.8-0.9-0.6-1.9-1.1-0.4-0.2-0.9-0.5-3.3-1.8-6.6-3.7-1.9-1-3.7-2-0.5-0.2-0.9-0.5-6.2-3.4-12.4-6.8-5.9-3.1-11.6-6.4-0.7-0.3-1.3-0.7c-2.6-1.5-5.2-3-7.1-5.4-0.5-1.8-0.4-3.4 0.2-5.1 2.3-3.2 5.9-5.1 9.3-7q1.3-0.7 2.7-1.4 1.3-0.8 2.7-1.6 3.5-2 7-4 2.6-1.5 5.3-3 4.8-2.7 9.6-5.5 1.3-0.7 2.6-1.5 4-2.3 8-4.5 2.2-1.3 4.4-2.6c0.4-0.2 0.4-0.2 0.9-0.5q6.2-3.5 12.4-7 6.8-3.8 13.6-7.8c4.1-2.4 8.2-4.7 12.3-7q5.4-3 10.7-6.1 6.9-4 13.8-7.9 5.4-3 10.7-6.1 6.9-4 13.8-7.9 5.4-3 10.7-6.1 6.9-4 13.8-7.9 5.4-3 10.7-6.1 6.9-4 13.8-7.9 5.4-3 10.6-6.1c4.8-2.8 9.7-5.5 14.6-8.2q6.3-3.5 12.5-7.2c4.7-2.7 9.4-5.4 14.1-8q2.7-1.5 5.3-3c10.4-6.1 19.3-7.1 30-1.2zm-13 76.5q-0.8 0.4-1.7 0.9-0.9 0.5-1.8 1-0.9 0.5-1.8 1-6.6 3.8-13.1 7.6c-4.1 2.4-8.1 4.6-12.2 6.9q-5.9 3.3-11.7 6.6-0.4 0.3-0.9 0.5-2.2 1.3-4.4 2.6-4 2.2-7.9 4.5-2.2 1.3-4.4 2.5-0.9 0.5-1.7 1c-0.5 0.2-0.5 0.2-0.9 0.5q-30.2 17.2-60.4 34.5c1.7 1.5 3.5 2.6 5.5 3.7q0.9 0.4 1.7 0.9 0.5 0.2 1 0.5 2.3 1.2 4.7 2.5c0.5 0.2 0.5 0.2 1 0.5q3.5 1.9 7.1 3.9 0.5 0.2 1 0.5 3 1.7 6.1 3.5 1.9 1 3.8 2.1 1 0.5 1.9 1.1c8.6 4.8 16.9 8 26.8 5.9 9.1-2.6 17.2-8 25.3-12.8q4.7-2.7 9.4-5.4 7.7-4.2 15.3-8.6 3.6-2.1 7.3-4.2 2.2-1.2 4.5-2.5 0.9-0.5 1.8-1.1c0.4-0.2 0.4-0.2 0.9-0.5q1.3-0.7 2.7-1.5 0.4-0.3 0.8-0.5 0.9-0.5 1.8-1 2.2-1.3 4.3-2.5 4.9-2.8 9.8-5.5 3.9-2.3 7.8-4.5 2.5-1.5 5.1-2.9 1.6-0.9 3.2-1.8 0.7-0.4 1.4-0.8c4.3-2.5 8.5-5.3 10.5-10 0.1-1.8-0.1-3-1.2-4.4-2.8-3-6-4.8-9.5-6.7q-0.9-0.5-1.8-1-2.3-1.2-4.6-2.4-2.1-1.1-4.1-2.3-3-1.6-6-3.2-3.8-2.1-7.6-4.2-0.5-0.3-1.1-0.6-2.6-1.4-5.2-2.9-0.5-0.3-1-0.6-1.3-0.7-2.6-1.5c-2.1-1.1-2.9-0.4-4.9 0.7z"/>
	<path class="s0" d="m1779.5 1681q1 0.5 2.1 1.1c4.8 2.4 9.5 5.1 14.2 7.8 4.1 2.3 8.2 4.5 12.4 6.7q7.5 4 15 8.2 4.2 2.3 8.4 4.6 0.4 0.3 0.9 0.5 6.3 3.5 12.7 6.9 5.7 3.1 11.4 6.4c4.6 2.6 9.2 5.1 13.8 7.5q6.7 3.6 13.2 7.3c3.8 2.2 7.6 4.2 11.4 6.3q7.1 3.7 14.1 7.7c3.8 2.2 7.6 4.2 11.4 6.3q8.7 4.6 17.3 9.5 1.7 1 3.4 1.9 0.5 0.3 1 0.5 1.2 0.7 2.4 1.4c2.2 1.4 3.7 3 4.3 5.6-0.7 3-2.7 5-5.2 6.7q-2.3 1.4-4.6 2.7-1.3 0.7-2.7 1.4-1.7 1-3.5 2-2.9 1.6-5.7 3.2-1.5 0.8-3.1 1.7-5.4 3-10.7 6.2-8.3 4.9-16.9 9.4c-0.5 0.3-0.5 0.3-1 0.5-4.3 2.4-8.2 3.7-13.2 3.7q-0.5 0-1 0c-5.5 0.1-10.3-2.8-14.9-5.4q-0.9-0.5-1.7-1-6.2-3.3-12.2-6.8c-4.7-2.6-9.5-5.2-14.2-7.7q-0.9-0.5-1.8-0.9-0.9-0.5-1.8-1c-2.2-1.2-4.3-2.5-6.4-3.8-1.6-0.7-2.2-0.7-3.8-0.1-1.2 0.6-1.2 0.6-2.4 1.3q-0.7 0.4-1.4 0.9-0.7 0.4-1.5 0.9-6.7 3.9-13.5 7.7-6.5 3.5-12.9 7.3-6.3 3.7-12.8 7.2c-4 2.2-7.9 4.4-11.8 6.7q-4.2 2.4-8.4 4.7-0.7 0.4-1.4 0.8-2.9 1.7-5.8 3.3-9 5.1-17.9 10.2-6.3 3.6-12.6 7.1-6.1 3.4-12.2 7-6.4 3.7-12.9 7.2-5.2 2.9-10.4 5.9-5.2 2.9-10.4 5.8-5.7 3.2-11.4 6.4-0.6 0.4-1.2 0.8-3.4 1.9-6.7 3.8-1.9 1.1-3.7 2.2-0.9 0.5-1.8 1c-16 9.3-16 9.3-25.3 6.9-3.6-1.1-6.9-2.7-10.3-4.6q-0.7-0.4-1.5-0.8-6-3.3-11.8-6.7c-3.8-2.1-7.7-4.2-11.5-6.3q-6.7-3.5-13.3-7.2-0.7-0.4-1.4-0.8-3.3-1.9-6.5-3.8-0.6-0.3-1.2-0.7c-1.7-1.1-2.6-2-3.6-3.7-0.5-2.3-0.2-3.2 1-5.2 2.7-2.7 6.2-4.5 9.5-6.3 0.7-0.4 0.7-0.4 1.4-0.8q4-2.2 7.9-4.4 4.3-2.4 8.5-4.8 5.4-3.1 10.9-6.2c0.7-0.4 0.7-0.4 1.4-0.8q2.9-1.7 5.8-3.3 9-5.1 17.9-10.2 7-4 14-7.9 6.3-3.5 12.6-7.1 6.2-3.6 12.5-7.1 6.1-3.4 12.2-7 6.4-3.7 12.9-7.2c4-2.2 7.9-4.4 11.8-6.7q4.2-2.4 8.4-4.7 0.7-0.4 1.4-0.8 2.9-1.7 5.8-3.3 11.2-6.3 22.4-12.7 4.3-2.5 8.7-5c-1.7-1.4-3.3-2.5-5.2-3.5q-0.8-0.4-1.6-0.8-0.8-0.5-1.6-0.9-1.8-1-3.6-1.9-0.4-0.2-0.9-0.5-4.1-2.2-8.2-4.6-4.9-2.8-9.8-5.4-0.5-0.2-1-0.5-2.4-1.3-4.9-2.6c-11.3-5.9-11.3-5.9-12.7-9.3-0.1-2.7 0.8-4.1 2.5-6.1 2-1.9 4.5-3.1 6.9-4.4q0.9-0.5 1.7-1 2.3-1.3 4.5-2.5 2.1-1.2 4.2-2.3 3.1-1.8 6.2-3.5 4.2-2.3 8.3-4.7 5.8-3.4 11.7-6.7c0.8-0.4 0.8-0.4 1.6-0.9 9.5-5.3 18.9-9.6 29.4-3.9z"/>
	<path fill-rule="evenodd" class="s0" d="m1147.3 1869.8c2.4 1.4 4.9 2.9 7.4 4.3q1.7 1 3.4 1.9 0.8 0.5 1.7 1 4.1 2.4 8.2 4.8 1.6 0.9 3.2 1.8 3.3 1.9 6.5 3.8c0.9 0.4 0.9 0.4 1.7 0.9q1.6 0.9 3.2 1.9 4.1 2.3 8.2 4.7 7.8 4.5 15.6 9.1 6.5 3.8 13.1 7.5 7.3 4.2 14.5 8.4 7.9 4.6 15.9 9.2 4 2.3 8.1 4.7 1.6 0.9 3.2 1.8c48.8 28.2 48.8 28.2 97.5 56.3q0.9 0.4 1.7 0.9 1.6 0.9 3.2 1.9 4.1 2.3 8.2 4.7 7.8 4.5 15.6 9.1 6.5 3.8 13.1 7.5 7.3 4.2 14.5 8.4 7.9 4.6 15.9 9.2 4 2.3 8.1 4.7 1.6 0.9 3.2 1.8 42.3 24.4 84.5 48.8 0.9 0.4 1.7 0.9 1.6 0.9 3.2 1.9 4.1 2.3 8.2 4.7 7.8 4.5 15.6 9.1 6.5 3.8 13.1 7.5 7.3 4.2 14.5 8.4 7.9 4.6 15.9 9.2 4 2.3 8.1 4.7 1.6 0.9 3.2 1.8 16.3 9.4 32.5 18.8 0.9 0.4 1.7 0.9 1.6 0.9 3.2 1.9 4.2 2.4 8.3 4.8 4.1 2.3 8.2 4.7 1.8 1.1 3.7 2.1c10.7 6.2 17.4 15.3 20.8 27.1 4.6 17.4 1.4 38-7.6 53.6-3.8 6-8.2 10.2-14.5 13.6q-1.3 0.7-2.6 1.4-1.3 0.8-2.6 1.5c-2.8 1.6-5.6 3.2-8.3 4.8q-1.6 0.9-3.3 1.8-0.8 0.5-1.6 1c-82.8 47.8-82.8 47.8-84.5 48.7q-1.6 0.9-3.2 1.9-4.1 2.3-8.2 4.7-7.8 4.5-15.6 9.1-7 4-14 8-6.8 3.9-13.6 7.9-7.9 4.6-15.9 9.2-4 2.3-8.1 4.7-1.6 0.9-3.3 1.8-0.8 0.5-1.6 1c-121.8 70.3-121.8 70.3-123.5 71.2q-1.6 0.9-3.2 1.9-4.1 2.3-8.2 4.7-7.8 4.5-15.6 9.1-7 4-14 8-6.8 3.9-13.6 7.9-7.9 4.6-15.9 9.2-4 2.3-8.1 4.7-1.6 0.9-3.3 1.8-0.8 0.5-1.6 1-54.4 31.4-108.9 62.8-0.8 0.4-1.6 0.9-1.6 0.9-3.2 1.9-4.2 2.4-8.3 4.8-4.1 2.3-8.2 4.7-1.9 1.1-3.7 2.2c-6.6 3.8-13.3 6.4-20.7 8.1q-0.6 0.1-1.2 0.3c-4.1 0.8-8.3 0.9-12.6 0.9q-0.5 0-1.1 0c-5.9 0-11.4-0.5-17.1-2.2q-0.5-0.1-1-0.3c-9.3-2.6-17.5-7.9-25.8-12.7q-4.1-2.4-8.2-4.7-1.6-1-3.3-1.9-0.8-0.5-1.6-1-47.9-27.6-95.9-55.3-0.8-0.4-1.6-0.9-1.6-0.9-3.2-1.9-4.1-2.3-8.2-4.7-7.8-4.5-15.6-9.1-6.5-3.8-13.1-7.5-7.3-4.2-14.5-8.4-7.9-4.6-15.9-9.2-4-2.3-8.1-4.6-1.6-1-3.3-1.9-55.2-31.9-110.5-63.8-0.8-0.4-1.6-0.9-1.6-0.9-3.2-1.9-4.1-2.3-8.2-4.7-7.8-4.5-15.6-9.1-6.5-3.8-13.1-7.5-7.3-4.2-14.5-8.4-7.9-4.6-15.9-9.2-4-2.3-8.1-4.6-1.6-1-3.3-1.9-55.2-31.9-110.5-63.8c-0.8-0.4-0.8-0.4-1.6-0.9q-1.6-0.9-3.2-1.9-3.8-2.2-7.5-4.3-1.4-0.8-2.7-1.5-1.6-1-3.3-1.9c-10.7-6.1-16.8-13.9-20.3-25.8q-0.5-2-1-4c-0.1-0.7-0.1-0.7-0.3-1.3-1.4-6.3-2-12.6-2-19.1q0-0.5 0-1c0.1-12.6 2-27.1 11-36.7q0.6-0.6 1.2-1.2c0.4-0.3 0.4-0.3 0.7-0.7 2.6-2.4 5.7-4.1 8.8-5.8q1.3-0.7 2.6-1.5 0.9-0.5 1.8-1 4.3-2.5 8.6-5 8.7-5.1 17.4-10.1 4-2.3 8.1-4.6 1.6-1 3.2-1.9c0.9-0.5 0.9-0.5 1.7-1 108.8-62.8 108.8-62.8 110.5-63.7q1.6-0.9 3.2-1.9 4.1-2.3 8.2-4.7 7.8-4.5 15.6-9.1 7-4 14-8 6.8-3.9 13.6-7.9 7.9-4.6 15.9-9.2 4-2.3 8.1-4.6 1.6-1 3.2-1.9 0.9-0.5 1.7-1c82.9-47.8 82.9-47.8 84.5-48.7q1.6-0.9 3.2-1.9 4.1-2.3 8.2-4.7 7.8-4.5 15.6-9.1 7-4 14-8 6.8-3.9 13.6-7.9 7.9-4.6 15.9-9.2 4-2.3 8.1-4.6 1.6-1 3.2-1.9 0.9-0.5 1.7-1 47.9-27.6 95.8-55.3 0.9-0.4 1.7-0.9 1.6-0.9 3.2-1.9 4.2-2.4 8.3-4.8 4.1-2.3 8.2-4.7 1.8-1.1 3.7-2.1c26.2-15.4 53.3-11.8 78.5 3.6zm-65.3-6.3q-0.8 0.3-1.6 0.6c-5.6 2.2-10.6 5.4-15.7 8.4q-3.9 2.3-7.8 4.5-7.7 4.4-15.4 8.9-7.9 4.6-15.9 9.2-4 2.3-8.1 4.7-1.6 0.9-3.3 1.8-0.8 0.5-1.6 1c-95.9 55.3-95.9 55.3-97.5 56.2q-1.6 0.9-3.2 1.9-4.1 2.3-8.2 4.7-7.8 4.5-15.6 9.1-7 4-14 8-6.8 3.9-13.6 7.9-7.9 4.6-15.9 9.2-4 2.3-8.1 4.7-1.6 0.9-3.3 1.8-0.8 0.5-1.6 1c-95.9 55.3-95.9 55.3-97.5 56.2q-1.6 0.9-3.2 1.9-4.1 2.3-8.2 4.7-7.8 4.5-15.6 9.1-7 4-14 8-6.8 3.9-13.6 7.9-7.9 4.6-15.9 9.2-4 2.3-8.1 4.7-1.6 0.9-3.3 1.8-0.8 0.5-1.6 1c-82.9 47.8-82.9 47.8-84.5 48.7q-1.6 0.9-3.2 1.9-4.2 2.4-8.3 4.8-4.8 2.7-9.6 5.5-0.6 0.4-1.3 0.7c-7.4 4.4-13.2 9.2-15.7 17.8-1.9 7.7-1 14.6 3.1 21.5 3.8 6 9.4 9.1 15.4 12.5q1.3 0.7 2.6 1.5 1.3 0.7 2.6 1.5 4.2 2.4 8.3 4.8 1.6 0.9 3.2 1.8 48.8 28.2 97.5 56.3 0.9 0.4 1.7 0.9 1.6 0.9 3.2 1.9 4.1 2.3 8.2 4.7 7.8 4.5 15.6 9.1 6.5 3.8 13.1 7.5 7.3 4.2 14.5 8.4 7.9 4.6 15.9 9.2 4 2.3 8.1 4.7 1.6 0.9 3.2 1.8c48.8 28.2 48.8 28.2 97.5 56.3q0.9 0.4 1.7 0.9 1.6 0.9 3.2 1.9 4.1 2.3 8.2 4.7 7.8 4.5 15.6 9.1 6.5 3.8 13.1 7.5 7.3 4.2 14.5 8.4 7.9 4.6 15.9 9.2 4 2.3 8.1 4.7 1.6 0.9 3.2 1.8 48.8 28.2 97.5 56.3 0.9 0.4 1.7 0.9 1.6 0.9 3.2 1.9 4.1 2.3 8.2 4.7 7.8 4.5 15.6 9.1 10 5.8 20.1 11.5 0.6 0.4 1.3 0.7c5.2 3 10.4 5.2 16.2 6.8q0.9 0.3 1.8 0.5c10 2.4 21.9 1.9 31.7-1q0.5-0.1 1-0.3c10-3.1 19-9 27.9-14.3q4-2.3 8-4.6c0.8-0.5 0.8-0.5 1.7-1q1.6-0.9 3.3-1.9 4-2.3 8.1-4.6 1.6-1 3.2-1.9 0.9-0.5 1.7-1c69.8-40.3 69.8-40.3 71.5-41.2q1.6-0.9 3.2-1.9 4.1-2.3 8.2-4.7 7.8-4.5 15.6-9.1 7-4 14-8 6.8-3.9 13.6-7.9 7.9-4.6 15.9-9.2 4-2.3 8.1-4.6 1.6-1 3.2-1.9 0.9-0.5 1.7-1c95.9-55.3 95.9-55.3 97.5-56.2q1.6-0.9 3.2-1.9 4.1-2.3 8.2-4.7 7.8-4.5 15.6-9.1 7-4 14-8 6.8-3.9 13.6-7.9 7.9-4.6 15.9-9.2 4-2.3 8.1-4.6 1.6-1 3.2-1.9c0.9-0.5 0.9-0.5 1.7-1 95.9-55.3 95.9-55.3 97.5-56.2q1.6-0.9 3.2-1.9 4.1-2.3 8.2-4.7 7.8-4.5 15.6-9.1 6.1-3.5 12.2-7 2.7-1.5 5.3-3 2.2-1.2 4.3-2.5 2.4-1.4 4.9-2.7 0.7-0.5 1.4-0.9c7.9-4.5 13-9.8 15.9-18.6 1.9-7.2 0.3-14.4-3.4-20.7-4-6.1-9.7-9.2-16-12.7q-3.1-1.8-6.3-3.6-2.4-1.5-4.9-2.9-4.9-2.8-9.8-5.6-1.6-1-3.3-1.9-42.2-24.4-84.5-48.8-0.8-0.4-1.6-0.9-1.6-0.9-3.2-1.9-4.1-2.3-8.2-4.7-7.8-4.5-15.6-9.1-6.5-3.8-13.1-7.5-7.3-4.2-14.5-8.4-7.9-4.6-15.9-9.2-4-2.3-8.1-4.6-1.6-1-3.3-1.9-48.7-28.1-97.5-56.3-0.8-0.4-1.6-0.9-1.6-0.9-3.2-1.9-4.1-2.3-8.2-4.7-7.8-4.5-15.6-9.1-6.5-3.8-13.1-7.5-7.3-4.2-14.5-8.4-7.9-4.6-15.9-9.2-4-2.3-8.1-4.6-1.6-1-3.3-1.9-48.7-28.1-97.5-56.3-0.8-0.4-1.6-0.9-1.6-0.9-3.2-1.9-4.1-2.3-8.2-4.7-7.8-4.5-15.6-9.1-7.5-4.3-15-8.6-4-2.3-8-4.6c-18.1-10.7-38.1-13.5-58.1-6.3z"/>
	<path fill-rule="evenodd" class="s0" d="m2458.4 1871.6q4 2.3 8 4.6 1.7 1 3.3 1.9 0.8 0.5 1.7 1 4 2.3 8.1 4.6 1.6 1 3.2 1.9 3.3 1.9 6.5 3.8 0.9 0.4 1.7 0.9 1.6 0.9 3.2 1.9 4.1 2.3 8.2 4.7 7.8 4.5 15.6 9.1 6.5 3.8 13.1 7.5 7.3 4.2 14.5 8.4 7.9 4.6 15.9 9.2 4 2.3 8.1 4.6 1.6 1 3.2 1.9c42.3 24.4 42.3 24.4 84.5 48.8q0.9 0.4 1.7 0.9 1.6 0.9 3.2 1.9 4.1 2.3 8.2 4.7 7.8 4.5 15.6 9.1 6.5 3.8 13.1 7.5 7.3 4.2 14.5 8.4 7.9 4.6 15.9 9.2 4 2.3 8.1 4.6 1.6 1 3.2 1.9 48.8 28.1 97.5 56.3 0.9 0.4 1.7 0.9 1.6 0.9 3.2 1.9 4.1 2.3 8.2 4.7 7.8 4.5 15.6 9.1 6.5 3.8 13.1 7.5 7.3 4.2 14.5 8.4 7.9 4.6 15.9 9.2 4 2.3 8.1 4.6 1.6 1 3.2 1.9 16.3 9.4 32.5 18.8 0.9 0.4 1.7 0.9 1.6 0.9 3.2 1.9 3.8 2.1 7.5 4.3 1.3 0.8 2.7 1.5 1.6 1 3.3 1.9c12.1 7 20.1 15 23.9 28.7 4.7 18.2 1.4 38.8-8 54.9-1.2 1.8-2.5 3.4-4 5-0.4 0.5-0.4 0.5-0.8 0.9-2.7 2.9-5.7 4.7-9.1 6.6q-1.3 0.8-2.6 1.5-1.4 0.8-2.7 1.5-4.2 2.3-8.3 4.7-1.6 1-3.3 1.9-0.8 0.5-1.6 1c-30.9 17.8-30.9 17.8-32.5 18.7q-1.6 0.9-3.2 1.9-4.1 2.3-8.2 4.7-7.8 4.5-15.6 9.1-7 4-14 8-6.8 3.9-13.6 7.9-7.9 4.6-15.9 9.2-4 2.3-8.1 4.6-1.6 1-3.3 1.9c-0.8 0.5-0.8 0.5-1.6 1-121.9 70.3-121.9 70.3-123.5 71.2q-1.6 0.9-3.2 1.9-4.1 2.3-8.2 4.7-7.8 4.5-15.6 9.1-7 4-14 8-6.8 3.9-13.6 7.9-7.9 4.6-15.9 9.2-4 2.3-8.1 4.6-1.6 1-3.3 1.9-0.8 0.5-1.6 1c-121.8 70.3-121.8 70.3-123.5 71.2q-1.6 0.9-3.2 1.9-4.1 2.3-8.2 4.7-7.8 4.5-15.6 9.1-7 4-14 8-6.2 3.6-12.4 7.2-2.9 1.6-5.7 3.3-0.6 0.4-1.3 0.7c-11.4 6.7-22.9 10.5-36.2 10.5q-0.5 0-1.1 0c-6 0-11.6-0.5-17.4-2.2q-0.5-0.1-1-0.3c-9.3-2.6-17.5-7.9-25.8-12.7q-4.1-2.4-8.2-4.8-1.6-0.9-3.3-1.8-0.8-0.5-1.6-1-21.9-12.6-43.9-25.3-0.8-0.4-1.6-0.9-1.6-0.9-3.2-1.9-4.1-2.3-8.2-4.7-7.8-4.5-15.6-9.1-6.5-3.8-13.1-7.5-7.3-4.2-14.5-8.4-7.9-4.6-15.9-9.2-4-2.3-8.1-4.7-1.6-0.9-3.3-1.8-55.2-31.9-110.5-63.8-0.8-0.4-1.6-0.9-1.6-0.9-3.2-1.9-4.1-2.3-8.2-4.7-7.8-4.5-15.6-9.1-6.5-3.8-13.1-7.5-7.3-4.2-14.5-8.4-7.9-4.6-15.9-9.2-4-2.3-8.1-4.7-1.6-0.9-3.3-1.8-61.7-35.7-123.5-71.3-0.8-0.4-1.6-0.9-1.6-0.9-3.2-1.9-4.1-2.3-8.2-4.7-7.8-4.5-15.6-9.1-6.5-3.8-13.1-7.5-6.8-3.9-13.5-7.8-0.7-0.4-1.5-0.8c-11.4-6.7-17.7-14.5-21.2-27.4-4.5-17.5-5.2-39.3 3.8-55.6 4.4-6.6 10.3-10.4 17.1-14.2q2.3-1.3 4.6-2.6 0.5-0.3 1-0.5 4.4-2.6 8.8-5.1 8.6-5.1 17.3-10.1 4-2.3 8.1-4.7 1.6-0.9 3.2-1.8c0.9-0.5 0.9-0.5 1.7-1 95.8-55.3 95.8-55.3 97.5-56.2q1.6-0.9 3.2-1.9 4.1-2.3 8.2-4.7 7.8-4.5 15.6-9.1 7-4 14-8 6.8-3.9 13.6-7.9 7.9-4.6 15.9-9.2 4-2.3 8.1-4.7 1.6-0.9 3.2-1.8 0.9-0.5 1.7-1c95.8-55.3 95.8-55.3 97.5-56.2q1.6-0.9 3.2-1.9 4.1-2.3 8.2-4.7 7.8-4.5 15.6-9.1 7-4 14-8 6.8-3.9 13.6-7.9 7.9-4.6 15.9-9.2 4-2.3 8.1-4.7 1.6-0.9 3.2-1.8 0.9-0.5 1.7-1 47.9-27.6 95.8-55.3c0.9-0.4 0.9-0.4 1.7-0.9q1.6-0.9 3.2-1.9 4.2-2.4 8.3-4.8 4.1-2.4 8.2-4.7 1.3-0.7 2.5-1.5c27-15.6 54.3-8.2 79.3 6.8zm-92.2 4.6q-5.8 3.5-11.7 6.8-7.3 4.2-14.5 8.4-7.9 4.6-15.9 9.2-4 2.3-8.1 4.6-1.6 1-3.3 1.9-0.8 0.5-1.6 1c-95.8 55.3-95.8 55.3-97.5 56.2q-1.6 0.9-3.2 1.9-4.1 2.3-8.2 4.7-7.8 4.5-15.6 9.1-7 4-14 8-6.8 3.9-13.6 7.9-7.9 4.6-15.9 9.2-4 2.3-8.1 4.6-1.6 1-3.3 1.9-0.8 0.5-1.6 1c-95.9 55.3-95.9 55.3-97.5 56.2q-1.6 0.9-3.2 1.9-4.1 2.3-8.2 4.7-7.8 4.5-15.6 9.1-7 4-14 8-6.8 3.9-13.6 7.9-7.9 4.6-15.9 9.2-4 2.3-8.1 4.6-1.6 1-3.3 1.9c-0.8 0.5-0.8 0.5-1.6 1-69.9 40.3-69.9 40.3-71.5 41.2q-1.6 0.9-3.2 1.9-4.1 2.4-8.3 4.7-4 2.4-8.1 4.7-1.5 0.9-3 1.7c-9 5.2-16.4 10.4-19.4 21-1.5 6.9-0.2 13.8 3.3 19.9 3.9 6 9.1 9.1 15.3 12.6q2.3 1.3 4.6 2.6 0.5 0.3 1 0.5 4.4 2.5 8.7 5.1 6.5 3.8 13 7.5 7.3 4.2 14.5 8.4 7.9 4.6 15.9 9.2 4 2.3 8.1 4.6 1.6 1 3.2 1.9c42.3 24.4 42.3 24.4 84.5 48.8q0.9 0.4 1.7 0.9 1.6 0.9 3.2 1.9 4.1 2.3 8.2 4.7 7.8 4.5 15.6 9.1 6.5 3.8 13.1 7.5 7.3 4.2 14.5 8.4 7.9 4.6 15.9 9.2 4 2.3 8.1 4.6 1.6 1 3.2 1.9c48.8 28.1 48.8 28.1 97.5 56.3q0.9 0.4 1.7 0.9 1.6 0.9 3.2 1.9 4.1 2.3 8.2 4.7 7.8 4.5 15.6 9.1 6.5 3.8 13.1 7.5 7.3 4.2 14.5 8.4 7.9 4.6 15.9 9.2 4 2.3 8.1 4.6 1.6 1 3.2 1.9c84.5 48.8 84.5 48.8 86.2 49.7q1.6 0.9 3.2 1.9 4.2 2.4 8.3 4.8 4.8 2.8 9.6 5.5c0.6 0.4 0.6 0.4 1.2 0.7 5.3 3 10.5 5.2 16.3 6.8q0.9 0.3 1.8 0.5c19.4 4.6 37.3-1.7 53.8-11.6q4.3-2.5 8.6-5 0.8-0.5 1.7-1 1.7-0.9 3.4-1.9 4.1-2.4 8.2-4.8 1.6-0.9 3.2-1.8 0.9-0.5 1.7-1c30.9-17.8 30.9-17.8 32.5-18.7q1.6-0.9 3.2-1.9 4.1-2.3 8.2-4.7 7.8-4.5 15.6-9.1 7-4 14-8 6.8-3.9 13.6-7.9 7.9-4.6 15.9-9.2 4-2.3 8.1-4.7 1.6-0.9 3.2-1.8 0.9-0.5 1.7-1c95.9-55.3 95.9-55.3 97.5-56.2q1.6-0.9 3.2-1.9 4.1-2.3 8.2-4.7 7.8-4.5 15.6-9.1 7-4 14-8 6.8-3.9 13.6-7.9 7.9-4.6 15.9-9.2 4-2.3 8.1-4.7 1.6-0.9 3.2-1.8c0.9-0.5 0.9-0.5 1.7-1 95.8-55.3 95.8-55.3 97.5-56.2q1.6-0.9 3.2-1.9 4.1-2.3 8.2-4.7 7.8-4.5 15.6-9.1 7-4 14-8 6.8-3.9 13.6-7.9 7.9-4.6 15.9-9.2 4.8-2.8 9.7-5.6 4.2-2.4 8.3-4.8 4.1-2.3 8.2-4.7 1.8-1.1 3.7-2.1c7.8-4.5 13.2-9.9 15.7-18.7 1.6-7.9 0-15.1-4.3-21.8-4.1-5.5-10.5-8.8-16.4-12q-1.3-0.8-2.7-1.6-1-0.5-1.9-1.1-4.4-2.4-8.7-5-6.5-3.8-13-7.5-7.3-4.2-14.5-8.4-7.9-4.6-15.9-9.2-4-2.3-8.1-4.7-1.6-0.9-3.3-1.8-42.2-24.4-84.5-48.8-0.8-0.4-1.6-0.9-1.6-0.9-3.2-1.9-4.1-2.3-8.2-4.7-7.8-4.5-15.6-9.1-6.5-3.8-13.1-7.5-7.3-4.2-14.5-8.4-7.9-4.6-15.9-9.2-4-2.3-8.1-4.7-1.6-0.9-3.3-1.8-48.7-28.2-97.5-56.3-0.8-0.4-1.6-0.9-1.6-0.9-3.2-1.9-4.1-2.3-8.2-4.7-7.8-4.5-15.6-9.1-6.5-3.8-13.1-7.5-7.3-4.2-14.5-8.4-7.9-4.6-15.9-9.2-4-2.3-8.1-4.7-1.6-0.9-3.3-1.8c-84.5-48.8-84.5-48.8-86.1-49.7q-1.6-0.9-3.2-1.9-4.2-2.4-8.3-4.8c-32.3-18.8-56.7-15.9-88.4 2.7z"/>
	<path class="s0" d="m3643 1934.5c1.7 1 1.9 1.8 2.5 3.7 0.7 2.6 0.6 5.2 0.6 7.9q0 0.8 0 1.7 0.1 2.7 0.1 5.5 0 2 0 4 0 5 0 9.9 0 5.9 0 11.7 0.1 12.1 0.1 24.1 0 9.3 0 18.5 0 2.7 0.1 5.3 0 0.7 0 1.3 0 26.2 0.1 52.4 0 2.6 0 5.2c0 0.7 0 0.7 0 1.3q0 9.4 0 18.7 0 0.6 0 1.2 0 2.4 0 4.7 0.1 21.1 0.1 42.1 0 2 0 4c0 1 0 1 0 2q0 6.8 0 13.6 0.1 8.3 0.1 16.6 0 4.1 0 8.3 0 3.8 0 7.5 0 1.4 0 2.7c0 7.3-0.3 13.9-4.7 20.1q-0.4 0.7-0.9 1.3c-3.5 3.6-8.2 6-12.5 8.5q-2.7 1.6-5.3 3.2-0.6 0.3-1.1 0.6-5.1 3.1-10.2 6.1-7.3 4.5-14.6 8.8-1 0.6-2.1 1.3c-11 6.6-11 6.6-15.3 5.7-2-1.5-2.3-3.5-2.8-5.9-0.4-3.5-0.4-7.2-0.4-10.8q0-1.3 0-2.7 0-3.8 0-7.5 0-3.9 0-7.8-0.1-7.4-0.1-14.8 0-8.4-0.1-16.9 0-17.3-0.1-34.6-3.2 1.9-6.5 3.8-1 0.7-2.1 1.3-7.2 4.3-14.4 8.6-8.8 5.4-17.8 10.7-0.4 0.3-1 0.6-1.3 0.8-2.6 1.5-0.8 0.5-1.6 1-0.8 0.4-1.6 0.8c-1.6 1.1-1.6 1.1-1.8 2.9q0 1.1 0 2.2 0 0.5 0 1.2 0 1.9 0 3.9 0 1.4 0 2.8 0 3.1 0 6.1 0.1 4.8 0 9.6 0 7.7 0 15.3 0.1 13.6 0.1 27.3-0.1 4.7 0 9.5 0 3 0 6 0 1.4 0 2.7c0 8.1-0.7 15.4-6.4 21.5-2.4 2.2-5.1 3.8-7.9 5.4q-2.5 1.4-5 2.9-3.1 1.9-6.1 3.7-6.3 3.7-12.6 7.5-7.1 4.3-14.2 8.6-1.3 0.8-2.6 1.6c-6.7 4-6.7 4-10.3 4-2.1-0.7-2.6-1.6-3.6-3.5-0.4-1.3-0.6-2.3-0.7-3.6q0-0.7 0-1.4 0-0.7-0.1-1.4 0-0.7 0-1.5c-0.3-5.3-0.3-10.7-0.3-16.1q0-1.6 0-3.3 0-4.5 0-9.1 0-4.4 0-8.8 0-11.7 0-23.5 0-5.5 0-11.1 0-19.1 0-38.1 0-1.2 0-2.4 0-1.2 0-2.4 0-2.4 0-4.8 0-0.6 0-1.2 0-19.4 0-38.7-0.1-20.5-0.1-40.9 0-2.3 0-4.5 0-0.6 0-1.1 0-8.9 0-17.8 0-9 0-17.9 0-4.8 0-9.7 0-4.4 0-8.8 0-1.6 0-3.2c0-8 0.3-15.5 6-21.6 1.4-1.3 2.8-2.2 4.4-3.2 0.4-0.3 0.4-0.3 0.9-0.6 3.1-2 6.3-3.8 9.5-5.7q2.6-1.6 5.2-3.1 0.5-0.3 1.1-0.7 5.1-3 10.1-6 7.3-4.5 14.7-8.9 1.1-0.6 2.2-1.3 1.4-0.9 2.9-1.8 0.5-0.2 0.9-0.5c2.8-1.6 5.2-2.4 8.3-1.8 1.7 1.3 2.6 2.9 3 5q0.1 1.4 0.1 2.8c0 0.9 0 0.9 0 1.8q0 0.9 0 1.9 0 1 0 2 0 2.8 0.1 5.5 0 2.9 0 5.8 0 5 0.1 9.9 0 6.2 0 12.4c0.1 17.3 0.2 34.6 0.2 51.9q0.7-0.4 1.3-0.8 0.5-0.2 0.9-0.5 1-0.5 1.9-1.1 1.9-1.1 3.8-2.2 5.7-3.3 11.3-6.7 3.3-2 6.6-4 0.5-0.3 1-0.5 2-1.2 3.9-2.4 0.5-0.2 1-0.5 0.4-0.3 0.9-0.6 1-0.6 2-1.2c2-1.3 4-2.2 6.3-3 3.5-1.4 6.4-2.9 8.6-6 2.3-6 1.4-13.6 1.2-19.9 0-2.7 0-5.3 0-8q-0.1-7.5-0.2-15.1c-0.2-7.4-0.2-14.7-0.3-22.1q0-1.6 0-3.3 0-0.8 0-1.6 0-4.7-0.1-9.5-0.1-2.9-0.1-5.8 0-1.4-0.1-2.8c-0.1-5.6 0-10.6 3-15.5q0.3-0.6 0.7-1.1c2.9-3.9 6.5-6.2 10.6-8.7q0.9-0.5 1.9-1.1 2.4-1.4 4.9-2.9 2.5-1.5 5-3 3-1.8 6-3.5 6.8-4.1 13.5-8.2c15.5-9.5 15.5-9.5 20.5-8.9z"/>
	<path class="s0" d="m3432.5 2060.5c1.7 1.2 2.4 2.5 3 4.5 0.5 3.5 0.6 6.9 0.6 10.4 0 0.8 0 0.8 0 1.6q0 2.5 0 5.1 0 1.8 0 3.6 0 3.7 0 7.4 0 4.8 0 9.5 0 3.7 0 7.4 0 1.8 0 3.5 0 2.5 0 4.9 0 0.8 0 1.5c0 7-1.2 14.3-6.3 19.5-2.5 2.1-5.1 3.7-7.9 5.3q-2.5 1.4-5 2.9-3.1 1.9-6.1 3.7-6.7 3.9-13.3 7.9-7 4.3-14.1 8.5-4.5 2.7-8.9 5.3-0.4 0.3-0.9 0.5c-17.1 10.1-17.1 10.1-26.6 27-1.2 5.5-1.1 11-1.1 16.6q0 1.5 0 3 0 4.1 0 8.1 0 4.3 0 8.6 0 7.2 0 14.3 0 8.3 0 16.6 0 7.1 0 14.2 0 4.3 0 8.5 0 4 0 8 0 1.5 0 2.9c-0.4 9.9-0.4 9.9 3.1 18.7 1.8 1.3 3.8 1.2 5.9 0.9 1.9-0.5 3.6-1.3 5.3-2.2q0.5-0.2 1.1-0.5c3.7-1.9 7.3-4 10.8-6.2q1.1-0.6 2.1-1.2 7.5-4.5 15-9.1 7.7-4.7 15.4-9.2 4.8-2.8 9.5-5.7 0.8-0.5 1.7-1 1.5-0.9 3-1.9c10.3-6.2 10.3-6.2 13.7-5.4 2.2 1.6 3 3.4 3.5 6 0.1 1.9 0.1 3.9 0.1 5.8q0.1 0.9 0.1 1.7 0 2.9 0 5.7 0 1.5 0 3 0 4.7 0 9.3 0 4.8 0 9.6 0 4.2 0 8.3 0 2.4 0 4.9 0.1 2.8 0 5.5 0.1 0.8 0.1 1.6c-0.1 6.2-1.8 12-6.2 16.5-3 2.8-6.4 4.9-10 7q-2.1 1.2-4.2 2.5-1.1 0.6-2.2 1.2-5.1 3-10.2 6.1-8 4.9-16 9.7-7 4.1-14 8.3-7.1 4.4-14.3 8.7-1.1 0.6-2.1 1.2-5.4 3.2-10.8 6.3c-0.5 0.3-0.5 0.3-1 0.6-13.7 7.6-30.7 15.8-46.8 11.5-7.5-2.6-12-7.6-15.8-14.3-7.3-15.1-6.9-33-6.8-49.3q0-2.1 0-4.2-0.1-5.1-0.1-10.2 0.1-4.1 0-8.2 0-0.6 0-1.2 0-1.3 0-2.5 0-11.2 0-22.5 0-10.2 0-20.5 0-10.6 0-21.2 0-5.9 0-11.8 0-5.1 0-10.1 0-2.6 0-5.1c-0.1-34 7.7-66.4 29.2-93.4q0.3-0.4 0.7-0.8c3.3-4.2 7.1-8.1 10.8-11.9q0.7-0.6 1.4-1.3c3.1-3.1 6.2-5.8 9.6-8.5q0.5-0.4 1.1-0.9c13-10.5 27.6-18.6 41.9-27.1q6.6-3.8 13.1-7.8 7.5-4.6 15.1-9 6.9-4 13.7-8.2c0.5-0.3 0.5-0.3 0.9-0.5q2.1-1.3 4.2-2.6 3-1.8 6-3.7 0.9-0.5 1.7-1c2.4-1.3 4.6-1.6 7.3-1.2z"/>
	<path class="s0" d="m2464 2083q0.7 0.4 1.4 0.7 9 4.9 18 10 4.9 2.8 10 5.4c3 1.6 6 3.2 8.9 4.9 4.7 2.7 9.4 5.2 14.2 7.7 4.6 2.5 9.2 5 13.8 7.5 4.9 2.9 9.9 5.5 14.9 8.2 4.2 2.2 8.4 4.5 12.6 6.8q4.5 2.5 9 5 6.6 3.5 13.1 7.2 4.3 2.5 8.7 4.8 0.6 0.3 1.1 0.6 2.7 1.4 5.3 2.7c9.3 4.9 9.3 4.9 10.5 8 0 2.5-0.6 4.2-2.4 6.1-2.2 1.9-4.8 3.2-7.3 4.7q-2.2 1.2-4.5 2.5-9.3 5.4-18.7 10.6-5.5 3.1-10.8 6.3c-19.7 11.5-19.7 11.5-30.6 8.8-3-0.9-5.6-2.4-8.4-3.9q-0.9-0.5-1.8-1.1-6.3-3.4-12.5-7c-4.5-2.5-9-4.9-13.5-7.3q-7.2-3.8-14.2-7.8c-3.9-2.2-7.8-4.3-11.8-6.4q-8.3-4.4-16.5-9.1-0.6-0.3-1.2-0.7-1.4-0.8-2.8-1.6c-0.7-0.4-0.7-0.4-1.4-0.8q-0.7-0.4-1.4-0.8c-1.1-0.6-1.1-0.6-2.2-0.4-1.3 0.5-2.5 1.2-3.7 1.8q-0.8 0.5-1.7 1-0.8 0.4-1.7 0.9-0.9 0.5-1.8 1.1c-9.7 5.3-9.7 5.3-19.1 11.1q0.5 0.3 1.1 0.6c6.2 3.3 12.5 6.6 18.6 10.1 4.7 2.7 9.5 5.3 14.3 7.8q7.1 3.8 14.1 7.8 4.9 2.8 9.9 5.3c1.9 1.1 4 2.4 5 4.4 0.3 2.3 0.4 3.9-1.1 5.8-1.5 1.4-3.1 2.5-4.9 3.6-0.4 0.2-0.4 0.2-0.8 0.5-3.1 1.8-6.1 3.6-9.2 5.4q-0.9 0.5-1.9 1-1.4 0.8-2.8 1.6-3.2 1.8-6.4 3.7-8.6 4.9-17.3 9.8-0.7 0.4-1.5 0.8c-7.2 4.1-14 7.6-22.5 5.8-6.4-1.8-12.2-5.6-17.9-8.8-4-2.3-8.1-4.5-12.2-6.7-4.5-2.4-8.9-4.7-13.3-7.3q-2.8-1.6-5.7-3.2-0.5-0.3-0.9-0.5-3.1-1.7-6.1-3.4-1-0.6-2-1.1-1.4-0.8-2.8-1.6-0.8-0.4-1.7-0.9c-1.9-0.6-2.7-0.3-4.5 0.5q-1.1 0.5-2.1 1.1-0.6 0.4-1.2 0.7-0.6 0.4-1.3 0.8-1.4 0.8-2.8 1.6c-0.7 0.4-0.7 0.4-1.5 0.9q-4 2.3-8.1 4.6-1.3 0.8-2.7 1.5-4.6 2.7-9.3 5.3c1.6 1.2 3.2 2.2 4.9 3.2 0.4 0.2 0.4 0.2 0.9 0.4q1.4 0.8 2.8 1.6 0.9 0.5 1.9 1 7.1 3.9 14.3 7.8 5.2 2.7 10.3 5.7c4.9 2.8 9.9 5.4 14.9 8.1q7.2 3.7 14.2 7.8 4 2.3 8.2 4.5 0.5 0.2 1 0.5 2.5 1.3 5 2.6c7.7 4 7.7 4 9.1 6.8 0.3 2.9-0.2 4.2-2 6.5-1.1 0.9-2 1.6-3.2 2.3q-0.5 0.3-1 0.7c-3.2 2-6.6 3.8-9.9 5.6q-5.2 2.8-10.3 5.8-6.9 4.1-13.9 8-4 2.2-7.8 4.4c-0.8 0.5-0.8 0.5-1.6 0.9q-1.4 0.8-2.8 1.7c-6.1 3.5-13 5.7-20 4.1-6.5-1.9-12.3-5.7-18.1-9q-4.6-2.6-9.1-5-5.2-2.7-10.1-5.5c-4.7-2.7-9.4-5.2-14.2-7.7-4.6-2.5-9.2-5-13.7-7.5-5-2.9-10-5.5-15-8.2-4.2-2.2-8.4-4.5-12.6-6.8q-4.5-2.5-9-5-5.9-3.1-11.7-6.4c-4.6-2.7-9.3-5.2-14-7.6-4.9-2.6-9.7-5.2-14.5-7.9-0.7-0.4-0.7-0.4-1.4-0.8-6.3-3.5-6.3-3.5-7.8-5.5-0.5-2-0.3-3.7 0.7-5.5 2.3-3 5.7-4.7 9-6.6q0.6-0.3 1.2-0.7 3.5-2 7.1-4 5-2.8 10-5.7 0.9-0.5 1.8-1 4-2.3 8.1-4.6 2.2-1.3 4.4-2.6 0.4-0.2 0.9-0.5 6.2-3.5 12.4-7 6.8-3.8 13.6-7.8c4.1-2.4 8.3-4.7 12.4-7q6.9-3.9 13.7-7.8 4.1-2.3 8.2-4.7c4.9-2.8 4.9-2.8 9.9-5.6q2.2-1.3 4.4-2.6 0.4-0.2 0.9-0.5 6.2-3.5 12.4-7 6.8-3.8 13.6-7.8c4.1-2.4 8.3-4.7 12.4-7q6.9-3.9 13.7-7.8 4.1-2.3 8.2-4.7c4.9-2.8 4.9-2.8 9.9-5.6q2.2-1.3 4.4-2.6c0.4-0.2 0.4-0.2 0.9-0.5q6.2-3.5 12.4-7 6.8-3.8 13.6-7.8 6.2-3.6 12.4-7 5-2.8 9.9-5.6 0.6-0.4 1.3-0.8 3.4-1.9 6.9-3.9c13-7.6 21.9-10.1 35.5-2.8z"/>
	<path class="s0" d="m1140.5 2091.3q0.8 0 1.6 0c7.9 0.1 15.6 0.3 23.4 1.7 0.9 0.2 0.9 0.2 1.7 0.3 24.1 4.4 45.7 13.7 67.5 24.5 0.6 0.3 0.6 0.3 1.2 0.6q3.6 1.8 7.2 3.7c6.4 3.4 12.9 6.7 19.4 9.9 12.6 6.2 12.6 6.2 17.7 9 3.8 2 7.6 3.9 11.5 5.8 0.9 0.5 0.9 0.5 1.8 0.9q3.6 1.8 7.2 3.6 1.8 0.9 3.6 1.8 1.7 0.8 3.4 1.6c7.5 3.8 7.5 3.8 9.8 7.3 0.3 1.7 0.3 2.9-0.5 4.4-4.4 5.9-13.2 9.1-19.5 12.4q-5.4 2.9-10.7 5.9c-4.9 2.8-9.8 5.5-14.8 8.1-2.9 1.5-5.7 3.1-8.5 4.7-7.2 4.2-14.9 6.8-23.4 5-2.4-0.7-4.6-1.7-6.8-2.8q-1-0.5-2.1-1.1-0.6-0.3-1.1-0.5-2.6-1.3-5.2-2.6-1-0.5-2.1-1.1-0.5-0.2-1-0.5-3.5-1.8-7-3.5-3.1-1.5-6.1-3.1c-15.8-7.8-15.8-7.8-21.9-11.1-4.6-2.4-9.2-4.7-13.9-7.1q-1.5-0.8-3.1-1.6c-5.8-2.9-11.5-5.7-17.8-7.5q-0.7-0.2-1.3-0.4c-14.1-3.7-26.9 3.6-38.7 10.3-3.8 2.2-7.6 4.3-11.5 6.3q-6.4 3.5-12.7 7c-4.6 2.6-9.1 5.1-13.7 7.5q-6 3.2-11.8 6.5-6.4 3.6-12.8 7-8 4.3-15.9 8.8-2.5 1.4-5 2.8c-6.1 3.2-6.1 3.2-10.1 8.7-0.2 1.9-0.1 2.8 0.8 4.5 2.9 3.5 6.3 5.7 10.4 7.8q1.5 0.8 3.1 1.6 0.8 0.4 1.6 0.8 2.3 1.1 4.5 2.3c8.6 4.5 17.2 8.8 25.9 13.1 5 2.5 9.9 5 14.7 7.6q4.2 2.2 8.4 4.2c0.7 0.3 0.7 0.3 1.3 0.6q2.4 1.3 4.9 2.5c10.7 5.1 10.7 5.1 12.4 8.5 0.3 2.2 0.1 3.3-1 5.2-5.1 5.2-13.1 8.2-19.3 11.6q-3.8 2-7.6 4.1c-0.5 0.3-0.5 0.3-1 0.6q-1.2 0.6-2.3 1.3-6.5 3.6-13.1 7.2-3 1.7-6.1 3.4-1.6 0.9-3.1 1.7c-0.7 0.4-0.7 0.4-1.4 0.8-7.4 4-14.9 5.8-23.1 3.6-4.7-1.7-9.2-4-13.6-6.3q-1.7-0.8-3.5-1.7-5.7-2.9-11.4-5.9c-6.1-3.2-12.3-6.3-18.5-9.4-13.2-6.5-13.2-6.5-19.5-9.9-4.4-2.3-8.9-4.5-13.4-6.7-15.8-7.9-31.6-15.9-44.6-28.1q-0.6-0.5-1.2-1c-6.1-5.8-10.5-13.6-11-22.1 0.3-10.2 6.3-18.3 13.4-25.2 13.5-12.2 30.2-20.4 46.1-28.9q5.4-2.9 10.7-5.9 4.8-2.7 9.6-5.3 0.4-0.3 0.9-0.5 6.3-3.5 12.7-6.9 5.7-3.1 11.4-6.4c4.6-2.6 9.2-5.1 13.8-7.5q6-3.2 11.9-6.6c4.5-2.5 9-5 13.6-7.4q5.9-3.2 11.7-6.5c28.8-16.4 59.4-28.1 92.9-28z"/>
	<path class="s0" d="m3254.5 2167.5c2 1.4 2.6 3.2 3 5.5 0.1 1.9 0.1 3.8 0.1 5.8q0.1 0.8 0.1 1.7 0 2.8 0 5.6 0 2 0 4 0 4.1 0 8.2 0 4.8 0 9.5 0 4.6 0 9.2 0 2 0 3.9c0.1 16.6 0.1 16.6-5.7 23.1-3.3 3-6.9 5.3-10.8 7.4q-2.4 1.4-4.8 2.8-0.5 0.3-1 0.6c-3.3 1.9-6.5 3.9-9.8 5.9q-7.5 4.6-15.1 9.1-7.5 4.4-15 9-9 5.5-18.2 10.8-0.9 0.6-1.8 1.2c-1.8 1.1-3.5 1.9-5.5 2.7-2.6 1-4.9 2.1-6.5 4.5-1.4 4.6-0.9 9.7-0.6 14.5q0.1 2.7 0.2 5.4 0.1 5.3 0.4 10.6c7.7-4.5 15.4-9.1 23-13.8q8-4.8 16-9.5 5.5-3.3 11-6.7 0.5-0.2 1-0.6 2.3-1.4 4.6-2.8 0.8-0.5 1.6-1c0.7-0.4 0.7-0.4 1.4-0.9 2.4-1.2 4.7-2.1 7.4-1.7 1.8 1.5 2.8 2.8 3.5 5 0.1 1.5 0.1 1.5 0.2 3.1q0 0.9 0 1.8 0 1 0 2 0 1.1 0 2.1 0.1 2.8 0.1 5.6 0 2.3 0.1 4.6 0 5.7 0.1 11.3 0 3.1 0 6.2 0.1 3.2 0.1 6.4 0 1 0 2.1c0.1 8.3-0.5 15.8-5.8 22.5-3.5 3.4-7.9 5.8-12.1 8.2q-2.4 1.4-4.8 2.8-0.5 0.3-1 0.6-4.9 2.9-9.8 5.9-5.5 3.4-11.1 6.7-0.5 0.3-1 0.6-2.9 1.7-5.8 3.4-0.9 0.5-1.9 1.1c-2.1 1.4-4.3 2.5-6.7 3.5-6.3 2.8-6.3 2.8-10.3 8.3-1 4.8-0.6 9.7-0.2 14.5 0.1 2 0.2 4 0.3 6q0.2 5.9 0.6 11.7 2.9-1.7 5.8-3.4 1-0.6 2-1.2 6.8-4 13.6-8.1 0.5-0.3 1.1-0.6 1.2-0.8 2.4-1.5 5.8-3.5 11.6-7 7.5-4.4 15-9 8.6-5.2 17.3-10.3c2.9-1.7 5.9-3.5 8.8-5.3q0.6-0.4 1.3-0.8 1.2-0.8 2.4-1.6c2.6-1.6 5.1-2.5 8.2-2.7 1.9 0.6 2.3 1.2 3.4 2.9 0.8 2.2 1.2 4.2 1.2 6.5q0 0.7 0 1.5 0 0.7 0 1.5 0 0.8 0 1.7 0 2.7 0 5.4 0 1.9 0 3.8 0 3.4 0 6.9 0 5 0 10.1 0.1 4.4 0.1 8.8 0 1.9 0 3.7c0.1 15.9 0.1 15.9-4.7 22.7q-0.4 0.7-0.9 1.3c-3.3 3.5-7.8 5.8-11.9 8.1q-2.4 1.4-4.8 2.8-0.5 0.3-1 0.6-4.9 2.9-9.8 5.9-7.5 4.6-15.1 9.1-7.5 4.4-15 9-8 4.8-16 9.6-7 4.1-14 8.4-8 4.8-16 9.6-7 4.1-14 8.4-8.6 5.2-17.4 10.4-0.4 0.2-0.9 0.5-1 0.6-1.9 1.1-2.4 1.5-4.8 2.9-0.5 0.4-1.1 0.7-0.9 0.5-1.9 1.1c-2.4 1.5-4.4 2.5-7.3 2.5-2.1-0.6-2.6-1.1-3.7-3-0.8-2.7-1.1-5.1-1.1-7.9q0-0.6 0-1.2 0-1.9 0-3.8 0-1.3 0-2.7-0.1-3.8-0.1-7.6 0-4 0-8.1 0-7.1 0-14.2 0-10.3 0-20.6-0.1-16.8-0.1-33.6 0-16.1 0-32.3 0-1 0-2-0.1-3.9-0.1-7.9 0-25.6 0-51.2-0.1-0.9-0.1-1.8 0-9.3 0-18.7 0-3.3 0-6.5 0-0.8 0-1.7 0-10.5 0-21.1-0.1-5.5-0.1-11 0-4.4 0-8.8 0-2.7 0-5.3 0-1.3-0.1-2.5c0-8.3 0.5-16.6 6.5-22.9 2.3-2.3 4.9-3.9 7.7-5.5 0.8-0.5 0.8-0.5 1.6-1q1.8-1 3.5-2 4.4-2.6 8.8-5.2 1.5-0.9 3.1-1.8 6.9-4.1 13.9-8.4 7.5-4.6 15.1-9.1 7-4.1 14-8.3 8-4.9 16-9.7 7-4.1 14-8.3 7.5-4.6 15-9 7.2-4.3 14.3-8.6 1.3-0.8 2.6-1.6 3.9-2.4 7.7-4.7 1.3-0.8 2.6-1.6 1.7-1 3.3-2c6.6-4 6.6-4 10.5-2.8z"/>
	<path fill-rule="evenodd" class="s0" d="m1801.4 2264.1q4 2.3 8 4.6 1.7 1 3.3 1.9 0.8 0.5 1.7 1 4 2.3 8.1 4.7 1.6 0.9 3.2 1.8c42.3 24.4 42.3 24.4 84.5 48.8q0.9 0.4 1.7 0.9 1.6 0.9 3.2 1.9 4.1 2.3 8.2 4.7 7.8 4.5 15.6 9.1 6.5 3.8 13.1 7.5 7.3 4.2 14.5 8.4 7.9 4.6 15.9 9.2 4 2.3 8.1 4.7 1.6 0.9 3.2 1.8c48.8 28.2 48.8 28.2 97.5 56.3q0.9 0.4 1.7 0.9 1.6 0.9 3.2 1.9 4.1 2.3 8.2 4.7 7.8 4.5 15.6 9.1 6.5 3.8 13.1 7.5 7.3 4.2 14.5 8.4 7.9 4.6 15.9 9.2 4 2.3 8.1 4.7 1.6 0.9 3.2 1.8c48.8 28.2 48.8 28.2 97.5 56.3q0.9 0.4 1.7 0.9 1.6 0.9 3.2 1.9 4.1 2.3 8.2 4.7 8.6 4.9 17.1 9.9 4.1 2.4 8.3 4.8 0.4 0.2 0.9 0.5 2.2 1.3 4.5 2.6c11.9 6.7 20.3 14.8 24.1 28.3q0.2 0.5 0.3 1 0.3 0.9 0.5 1.9c3.7 16.7 0.6 36.4-8 51.3-3.5 5.4-7.2 9.5-12.9 12.7q-2 1.1-4 2.3-3.7 2.1-7.5 4.3-4.6 2.6-9.1 5.3-1.6 0.9-3.3 1.8-0.8 0.5-1.6 1c-17.8 10.3-17.8 10.3-19.5 11.2q-1.6 0.9-3.2 1.9-4.1 2.3-8.2 4.7-7.8 4.5-15.6 9.1-7 4-14 8-6.8 3.9-13.6 7.9-7.9 4.6-15.9 9.2-4 2.3-8.1 4.7-1.6 0.9-3.3 1.8c-0.8 0.5-0.8 0.5-1.6 1-121.9 70.3-121.9 70.3-123.5 71.2q-1.6 0.9-3.2 1.9-4.1 2.3-8.2 4.7-7.8 4.5-15.6 9.1-7 4-14 8-6.8 3.9-13.6 7.9-7.9 4.6-15.9 9.2-4 2.3-8.1 4.7-1.6 0.9-3.3 1.8-0.8 0.5-1.6 1c-121.8 70.3-121.8 70.3-123.5 71.2q-1.6 0.9-3.2 1.9-4.1 2.3-8.2 4.7-7.8 4.5-15.6 9.1-7 4-14 8-6.1 3.5-12.2 7-0.7 0.5-1.4 0.9-3.1 1.8-6.1 3.6c-14.2 8.3-27.1 14.7-43.9 14.7q-0.5 0-1.1 0c-5.8 0-11.3-0.6-16.9-2.2q-0.5-0.1-1-0.3c-13.4-3.7-25.6-12.5-37.5-19.5q-7.2-4.1-14.4-8.3-4-2.3-8.1-4.6-1.6-1-3.3-1.9-61.7-35.6-123.5-71.3-0.8-0.4-1.6-0.9-1.6-0.9-3.2-1.9-4.1-2.3-8.2-4.7-7.8-4.5-15.6-9.1-6.5-3.8-13.1-7.5-7.3-4.2-14.5-8.4-7.9-4.6-15.9-9.2-4-2.3-8.1-4.6-1.6-1-3.3-1.9-61.7-35.6-123.5-71.3-0.8-0.4-1.6-0.9-1.6-0.9-3.2-1.9-4.1-2.3-8.2-4.7-7.8-4.5-15.6-9.1-6.5-3.8-13.1-7.5-7.3-4.2-14.5-8.4-7.9-4.6-15.9-9.2-4-2.3-8.1-4.6-1.6-1-3.3-1.9-22.7-13.1-45.5-26.3c-0.8-0.4-0.8-0.4-1.6-0.9q-1.6-0.9-3.2-1.9-3.8-2.2-7.5-4.3-1.4-0.8-2.7-1.5-1.6-1-3.3-1.9c-11.8-6.8-17.4-15.3-21-28.2-2-7.4-2.6-14.6-2.6-22.2q0-0.6 0-1.2c0-6.5 0.4-12.7 2.2-19q0.2-0.6 0.3-1.2c3.1-10.4 7.7-17.3 17.2-22.8q0.7-0.4 1.4-0.8 4.5-2.6 9-5.2 4.6-2.6 9.1-5.2 1.6-1 3.2-1.9 0.9-0.5 1.7-1c30.8-17.8 30.8-17.8 32.5-18.7q1.6-0.9 3.2-1.9 4.1-2.3 8.2-4.7 7.8-4.5 15.6-9.1 7-4 14-8 6.8-3.9 13.6-7.9 7.9-4.6 15.9-9.2 4-2.3 8.1-4.6 1.6-1 3.2-1.9 0.9-0.5 1.7-1c95.9-55.3 95.9-55.3 97.5-56.2q1.6-0.9 3.2-1.9 4.1-2.3 8.2-4.7 7.8-4.5 15.6-9.1 7-4 14-8 6.8-3.9 13.6-7.9 7.9-4.6 15.9-9.2 4-2.3 8.1-4.6 1.6-1 3.2-1.9 0.9-0.5 1.7-1c95.8-55.3 95.8-55.3 97.5-56.2q1.6-0.9 3.2-1.9 4.1-2.3 8.2-4.7 7.8-4.5 15.6-9.1 7-4 14-8 6.8-3.9 13.6-7.9 7.9-4.6 15.9-9.2 4-2.3 8.1-4.6 1.6-1 3.2-1.9 0.9-0.5 1.7-1 2.4-1.4 4.8-2.8c0.9-0.4 0.9-0.4 1.7-0.9q1.6-0.9 3.2-1.9 4.2-2.4 8.3-4.8c31.2-18.2 57.5-17.9 88.5 0.6zm-79.9-1.6c-0.7 0.4-0.7 0.4-1.4 0.8q-3.7 2.2-7.4 4.3-4.8 2.9-9.6 5.6c-0.8 0.5-0.8 0.5-1.7 1q-1.6 0.9-3.3 1.9-4 2.3-8.1 4.7-1.6 0.9-3.3 1.8-0.8 0.5-1.6 1c-69.9 40.3-69.9 40.3-71.5 41.2q-1.6 0.9-3.2 1.9-4.1 2.3-8.2 4.7-7.8 4.5-15.6 9.1-7 4-14 8-6.8 3.9-13.6 7.9-7.9 4.6-15.9 9.2-4 2.3-8.1 4.7-1.6 0.9-3.3 1.8-0.8 0.5-1.6 1c-95.9 55.3-95.9 55.3-97.5 56.2q-1.6 0.9-3.2 1.9-4.1 2.3-8.2 4.7-7.8 4.5-15.6 9.1-7 4-14 8-6.8 3.9-13.6 7.9-7.9 4.6-15.9 9.2-4 2.3-8.1 4.7-1.6 0.9-3.3 1.8-0.8 0.5-1.6 1c-95.9 55.3-95.9 55.3-97.5 56.2q-1.6 0.9-3.2 1.9-4.1 2.3-8.2 4.7-7.8 4.5-15.6 9.1-6.1 3.5-12.2 7-4 2.2-7.9 4.5-0.8 0.5-1.7 1-2.4 1.4-4.8 2.8-0.7 0.4-1.5 0.8c-8.1 4.7-14.2 10-16.9 19.3-1.5 6.8-0.7 13.6 2.8 19.8q0.8 1.1 1.6 2.3 0.4 0.6 0.8 1.1c5.3 6.6 14.2 10.2 21.5 14.3q4.6 2.7 9.3 5.4 0.8 0.4 1.6 0.9 1.6 0.9 3.2 1.9 2.4 1.4 4.9 2.8 7.8 4.5 15.6 9.1 6.5 3.8 13.1 7.5 7.3 4.2 14.5 8.4 7.9 4.6 15.9 9.2 4 2.3 8.1 4.7 1.6 0.9 3.2 1.8 48.8 28.2 97.5 56.3 0.9 0.4 1.7 0.9 1.6 0.9 3.2 1.9 4.1 2.3 8.2 4.7 7.8 4.5 15.6 9.1 6.5 3.8 13.1 7.5 7.3 4.2 14.5 8.4 7.9 4.6 15.9 9.2 4 2.3 8.1 4.7 1.6 0.9 3.2 1.8 48.8 28.2 97.5 56.3 0.9 0.4 1.7 0.9 1.6 0.9 3.2 1.9 4.1 2.3 8.2 4.7 7.8 4.5 15.6 9.1 6.5 3.8 13.1 7.5 7.3 4.2 14.5 8.4 7.9 4.6 15.9 9.2 4 2.3 8.1 4.7 1.6 0.9 3.2 1.8c45.5 26.3 45.5 26.3 47.2 27.2q1.6 0.9 3.2 1.9 4.2 2.4 8.3 4.8c8.2 4.8 16 9.1 25.1 11.5q0.9 0.2 1.8 0.5c18.5 4.3 35.4-1.3 51.2-10.5q0.7-0.4 1.4-0.8 3.8-2.2 7.5-4.4 4.8-2.8 9.5-5.5 0.8-0.5 1.7-1 1.6-0.9 3.3-1.9 4-2.3 8.1-4.6 1.6-1 3.2-1.9 0.9-0.5 1.7-1c30.8-17.8 30.8-17.8 32.5-18.7q1.6-0.9 3.2-1.9 4.1-2.3 8.2-4.7 7.8-4.5 15.6-9.1 7-4 14-8 6.8-3.9 13.6-7.9 7.9-4.6 15.9-9.2 4-2.3 8.1-4.6 1.6-1 3.2-1.9 0.9-0.5 1.7-1c95.9-55.3 95.9-55.3 97.5-56.2q1.6-0.9 3.2-1.9 4.1-2.3 8.2-4.7 7.8-4.5 15.6-9.1 7-4 14-8 6.8-3.9 13.6-7.9 7.9-4.6 15.9-9.2 4-2.3 8.1-4.6 1.6-1 3.2-1.9c0.9-0.5 0.9-0.5 1.7-1 95.9-55.3 95.9-55.3 97.5-56.2q1.6-0.9 3.2-1.9 4.1-2.3 8.2-4.7 7.8-4.5 15.6-9.1 7-4 14-8 6.8-3.9 13.6-7.9 9.6-5.6 19.1-11 0.9-0.5 1.7-1 0.8-0.5 1.6-0.9 2.5-1.4 4.9-2.8 3.2-1.9 6.5-3.8 1.6-0.9 3.2-1.8 0.7-0.4 1.5-0.8c7.2-4.2 12.6-9.6 15-17.7 1.9-7.5 0.9-14.5-3.1-21.1-3.7-5.4-8-8.4-13.6-11.5q-2.9-1.6-5.9-3.3-2.5-1.5-5-2.9-4.9-2.9-9.9-5.7-1.6-1-3.3-1.9-3.2-1.9-6.5-3.8-0.8-0.4-1.6-0.9-1.6-0.9-3.2-1.9-4.1-2.3-8.2-4.7-7.8-4.5-15.6-9.1-6.5-3.8-13.1-7.5-7.3-4.2-14.5-8.4-7.9-4.6-15.9-9.2-4-2.3-8.1-4.6-1.6-1-3.3-1.9-42.2-24.4-84.5-48.8-0.8-0.4-1.6-0.9-1.6-0.9-3.2-1.9-4.1-2.3-8.2-4.7-7.8-4.5-15.6-9.1-6.5-3.8-13.1-7.5-7.3-4.2-14.5-8.4-7.9-4.6-15.9-9.2-4-2.3-8.1-4.6-1.6-1-3.3-1.9-48.7-28.1-97.5-56.3-0.8-0.4-1.6-0.9-1.6-0.9-3.2-1.9-4.1-2.3-8.2-4.7-7.8-4.5-15.6-9.1-6.5-3.8-13.1-7.5-7.3-4.2-14.5-8.4-7.9-4.6-15.9-9.2-4-2.3-8.1-4.6-1.6-1-3.3-1.9c-45.5-26.3-45.5-26.3-47.1-27.2q-1.6-0.9-3.2-1.9-4.2-2.4-8.3-4.8c-24.1-14.2-48.9-16.2-73.6-2z"/>
	<path class="s0" d="m3074.5 2275c2.3 1.6 2.8 3.1 3.3 5.7 0.4 2.4 0.3 4.7 0.3 7.1 0 0.8 0 0.8 0 1.7q0.1 2.8 0.1 5.5 0 2 0 3.9 0 4.1 0 8.1 0 4.7 0 9.3 0 4.5 0 9.1 0 1.9 0 3.8 0 2.6 0 5.3 0 0.8 0 1.6c0 6.4-1.6 12.8-6.1 17.5-3 2.9-6.4 4.9-10 6.9q-1.1 0.6-2.1 1.2-1.7 1-3.3 2c-3.4 1.9-6.8 4-10.2 6.1q-9 5.4-18 10.7c-0.5 0.3-0.5 0.3-1 0.6q-0.9 0.6-1.9 1.1c-1.4 0.8-1.4 0.8-2.6 1.8q-0.1 1.6-0.1 3.3c0 0.5 0 0.5 0 1q0 1.8 0 3.5 0 1.3 0 2.6 0 3.4 0.1 6.9 0 3.8 0 7.6 0 6.5 0 13 0 9.5 0 18.9 0 15.4 0 30.7 0 0.9 0 1.9 0 13 0 26 0 0.9 0 1.9c0 0.9 0 0.9 0.1 1.8q0 15.3 0 30.6 0 9.4 0 18.8 0 6.5 0 12.9 0 3.8 0 7.5 0 3.4 0 6.8 0 1.3 0 2.5c0.1 8.4-0.5 16-6.5 22.4-2.5 2.4-5.4 4-8.3 5.8q-0.9 0.5-1.9 1.1-2.4 1.5-4.9 2.9-2.5 1.5-4.9 2.9-4.5 2.7-9 5.4-5.3 3.1-10.6 6.3-1.5 0.8-3 1.7-0.4 0.3-0.9 0.6-0.9 0.5-1.8 1.1-2.5 1.4-4.8 2.8c-0.6 0.3-0.6 0.3-1.1 0.7q-0.9 0.5-1.9 1.1c-2.9 1.8-5.1 2.9-8.5 2.5-2.2-1.6-3-3.4-3.5-6-0.1-1.9-0.1-3.8-0.1-5.7q0-0.8 0-1.7-0.1-2.9-0.1-5.7 0-2.1 0-4.1 0-4.5 0-8.9 0-6.5 0-13.1 0-10.7-0.1-21.4 0-23.1-0.1-46.3 0-3.6 0-7.3-0.1-45.9-0.6-91.8-2.9 1.7-5.8 3.4-1 0.6-2 1.2-6.8 4-13.6 8.1-7.3 4.4-14.7 8.9-1 0.6-2.1 1.2c-8.6 5.2-8.6 5.2-12.2 5.2-2.1-0.6-2.6-1.1-3.6-3-0.9-3.7-1.1-7.4-1.1-11.2 0-0.8 0-0.8 0-1.6q-0.1-2.6-0.1-5.2 0-1.9 0-3.7 0-3.9 0-7.8 0-4.9 0-9.8 0-3.8 0-7.6 0-1.8 0-3.7c0-8.9 0.1-16.9 5.3-24.5 3.7-3.7 8.4-6.1 12.8-8.7q2.7-1.6 5.3-3.2c0.6-0.3 0.6-0.3 1.1-0.6q5.1-3.1 10.2-6.2 8-4.8 16-9.6 7-4.1 14-8.4 8-4.8 16-9.6 7-4.1 14-8.4 8-4.8 16-9.6 7-4.1 14-8.4 8-4.8 16-9.6 7.2-4.2 14.3-8.5 6.4-4 12.9-7.8 0.7-0.4 1.4-0.8 0.6-0.4 1.2-0.8c0.6-0.3 0.6-0.3 1.1-0.6 2.5-1.4 4.8-2.1 7.6-1.6z"/>
	<path class="s0" d="m528.5 2321.5c4.2 1.8 8.1 4.2 12 6.7q1.3 0.8 2.6 1.5 0.8 0.6 1.7 1.1 4.8 3 9.6 5.9 0.9 0.6 1.8 1.1 1.8 1.1 3.5 2.1 4 2.4 7.9 4.8 2.2 1.3 4.4 2.7 0.4 0.2 0.9 0.5 2.6 1.6 5.3 3.2 10 6.1 20 12.2 2.8 1.7 5.6 3.4 7.5 4.6 15 9.2 9.5 5.8 18.9 11.5 2.7 1.6 5.3 3.2 0.4 0.3 0.9 0.6 2.2 1.3 4.3 2.6 4.1 2.5 8.1 4.9 1.9 1.1 3.8 2.3 1.3 0.8 2.6 1.6c14.9 8.9 14.9 8.9 17.3 17.1 0.7 2.6 0.6 5.2 0.6 7.9q0.1 0.8 0.1 1.7 0 2.7 0 5.4 0 1.9 0 3.8 0 4 0 7.9 0 4.6 0 9.2 0 4.4 0 8.8 0 1.9 0 3.7 0.1 2.7 0 5.3 0.1 0.7 0.1 1.5c-0.1 3.3-0.6 5.3-2.3 8.1-1.7 0.8-3.2 0.8-5 0.5-4.8-1.7-9.2-4.9-13.5-7.6q-4.9-3.1-9.8-6-0.9-0.6-1.8-1.1-1.8-1.1-3.6-2.2-4.5-2.7-9-5.4-0.8-0.6-1.7-1.1-7.6-4.6-15.2-9.2-2.9-1.8-5.7-3.5-1.4-0.9-2.9-1.8-3.7-2.2-7.4-4.5-0.7-0.4-1.5-0.9-1.5-0.9-2.9-1.8c-3.2-1.9-6.3-3.9-9.5-5.9-0.2 9.6-0.3 19.1-0.5 29q1.2 0.5 2.5 1 1 0.6 2 1.2 0.6 0.3 1.2 0.7 0.6 0.3 1.2 0.7c0.7 0.4 0.7 0.4 1.4 0.8q2.1 1.3 4.2 2.6 1.4 0.9 2.8 1.7 3.6 2.2 7.2 4.4 3.6 2.2 7.3 4.4 1.4 0.9 2.8 1.7c0.7 0.5 0.7 0.5 1.5 0.9q2.1 1.3 4.3 2.6 0.7 0.5 1.4 0.9 1.4 0.9 2.9 1.8 3.7 2.2 7.4 4.4c0.8 0.5 0.8 0.5 1.6 1q1.4 0.8 2.9 1.7c6.3 3.8 11.2 8.2 13.1 15.5 0.5 2.3 0.5 4.6 0.5 6.9 0 0.8 0 0.8 0 1.6q0 2.5 0 5 0 1.8 0 3.5 0 3.7 0 7.4 0 4.7 0 9.4 0 3.6 0 7.2 0 1.7 0 3.5 0 2.4 0 4.8 0 0.7 0 1.5c0 2.7-0.3 4.7-1.7 7.2-1.9 1.3-3.3 1.4-5.5 1-4.8-1.7-9.2-4.9-13.5-7.6q-4.9-3.1-9.9-6.1-0.9-0.6-1.8-1.1-1.4-0.8-2.7-1.6-4.3-2.6-8.5-5.2-0.7-0.4-1.4-0.8-3.6-2.2-7.2-4.4-0.8-0.5-1.5-1-1.4-0.8-2.8-1.7-5.9-3.5-11.7-7c0 10.7 0 21.4 0 32.5q1.2 0.5 2.5 1 1.3 0.7 2.6 1.5c0.8 0.5 0.8 0.5 1.5 1q0.8 0.5 1.7 1 1.7 1.1 3.5 2.2 0.5 0.3 0.9 0.6 4.9 3 9.7 5.9 0.9 0.6 1.8 1.1 1.8 1.1 3.5 2.1 4 2.4 7.9 4.8 2.2 1.3 4.4 2.7 0.4 0.2 0.9 0.5 2.6 1.6 5.3 3.2c13.3 8.1 13.3 8.1 18.6 11.3q3.6 2.3 7.3 4.4c16.8 10.2 16.8 10.2 19.4 18.7 0.4 1.7 0.6 3.2 0.6 4.9q0 0.7 0 1.5 0 0.7 0 1.5 0 0.8 0 1.7 0 2.7 0 5.4 0 1.9 0 3.7 0 3.5 0 6.9 0 5.1 0 10.1 0.1 4.4 0.1 8.8 0 1.9 0 3.7 0 2.6 0 5.3 0 0.7 0 1.5c0 3.3-0.3 6.1-2.7 8.5-3.6 0.6-6.3-0.3-9.3-2.2q-0.6-0.3-1.2-0.7-1.8-1-3.5-2.1-0.5-0.3-1-0.6-2.3-1.4-4.7-2.9c-3-1.9-6-3.8-9.1-5.6q-0.9-0.6-1.8-1.1-1.4-0.9-2.8-1.7-4.2-2.6-8.5-5.2-0.7-0.4-1.4-0.9-1.4-0.8-2.8-1.6-3.6-2.2-7.1-4.4-1.5-0.9-2.9-1.8c-0.7-0.4-0.7-0.4-1.5-0.8-25.1-15.3-25.1-15.3-50.3-30.7q-0.7-0.4-1.4-0.8-1.5-0.9-2.9-1.8-3.6-2.1-7.1-4.3-9.4-5.7-18.7-11.5-2.7-1.6-5.5-3.3c-6.1-3.6-10.5-7.6-12.3-14.7-1-5.1-0.8-10.1-0.8-15.3q0-1.6 0-3.2 0-4.3 0-8.7 0-4.7 0-9.4 0-8.7 0-17.4 0-8.1 0-16.1 0-0.5 0-1.1 0-2.2 0-4.3 0-20.3 0-40.7 0-18 0-36 0-20.3 0-40.6 0-2.2 0-4.3 0-0.6 0-1.1 0-8 0-16.1 0-9.1 0-18.2 0-4.7 0-9.4 0-4.2 0-8.5 0-1.5 0-3.1 0-2.1 0-4.2 0-0.6 0-1.2c0-3.5 0.2-7.1 2.2-10 1.9-1.2 2.6-1.3 4.9-0.9z"/>
	<path fill-rule="evenodd" class="s0" d="m711 2432.5c3.4 1.5 6.6 3.4 9.7 5.4q1.4 0.8 2.8 1.7 0.7 0.5 1.4 0.9 4.2 2.6 8.4 5.1 0.9 0.6 1.8 1.1 1.8 1.1 3.6 2.2 4 2.4 7.9 4.8 2.2 1.3 4.4 2.7 0.4 0.2 0.9 0.5 2.6 1.6 5.3 3.2 10.7 6.5 21.4 13 2.9 1.8 5.7 3.5 1.4 0.9 2.9 1.8 3.6 2.1 7.1 4.3 3.6 2.2 7.2 4.4 1.5 0.9 3.1 1.9c20.7 12.5 20.7 12.5 29.9 20 0.7 0.5 0.7 0.5 1.4 1.1 8.4 6.7 16.5 14.4 23.1 22.9 0.6 0.7 0.6 0.7 1.2 1.4 5.7 7.2 10.4 15.2 14.3 23.6q0.2 0.5 0.4 0.9c10.2 21.5 12.2 44.6 12.2 68q0 2 0 3.9 0 4.6 0 9.2 0 3.8 0 7.6 0 10.7 0 21.4c0 0.6 0 0.6 0 1.2q0 0.6 0 1.2 0 9.3 0 18.6 0 9.7 0 19.3 0 5.4 0 10.8 0 5 0 10.1 0 1.9 0 3.7c0.1 39.2 0.1 39.2-11.6 51.7-6.1 5.5-12.7 6.8-20.7 6.6-15.5-0.9-29.9-9.4-42.8-17.2q-0.4-0.3-0.9-0.5-5.7-3.5-11.4-7-3.1-1.9-6.2-3.7-2.8-1.7-5.6-3.4-3.6-2.2-7.2-4.4-1.4-0.9-2.8-1.8c-0.7-0.4-0.7-0.4-1.5-0.8q-13.6-8.3-27.3-16.7-0.7-0.4-1.4-0.8-1.5-0.9-2.9-1.8-3.6-2.1-7.1-4.3-7.4-4.5-14.7-9-1.3-0.8-2.5-1.5-2.2-1.4-4.5-2.8-0.8-0.5-1.5-0.9c-0.8-0.5-0.8-0.5-1.5-0.9q-0.6-0.4-1.3-0.9c-4.6-3.2-7.2-7.8-8.2-13.3-0.1-1.5-0.1-3.1-0.1-4.6 0-0.7 0-0.7 0-1.4q0-2.2 0-4.5 0-1.6 0-3.3 0-4.4 0-8.9 0-4.9 0-9.7-0.1-9.5-0.1-19 0.1-7.7 0-15.4 0-1.1 0-2.3 0-1.6 0-3.3 0-15.5 0-31 0-0.6 0-1.2 0-3 0-5.9 0-0.6 0-1.2 0-1.2 0-2.4 0-18.6 0-37.1 0-20.8 0-41.7 0-2.2 0-4.4c0-0.5 0-0.5 0-1.1q0-8.3 0-16.5 0-9.4 0-18.8 0-4.8 0-9.6 0-4.4 0-8.7 0-1.6 0-3.2 0-2.2 0-4.3 0-0.6 0-1.3c0-2.9 0.6-4.9 2.5-7.2 1.8-0.8 3.4-0.5 5.2 0zm60 111.5q-0.3 25-0.4 50 0 3 0 5.9 0 0.6 0 1.2-0.1 9.5-0.2 19-0.1 9.8-0.2 19.6 0 6-0.1 12 0 4.6 0 9.2 0 1.9-0.1 3.8c-0.4 6.2-0.4 6.2 1.8 11.8 1.9 1.6 3.9 2.7 6.2 3.6 1.4 0.6 2.6 1.4 3.9 2.2q1.3 0.8 2.6 1.6 1.5 0.9 3 1.8 0.7 0.4 1.5 0.9 2.3 1.4 4.5 2.8c10.1 7.2 10.1 7.2 21.5 10.1 2.4-1.3 3.1-3 4-5.5 0.5-2.4 0.6-4.8 0.6-7.2q0-0.7 0-1.3 0-2.1 0-4.2 0-1.5 0-3 0-4.2 0-8.3 0-2.5 0-5.1 0-8 0-16.1 0-9.3 0-18.5 0.1-7.2 0.1-14.4 0-4.3 0-8.5 0-4.1 0-8.1 0-1.5 0-2.9c0-7.1-0.1-14.2-3.5-20.6q-0.2-0.5-0.5-1c-3.1-5.6-8-8.8-13.4-12q-3.6-2.1-7.1-4.3-1.3-0.8-2.7-1.7-4.6-2.7-9.2-5.6-0.4-0.2-0.9-0.5-2.1-1.3-4.2-2.7-0.8-0.4-1.6-0.9-0.6-0.4-1.3-0.8c-1.4-0.9-2.8-1.6-4.3-2.3z"/>
	<path class="s0" d="m1810.6 2450.2q1.7 1 3.4 1.9 0.9 0.5 1.8 1 4.1 2.2 8.3 4.4 6.9 3.8 13.9 7.5 3.5 2 7.1 3.9 1.3 0.7 2.7 1.4 1.7 0.9 3.3 1.8c8.7 4.6 8.7 4.6 9.9 7.9 0 2.4-0.5 4-2.1 5.7-3.5 3.1-7.9 5.2-11.9 7.6q-0.8 0.4-1.6 0.9-6.5 3.7-13 7.5-5.5 3.1-10.9 6.3-7.1 4.1-14.1 8.2-6.2 3.6-12.4 7.2-4 2.3-8 4.6-0.4 0.3-0.9 0.5-2.1 1.3-4.2 2.5-4.3 2.4-8.4 5c6.7 3.8 13.5 7.4 20.3 11.1q7 3.7 14 7.5 2.2 1.2 4.4 2.3 1.3 0.8 2.7 1.5 1.6 0.9 3.3 1.8 0.8 0.4 1.6 0.8 0.7 0.4 1.4 0.8 1.7 0.9 3.3 1.9c1.8 0.9 2.1 0.8 4 0.3 1.3-0.6 1.3-0.6 2.7-1.4q0.7-0.5 1.5-1 0.9-0.4 1.7-0.9 0.9-0.6 1.8-1.1 1.8-1 3.6-2.1 3.1-1.8 6.2-3.6 1.5-0.9 3-1.8 5.5-3.2 11-6.3 9.3-5.4 18.5-10.8 11.8-6.9 23.6-13.7 1.9-1.1 3.8-2.2c7.2-4.3 13.9-6.5 22.3-4.7 5.3 1.6 10 4.6 14.7 7.2q3.8 2.1 7.6 4.1 2.2 1.2 4.5 2.4 0.4 0.2 0.9 0.5 5.4 2.9 10.8 5.8 3.7 2 7.5 4 1.3 0.7 2.6 1.4 1.7 0.9 3.4 1.8c7.6 4.1 7.6 4.1 9.8 7.4 0.3 1.8 0.3 2.9-0.6 4.5-3.7 4.6-9.5 7.2-14.5 10q-1.7 1-3.5 2-0.4 0.3-0.8 0.5-4.3 2.5-8.6 5-6.2 3.6-12.5 7.3-9.3 5.3-18.5 10.7-10.1 5.9-20.1 11.7-5.5 3.1-10.9 6.3-7.1 4.1-14.1 8.2-5.5 3.1-10.9 6.3-6.2 3.6-12.5 7.3-9.3 5.3-18.5 10.7-10.1 5.9-20.1 11.7-5.5 3.1-10.9 6.3-7.1 4.1-14.1 8.2-5.5 3.1-10.9 6.3-6.2 3.6-12.5 7.3-6.3 3.6-12.6 7.2c-0.7 0.5-0.7 0.5-1.4 0.9q-3.8 2.2-7.6 4.4-3.8 2.2-7.5 4.4-2 1.1-3.9 2.3c-7.2 4.3-14.5 6.8-23 4.7-4.7-1.5-9.1-4.3-13.5-6.7q-1.3-0.7-2.7-1.5-2.7-1.4-5.4-2.9-4.9-2.7-9.8-5.3-8.9-4.8-17.8-9.6-1.9-1-3.7-2-1.1-0.6-2.2-1.2-0.5-0.2-0.9-0.5c-2.7-1.4-4.5-3.1-5.5-6 0-2.1 0.6-3.4 2-5 4-3.7 9.2-6.1 13.9-8.8q4.5-2.5 9-5.1 6.3-3.7 12.6-7.3 9.3-5.4 18.5-10.8 10.2-5.9 20.4-11.8 6.6-3.8 13.1-7.7-11.1-6.1-22.3-12.1-10.7-5.7-21.3-11.5-0.7-0.4-1.5-0.8-0.7-0.3-1.4-0.7-0.6-0.4-1.3-0.7-1.6-0.9-3.1-1.9c-1.8-0.9-2.2-0.9-4.1-0.3q-1.5 0.7-2.9 1.6-0.8 0.4-1.7 0.9-0.9 0.6-1.8 1.1-1 0.5-1.9 1.1-2.9 1.6-5.7 3.3-0.8 0.5-1.6 0.9-3.7 2.2-7.4 4.4-4.7 2.7-9.5 5.5-6.3 3.6-12.5 7.2-7.1 4.1-14.1 8.2-4.9 2.8-9.7 5.6-3.6 2.1-7.2 4.2-0.6 0.3-1.2 0.7c-6 3.5-11.3 6.4-18.3 6.5q-0.6 0-1.1 0c-6.1 0.1-11.4-3.1-16.5-5.9q-1.7-1-3.4-1.9-0.9-0.5-1.8-1-4.1-2.2-8.2-4.4-1.6-0.9-3.2-1.7-0.9-0.5-1.7-0.9-2.4-1.3-4.8-2.6c-0.9-0.5-0.9-0.5-1.7-0.9q-1.6-0.9-3.2-1.8-3.8-2-7.6-4-1.3-0.7-2.6-1.4-1.7-0.9-3.4-1.8c-7.3-3.8-7.3-3.8-8.8-6.9-0.2-1.6 0-2.9 0.5-4.5 3.1-3.7 7.4-6 11.6-8.3q0.9-0.6 1.8-1.1 1.4-0.8 2.9-1.6 4.4-2.4 8.8-5 6.2-3.7 12.4-7.2 6.3-3.7 12.5-7.3 7.1-4.1 14.1-8.2 5.5-3.1 10.9-6.3 6.2-3.6 12.5-7.2 9.3-5.4 18.5-10.8 10.1-5.9 20.1-11.7 5.5-3.1 10.9-6.3 7.1-4.1 14.1-8.2 5.5-3.1 10.9-6.3 6.2-3.6 12.5-7.2 9.3-5.4 18.5-10.8 10.1-5.9 20.1-11.7 5.5-3.1 10.9-6.3 7.1-4.2 14.3-8.3 3.7-2.1 7.4-4.3c12.8-7.7 22.3-7.4 35.4-0.2z"/>
	<path fill-rule="evenodd" class="s0" d="m2789 2447.5c3 1.4 4.3 5 5.4 8q1.2 3.6 2.4 7.2 1.1 3.5 2.3 7 0.2 0.8 0.5 1.5 2.3 7.2 4.8 14.3 0.9 2.5 1.8 5.1 0.2 0.6 0.4 1.3 1.7 5.1 3.5 10.2 0.2 0.8 0.5 1.6 1.4 4 2.7 8 2.6 7.5 5.2 14.9c4.1 12.1 7.9 24.1 10.7 36.5q0.1 0.8 0.3 1.6 0.6 2.6 1 5.3 0.1 0.5 0.2 1.1c1.8 10.9 1.5 21.9 1.6 32.9q0 4.2 0 8.4 0 8 0 15.9 0.1 9 0.1 18c0.1 20.9 0.1 20.9 0.1 31q0 1.4 0 2.8 0 0.7 0 1.4 0 3.9 0 7.7 0 2.3 0.1 4.5 0 1.5 0 3c0 7.8-0.6 15.4-5.8 21.6-5 4.8-11.6 7.9-17.5 11.3q-6.4 3.7-12.7 7.6-7.4 4.5-14.7 8.9-1.1 0.6-2.2 1.3-1.5 0.8-2.9 1.7-0.5 0.3-0.9 0.6c-3 1.7-5.5 2.9-8.9 2.3-1.6-0.9-2.3-1.6-3.1-3.2-0.6-2.6-0.6-5.2-0.6-7.8q0-0.9 0-1.9-0.1-2.4-0.1-4.9 0-2.6-0.1-5.2-0.1-4.9-0.1-9.8-0.1-5.6-0.2-11.2-0.1-11.5-0.3-23-3.2 1.9-6.5 3.8-1 0.7-2.1 1.3-7.2 4.3-14.4 8.6-8.7 5.4-17.5 10.5-1 0.6-2 1.2-0.4 0.2-0.9 0.5-3.6 2.2-7.1 4.5c-1 0.6-1 0.6-2 0.6 0 0.5 0 0.5 0 1q0.1 11.8 0.1 23.7 0 5.7 0.1 11.5 0 5 0 10 0 2.6 0 5.3 0 2.9 0 5.9 0 0.8 0 1.7c0 6.2-1.6 12.2-6 16.7-2.7 2.4-5.6 4.3-8.7 6.1q-0.8 0.4-1.6 0.9-1.8 1.1-3.5 2.1-4.4 2.6-8.8 5.2-1.5 0.9-3 1.8-7.8 4.6-15.4 9.3c-12.2 7.4-12.2 7.4-16.7 6.8-1.9-1.3-2.4-2.8-3-5-0.1-1.6-0.1-1.6-0.2-3.5q0-0.5 0-1 0-1.7 0-3.4 0-1.3 0-2.5-0.1-3.5-0.1-7 0-2.2 0-4.4c-0.2-19.9-0.3-39.8-0.3-59.6q0-4.3 0-8.6 0-5.3 0-10.6 0-2.7 0-5.4c-0.1-12 0.5-23.9 2.3-35.8q0.1-0.6 0.2-1.3c3.6-22.8 9.3-45.1 14.7-67.5q3-12.3 5.9-24.5 0.6-2.5 1.2-5 0.1-0.5 0.2-1 0.4-1.6 0.8-3.1 0.1-0.5 0.2-1 0.9-3.5 1.7-7 0.1-0.5 0.2-1 2.8-11.4 5.5-22.9 1.2-4.8 2.3-9.6 0.7-2.8 1.4-5.7 0.3-1.2 0.6-2.5c2.5-10.9 6.5-20.3 16.2-26.4q1.7-0.9 3.3-1.9 2.5-1.4 5-2.9 3.1-1.9 6.1-3.7 6.7-3.9 13.3-8 8-4.8 16-9.6 7-4.1 14-8.4 7.2-4.3 14.4-8.7 1.1-0.6 2.1-1.2c12.9-7.8 12.9-7.8 18.5-6.8zm-52.5 107.5q-0.6 0.3-1.2 0.7c-5.2 3.2-7.2 7.6-8.7 13.4q-0.6 2.6-1.1 5.2-0.2 1-0.4 2-0.5 2.7-1 5.4-0.6 2.8-1.1 5.7-1 4.7-1.9 9.4-1.1 5.5-2.2 11-1 5.3-2.1 10.5-0.4 2.3-0.9 4.5-0.5 2.6-1 5.3-0.3 1.4-0.6 2.8-0.1 0.9-0.3 1.8-0.1 0.7-0.3 1.4c-0.2 1.4-0.2 2.6-0.2 3.9 2.1-0.8 3.9-1.8 5.8-2.9q0.4-0.3 0.9-0.5 1.5-1 3.1-1.9 1.1-0.6 2.1-1.3 9.5-5.6 18.8-11.3 4.4-2.7 8.7-5.3 2.3-1.4 4.5-2.7 1.3-0.8 2.6-1.6c-1.5-6.4-3.1-12.8-4.8-19.2-0.1-0.7-0.1-0.7-0.3-1.4q-1.1-3.9-2.1-7.8-0.8-3.2-1.6-6.4-1-3.8-2.1-7.7-0.3-1.5-0.7-3-0.6-2-1.1-4.1c-0.2-0.6-0.2-0.6-0.3-1.2-0.7-2.5-1.6-4.5-3-6.7-2.9-1.3-5.1 0.4-7.5 2z"/>
	<path class="s0" d="m916.7 2558.2c2.9 0.6 5.3 2.3 7.8 3.8q0.6 0.4 1.2 0.7 4.4 2.7 8.8 5.4 3.6 2.2 7.2 4.4 1.5 0.9 2.9 1.7 2.9 1.8 5.8 3.6 2.9 1.7 5.8 3.5 2.8 1.7 5.7 3.4c13.8 8.3 13.8 8.3 16.3 16.9 0.9 4.5 0.9 8.9 0.9 13.4q0 1.2 0 2.3 0 2.5 0 5 0 4 0 8 0 5.9 0 11.7 0 9.3 0 18.6 0 3.1 0 6.3 0 0.8 0 1.6 0 9 0 18 0 0.8 0 1.7 0.1 13.3 0.1 26.7 0 13.7 0 27.4 0 8.5 0 16.9 0 5.8 0 11.6 0 3.3 0 6.7 0 3 0 6.1 0 1.1 0 2.2c0 9 2.7 16.3 9 22.7 7.5 7.4 21 17.8 32 18.2 2 0 2.6-0.1 4.3-1.3 1.7-2.4 2.1-4.7 2.1-7.7 0-0.9 0-0.9 0-1.9q0-1.1 0-2.2 0-1.1 0-2.3 0-3.1 0-6.3 0-3.4 0-6.7 0.1-5.9 0.1-11.8 0-8.5 0-17.1 0-13.8 0-27.6 0-0.8 0-1.7 0-9.2 0-18.4 0-3.4 0-6.7 0-0.9 0-1.7 0-13.8 0.1-27.5 0-8.5 0-17 0-5.9 0-11.7 0-3.3 0-6.7 0-3.1 0-6.1 0-1.2 0-2.3c0-8.1 0-8.1 1.7-11.5 2.1-1.4 3.6-1.3 6-1 3.9 1.5 7.4 3.9 10.9 6.1q1.8 1.1 3.5 2.2c0.5 0.3 0.5 0.3 0.9 0.5q4.8 3 9.6 5.9 0.9 0.5 1.8 1.1 4.1 2.4 8.1 4.9 1.9 1.1 3.8 2.3 1.3 0.8 2.6 1.6c14.5 8.8 14.5 8.8 17.4 17.2 1.1 4.5 1 9.1 1 13.7q0 1.2 0 2.5 0 3.4 0 6.7 0 3.7 0 7.3 0 7.2 0 14.3 0 5.8 0 11.7 0 16.5 0 33c0 0.9 0 0.9 0 1.8q0 0.9 0 1.8 0 14.4 0 28.8 0 14.8 0 29.6 0 8.4 0 16.7 0 7.1 0 14.1 0 3.6 0 7.2c0.1 41.8 0.1 41.8-10.9 53.7-5.6 5.2-12.9 7.2-20.4 6.9-21.1-1.6-40.5-12.4-58.3-23.1q-1.2-0.7-2.3-1.4c-12.2-7.3-23.9-15.3-34.8-24.4q-1.9-1.5-3.7-3c-5-4-9.6-8.5-14.1-13q-1.1-1.1-2.1-2.1c-3.1-3.1-5.8-6.2-8.5-9.6q-0.4-0.5-0.9-1.1c-19.1-23.9-27.7-52.1-27.7-82.5q0-1.3 0-2.5 0-3.5 0-7 0-3.7 0-7.5 0-8.2 0-16.4 0-5.1 0-10.2 0-14.2 0-28.3 0-0.9 0-1.9 0-0.9 0-1.8 0-1.8 0-3.7 0-0.9 0-1.8 0-14.8 0-29.6-0.1-15.2-0.1-30.4 0-8.5 0-17.1 0-7.2 0-14.5 0-3.7 0-7.4 0-3.4 0-6.8 0-1.2 0-2.4c0-9.4 0-9.4 2.4-12.4 1.2-1 2.4-1 4-1z"/>
	<path class="s0" d="m2560.5 2583.5c1.8 1.2 2.3 2.5 3 4.5 0.2 1.2 0.2 1.2 0.2 2.5 0 0.8 0 0.8 0.1 1.6q0 0.8 0 1.7 0 0.9 0.1 1.9c0.2 10.2 0.2 20.5 0.2 30.8q0 4.8 0 9.6 0 11.1 0 22.2 0 5.5 0 10.9 0 18.8 0 37.6 0 1.2 0 2.4 0 1.2 0 2.3 0 2.4 0 4.8c0 0.6 0 0.6 0 1.2q0 19 0 38 0.1 20.2 0.1 40.4 0 2.2 0 4.4 0 0.5 0 1.1 0 8.8 0 17.5 0 8.8 0 17.6 0 4.8 0 9.5 0 4.4 0 8.7 0 1.6 0 3.2c0 7.7 0 15.2-5.7 21.2-3 2.8-6.2 4.9-9.8 6.9q-1.9 1.1-3.8 2.2-1 0.5-2 1.1c-3.3 1.9-6.5 3.9-9.8 5.9q-7.7 4.7-15.5 9.3c-0.5 0.3-0.5 0.3-1 0.6q-2.8 1.7-5.7 3.4-1.4 0.8-2.8 1.7-1 0.5-1.9 1.1-0.8 0.4-1.7 0.9c-2.2 1.1-4.1 1.4-6.5 0.8-2-1.3-2.4-2.8-3-5-0.1-1.4-0.1-1.4-0.1-2.9q0-0.8-0.1-1.7 0-0.9 0-1.9 0-0.9 0-1.9 0-2.7 0-5.4 0-2.9 0-5.7-0.1-4.9-0.1-9.7 0-6.7-0.1-13.3-0.1-26.8-0.1-53.5c-7.7 4.5-15.5 9.1-23.1 13.7q-8 4.9-16 9.6c-0.5 0.3-0.5 0.3-1 0.6q-1.3 0.7-2.6 1.5-0.4 0.3-0.8 0.6c-1 0.5-1 0.5-2.3 0.9-1.6 0.7-2.5 1.3-3.7 2.6-0.8 3.1-0.6 6.1-0.6 9.2q0 1.5 0 2.9 0 3.1 0 6.2 0.1 4.9 0.1 9.7 0 7.8 0 15.5 0.1 13.8 0.1 27.6 0 4.9 0.1 9.7 0 3.1 0 6.1 0 1.4 0 2.8c0.1 7-0.2 13.4-5.2 18.8q-0.3 0.4-0.7 0.8c-2.8 3.1-6.5 5-10.1 7.1q-1.7 1-3.3 1.9-1.1 0.7-2.2 1.3-5.2 3.1-10.3 6.2-8.1 5-16.4 9.8c-3.4 1.9-3.4 1.9-6.8 4q-0.4 0.3-0.8 0.6-1.2 0.7-2.4 1.5c-2.8 1.5-4.9 2.1-8 1.3-2-1.4-2.6-3.2-3-5.5-0.1-1.8-0.1-3.6-0.1-5.4q0-0.8 0-1.7-0.1-2.7-0.1-5.4 0-2 0-4 0-4.8 0-9.7 0-5.7 0-11.5-0.1-11.9-0.1-23.8 0-9.1 0-18.2-0.1-27.8-0.2-55.7 0-18.6-0.1-37.3 0-19.7 0-39.3 0-2 0-4.1 0-0.5 0-1-0.1-7.5-0.1-15 0-8.4 0-16.9 0-4.3 0-8.5 0-3.9 0-7.8 0-1.4 0-2.8c-0.1-7.2 0.1-15.2 5.2-20.9q0.3-0.4 0.7-0.8c2.6-2.8 5.7-4.6 9-6.6q0.9-0.5 1.9-1.1 2.4-1.4 4.9-2.9 2.5-1.5 5-3 3-1.8 6-3.5 6.8-4.1 13.5-8.2c15.7-9.5 15.7-9.5 20-8.9 1.5 1 2.2 1.7 2.8 3.4 1 4.3 0.9 8.7 0.9 13.1q0 1.3 0 2.7 0 3.6 0 7.3 0 3.8 0 7.6 0.1 7.3 0.1 14.5 0 8.3 0.1 16.5 0 16.9 0.1 33.9 3.2-1.9 6.5-3.8 1-0.7 2.1-1.3 7.2-4.3 14.4-8.7 8.8-5.3 17.8-10.6 0.4-0.3 1-0.6 1.3-0.8 2.6-1.5 0.8-0.5 1.6-1c0.8-0.4 0.8-0.4 1.6-0.8 1.6-1.1 1.6-1.1 1.8-2.9q0-1 0-2.1 0-0.6 0-1.1 0-2 0-3.9 0-1.4 0-2.8 0-3 0-5.9-0.1-4.7 0-9.5 0-7.4 0-14.9-0.1-13.3-0.1-26.7 0.1-4.7 0-9.4 0-2.9 0-5.8 0-1.4 0-2.7c0-8.3 0.9-15.1 6.6-21.4 1.7-1.7 3.5-2.8 5.6-4q0.7-0.4 1.3-0.8 2.4-1.4 4.7-2.8 1.8-1.1 3.7-2.2 4.6-2.7 9.1-5.4 5.3-3.1 10.6-6.3 1-0.6 2-1.2 6.9-4.1 13.8-8.2c0.5-0.3 0.5-0.3 1.1-0.7q0.4-0.3 0.9-0.5c2.2-1.3 4.3-1.3 6.8-1z"/>
	<path class="s0" d="m1193 2725.5q0.7 0.4 1.5 0.9 4.3 2.6 8.6 5.2 3.6 2.2 7.2 4.4 1.4 0.9 2.8 1.7 0.7 0.5 1.5 0.9 13.6 8.3 27.3 16.6 0.7 0.5 1.4 0.9 1.4 0.9 2.9 1.8 3.7 2.2 7.4 4.5c16.8 10.1 16.8 10.1 19.4 18.6 0.4 1.7 0.6 3.2 0.6 5 0 0.7 0 0.7 0 1.4q0 0.8 0 1.6 0 0.9 0 1.7 0 2.8 0 5.6 0 0.9 0 1.9 0 4.5 0 9 0.1 5.2 0.1 10.4 0 4.5 0 9 0 1.9 0 3.8 0 2.7 0 5.4c0 0.7 0 0.7 0.1 1.5-0.1 3.2-0.4 6.3-2.8 8.7-3.1 0.6-5.3 0-8.1-1.5q-0.8-0.5-1.7-1-3.9-2.3-7.7-4.7-1.7-1-3.5-2.1-0.4-0.3-0.8-0.6-4.8-2.9-9.6-5.8-0.9-0.6-1.8-1.1-1.8-1.1-3.5-2.1-4-2.4-7.9-4.8-1.3-0.8-2.6-1.6-4.1-2.5-8.2-4.9-1.9-1.2-3.8-2.3-0.8-0.6-1.7-1.1-2.1-1.3-4.1-2.5-1.5-0.9-2.9-1.8c-3.6-2.2-7.2-4.1-11.6-4.1-2 0.7-2.7 1.3-4 3-2.2 4.6-1.7 9.8-1.7 14.7q0 1.5 0 3 0 3.9 0 7.9 0 3.4 0 6.7 0 7.9 0 15.8 0 8.1 0 16.2-0.1 7 0 14 0 4.1-0.1 8.3 0 3.9 0 7.8 0 1.5 0 2.9c0 9.8 1.5 19.2 8.6 26.6 4.1 3.8 8.9 6.8 13.8 9.6q1.4 0.9 2.7 1.7 1 0.6 1.9 1.1 4.7 2.8 9.3 5.7 6.7 4.1 13.4 8.2 0.5 0.3 0.9 0.5 4 2.5 8.1 4.9 0.9 0.6 1.8 1.1c0.5 0.3 0.5 0.3 0.9 0.6q4 2.4 7.9 4.8 2 1.2 4 2.4c6.7 4.1 11.7 7.9 14 15.7 0.7 2.7 0.6 5.2 0.6 7.9 0 0.9 0 0.9 0 1.7q0.1 2.7 0.1 5.4 0 1.9 0 3.8 0 4 0 8 0 4.5 0 9.1 0 4.4 0 8.8 0 1.9 0 3.8 0 2.6 0 5.2 0 0.8 0 1.6c0 3.3-0.3 6.1-2.7 8.5-3.1 0.9-5.9-0.2-8.7-1.6q-1.7-1.1-3.5-2.2-1.4-0.9-2.8-1.8-0.7-0.4-1.4-0.9-3.8-2.3-7.5-4.6-1.3-0.8-2.7-1.6-1.8-1.1-3.6-2.2-4-2.4-7.9-4.8-2.2-1.3-4.4-2.7c-0.4-0.2-0.4-0.2-0.9-0.5q-3.1-1.9-6.2-3.8-4.4-2.6-8.8-5.3-1.5-1-3.1-1.9-5-3.1-10-6.1-0.8-0.5-1.7-1-2.1-1.3-4.3-2.7-1.2-0.7-2.4-1.5c-10.5-6.4-20.5-13.5-29.5-21.8q-1.6-1.4-3.1-2.8c-3.6-3.1-6.9-6.5-10-10.2q-0.3-0.4-0.6-0.7c-14.8-17.7-24.2-38.3-28.3-61q-0.1-0.8-0.3-1.6c-1.8-10.6-1.9-21.3-1.9-32.1q0-2 0-4 0-4.8 0-9.7 0-3.9 0-7.8 0-0.6 0-1.2 0-1.1 0-2.3 0-10.7 0-21.4 0-9.2 0-18.3 0-10.7 0-21.4 0-1.1 0-2.3c0-0.5 0-0.5 0-1.1q0-3.9 0-7.9 0-4.7 0-9.5 0-2.5 0-4.9c-0.1-16.6 0-36.3 12-49.2 17.6-17.2 47.1 1 63.6 10.9z"/>
	<path class="s0" d="m2350.5 2709.5c2.1 1.7 2.6 3.9 3 6.5 0.1 1.9 0.1 3.8 0.1 5.8 0 0.8 0 0.8 0 1.7q0.1 2.8 0.1 5.6 0 1.9 0 3.9 0 4.1 0 8.2 0 4.7 0 9.4 0 4.5 0 9.1 0 1.9 0 3.8 0 2.7 0 5.4 0 0.8 0 1.6c0 6.7-1.6 12.6-6.1 17.8-3 2.7-6.6 4.6-10.1 6.7q-0.8 0.5-1.7 1-4 2.4-8 4.8-6.7 3.9-13.4 8-7.1 4.3-14.3 8.5c-12.4 7-12.4 7-24.1 15.2q-0.6 0.5-1.2 1c-6.1 5-9.8 12.2-10.8 20-0.3 3.5-0.2 7.1-0.2 10.7q0 1.6 0 3.2 0 4.3 0 8.6 0 4.5 0 9.1 0 7.6 0 15.2 0 8.8 0 17.6 0 7.5 0 15.1 0 4.5 0 9 0 4.2 0 8.5 0 1.5 0 3.1 0 2.1 0 4.2c0 0.6 0 0.6 0 1.2 0 3.5 0.7 6.9 2.5 9.8 1.9 1.1 3.5 1.3 5.7 1.2 5-1.3 9.2-3.6 13.5-6.4q1.4-0.8 2.8-1.7 0.9-0.6 1.9-1.2c3-1.8 6.1-3.6 9.1-5.4q8.1-4.7 16-9.5 8.2-5 16.6-10c0.4-0.2 0.4-0.2 0.9-0.5q1-0.6 1.9-1.1 2.4-1.5 4.8-3 0.5-0.3 1.1-0.6 0.9-0.6 1.9-1.2c2.4-1.4 4.7-2.4 7.5-1.9 1.6 0.9 2.2 1.5 3.1 3.1 1 3.7 1 7.5 1 11.3 0 0.7 0 0.7 0 1.5q0 2.6 0 5.1 0 1.8 0 3.6 0 3.7 0 7.5 0 4.7 0 9.5 0 3.7 0 7.4 0 1.7 0 3.5 0 2.5 0 4.9 0 0.7 0 1.5c0 7.7-1.5 14.6-7.1 20.1q-1.6 1.1-3.2 2.1-0.4 0.3-0.9 0.6c-3.1 2-6.3 3.8-9.5 5.7q-2.6 1.6-5.2 3.1-0.5 0.3-1.1 0.7-5.1 3-10.1 6-8 4.9-16 9.7-6.6 3.8-13.1 7.8c-51 31.1-51 31.1-70.1 26.7-7.9-2.3-13.2-7.2-17.1-14.3-5.8-11.7-6.8-25.1-6.8-37.9q0-1.3 0-2.6 0-3.6-0.1-7.1 0-3.8 0-7.6 0-8.2-0.1-16.3 0-5 0-10.1-0.1-20.2-0.2-40.4 0-4.4 0-8.9-0.1-11-0.1-21.9 0-2.9 0-5.8c-0.1-13.2 0-26.5 2.2-39.6q0.1-0.5 0.2-1c1.1-6.8 2.7-13.3 4.7-19.9q0.2-0.6 0.4-1.3c7-23 22.4-45.3 41.3-60.2 1.4-1.1 2.7-2.2 4-3.3 10.3-8.6 22.1-15.2 33.7-22.1q6.6-3.9 13.1-7.8 8-4.9 16-9.7 7.1-4.2 14.2-8.4 7.1-4.4 14.3-8.7 0.4-0.2 0.9-0.5 1.2-0.7 2.4-1.5 0.7-0.4 1.5-0.8c2.8-1.6 4.9-2.2 8.2-1.7z"/>
	<path fill-rule="evenodd" class="s0" d="m1347.5 2819.5q0.6 0.3 1.2 0.7 3.2 2 6.4 4 4.9 3 9.8 6 0.9 0.6 1.8 1.1 1.4 0.8 2.7 1.6 4.3 2.6 8.5 5.2c0.7 0.4 0.7 0.4 1.4 0.9q1.4 0.8 2.8 1.6 3.6 2.2 7.1 4.4 1.5 0.9 2.9 1.7 0.7 0.5 1.5 0.9 2.1 1.3 4.3 2.6 0.7 0.5 1.4 0.9 1.4 0.9 2.9 1.8 3.7 2.2 7.3 4.4 4.3 2.6 8.5 5.2 0.5 0.3 1.1 0.7c9.8 5.9 15.8 12.8 18.6 24.1q0.2 0.8 0.4 1.7 0.7 2.7 1.4 5.5 0.2 1 0.5 2 1.8 7.2 3.6 14.4 1.3 5.3 2.6 10.6 0.3 1.4 0.7 2.8 2.8 11.5 5.6 22.9 0.7 2.7 1.4 5.4 0.2 0.8 0.4 1.8 0.5 1.8 0.9 3.6 1.1 4.4 2.2 8.7c2.9 11.8 5.8 23.7 8.6 35.5 0.2 0.7 0.2 0.7 0.4 1.4q2.3 10.2 4.3 20.4 0.1 0.5 0.3 1.1 0.7 3.7 1.3 7.5 0.2 1.4 0.5 2.9c2.2 13.3 2 26.7 2 40.2q-0.1 4.4-0.1 8.8 0.1 8.8 0 17.6 0 8.5 0 17 0 10.3 0 20.6 0 3.9 0 7.8 0 4.6 0 9.2 0 1.7 0 3.4 0 2.3 0 4.6c0 0.7 0 0.7 0 1.4 0 3-0.5 5.2-2.7 7.4-2.8 0.8-5.1 0.1-7.6-1.3q-2.7-1.5-5.4-3.2-1.3-0.8-2.7-1.6-3.6-2.2-7.3-4.5-3.6-2.2-7.3-4.4-1.4-0.9-2.8-1.7-2.9-1.8-5.9-3.6c-4.4-2.7-8.9-5.4-13.3-8.2q-0.4-0.3-1-0.6c-6.2-4.1-9.5-8.5-11.2-15.9-0.2-2.1-0.3-4.1-0.2-6.2q0-0.9 0-1.8 0-2.9 0-5.8 0-2 0-4 0-4.7 0.1-9.4 0-5.4 0-10.7 0-11.1 0.1-22.1-0.6-0.2-1.2-0.5c-1.3-0.5-2.4-1.1-3.6-1.8q-0.6-0.4-1.3-0.8-0.7-0.4-1.4-0.8-0.7-0.4-1.5-0.9-5.4-3.3-10.8-6.6c-5-3.1-10-6.1-15-9.1q-5.3-3.3-10.7-6.5c-0.4-0.3-0.4-0.3-0.9-0.6q-2.8-1.7-5.6-3.4 0 0.4 0 0.9 0.1 10.9 0.1 21.8 0 5.2 0 10.5 0 5.1 0 10.2 0 1.9 0.1 3.8 0 2.8 0 5.5 0 0.8 0 1.6c0 3.1-0.3 5.4-1.7 8.2-2 1.4-3.6 1.3-6 1-1.5-0.5-2.8-1.3-4.1-2.1q-0.6-0.3-1.2-0.7-1.9-1.1-3.7-2.2-0.6-0.4-1.2-0.7-3.2-2-6.4-4-4.4-2.7-8.8-5.4-1.3-0.8-2.7-1.6-4.1-2.5-8.3-5-1.9-1.2-3.8-2.3-0.8-0.5-1.7-1.1c-10-5.9-10-5.9-12.6-10.1q-0.4-0.6-0.8-1.2c-1.8-3.8-2.4-7.5-2.4-11.6q0-0.7 0-1.5 0-2.4 0-4.8 0-1.7 0-3.4 0-4.7 0-9.4 0-3.9 0-7.9-0.1-9.8 0-19.6 0-8.5-0.1-17 0-8.7 0-17.4 0-4.9 0-9.8c-0.1-13.5-0.1-26.5 2.8-39.7q0.1-0.7 0.3-1.3 0.7-3.5 1.7-6.9 0.1-0.5 0.2-1c2.7-9.6 6-19 9.3-28.3q0.2-0.6 0.4-1.3 2.1-5.7 4.1-11.4 3.6-10.1 7.2-20.2 2.4-6.8 4.8-13.5 0.5-1.6 1-3.1 1.4-3.9 2.8-7.8 0.4-1.2 0.8-2.3 0.6-1.6 1.1-3.1 0.3-0.9 0.6-1.7c1.1-2.5 2.3-4.7 4.7-6.1 5.6-1.8 11 2.2 15.5 5zm26.4 94.8c-1.1 1.4-1.5 2.6-2 4.3-0.1 0.5-0.1 0.5-0.3 1q-0.6 2-1.1 3.9-0.2 0.8-0.5 1.7-1.8 6.6-3.7 13.2-0.6 2.2-1.2 4.4c-2.2 8.2-4.5 16.4-6.6 24.7q7.8 4.9 15.6 9.6 6.6 4 13.2 8.1 8 4.9 16.2 9.8c0.6-1.7 0.4-2.9 0.1-4.6q-0.2-0.8-0.3-1.6-0.2-0.9-0.4-1.8-0.2-0.9-0.4-1.8-0.5-2.5-1-5-0.6-2.7-1.1-5.3-0.9-4.4-1.8-8.9-1.1-5.1-2.1-10.2-1-4.9-2-9.8-0.4-2.1-0.9-4.2-0.6-2.9-1.2-5.8-0.1-0.9-0.3-1.7c-2-9.7-2-9.7-8.2-16.8-4.8-3.6-4.8-3.6-10-3.2z"/>
	<path class="s0" d="m2172.5 2816.5c2.5 2 2.6 5 3 8 0.1 1.8 0.1 3.7 0.1 5.5 0 0.8 0 0.8 0 1.6q0 2.5 0 5 0 1.8 0 3.6 0 3.7 0 7.5 0 4.7 0 9.5 0 3.6 0 7.3 0 1.8 0 3.5 0 2.5 0 4.9 0 0.8 0 1.5c0 7.3-1.4 13.8-6.6 19.2-2.2 2.2-4.8 3.7-7.5 5.3q-1.2 0.7-2.5 1.4-1.3 0.8-2.6 1.6-4.4 2.6-8.8 5.2-1.5 0.9-3.1 1.8-6.9 4.1-13.9 8.4-7 4.3-14.1 8.4-7.6 4.6-15.2 9.2-0.9 0.5-1.7 1-1.7 1-3.4 2.1-0.8 0.5-1.7 1-0.4 0.3-0.9 0.5-3.1 1.9-6.2 3.8-0.8 0.5-1.6 1-0.7 0.4-1.5 0.9-0.6 0.3-1.3 0.7c-1 0.6-1 0.6-2 0.6 0 10.2 0 20.5 0 31 7.5-4.4 14.9-8.7 22.3-13.2q7.6-4.6 15.2-9.1 5.5-3.3 11-6.6 0.4-0.3 0.9-0.6 2.3-1.4 4.5-2.8c8.7-5.3 8.7-5.3 12.1-4.7 1.5 0.8 2.3 1.5 2.9 3 1 3.2 1.3 6 1.3 9.3q0 0.8 0 1.5 0 2.5 0 5 0 1.7 0 3.5 0 3.6 0 7.2 0 4.7 0 9.3 0 3.6 0 7.2 0 1.7 0 3.4 0 2.4-0.1 4.8c0 0.7 0 0.7 0 1.4 0 6.5-1.6 12.5-6.1 17.4-2.9 2.8-6.3 4.8-9.8 6.8q-2.7 1.6-5.4 3.2-0.5 0.3-1.1 0.6-5.1 3-10.2 6.1-8.8 5.4-17.7 10.6-0.9 0.6-1.9 1.2c-1.9 1.2-3.9 2.2-6 3.1-7 2.9-7 2.9-11.8 8.3-1.7 5-1.1 10.5-0.8 15.7 0.1 2 0.2 4 0.2 6.1q0.1 5.9 0.5 11.8c7.7-4.6 15.4-9.1 23-13.8q8-4.8 16-9.6 7-4.1 14-8.3 8.6-5.3 17.4-10.5 0.4-0.2 0.9-0.5 1-0.6 1.9-1.1 2.4-1.5 4.8-2.9 0.5-0.3 1.1-0.7 0.9-0.5 1.9-1.1c5.7-3.5 5.7-3.5 9.2-3.5 2 0.8 3 1.7 3.8 3.7 0.7 2.5 0.6 5 0.6 7.5q0.1 0.9 0.1 1.8 0 2.8 0 5.7 0 1.5 0 3 0 4.6 0 9.3 0 4.8 0 9.6 0 4.1 0 8.3 0 2.4 0 4.9 0.1 2.7 0 5.5 0.1 0.8 0.1 1.6c-0.1 6.1-1.8 12-6.1 16.4-2.9 2.6-6.1 4.6-9.4 6.6q-1 0.5-1.9 1.1-2.9 1.7-5.9 3.5-1 0.6-2 1.2-4 2.4-8 4.8-6.6 3.8-13.1 7.8-7.5 4.6-15.1 9-7.1 4.1-14.1 8.4-7.1 4.3-14.2 8.6-7.5 4.4-15 9-8 4.8-16 9.6-6.8 3.9-13.4 8-6.9 4.2-13.7 8.3c-0.7 0.4-0.7 0.4-1.4 0.8-2.9 1.8-5.8 3.5-9.4 3.5-2.1-0.7-2.6-1.6-3.6-3.5-0.7-2-0.6-3.9-0.7-6q0-0.7 0-1.4 0-2.3-0.1-4.6 0-0.8 0-1.6c-0.2-12-0.3-24.1-0.3-36.2q0-4.6 0-9.3 0-10.6 0-21.2 0-5.2 0-10.5 0-18.1 0-36.1 0-1.2 0-2.3 0-1.1 0-2.2 0-2.3 0-4.6 0-0.5 0-1.1 0-18.2 0-36.5-0.1-19.4-0.1-38.8 0-2.1 0-4.2 0-0.5 0-1.1 0-8.4 0-16.8 0-8.4 0-16.8 0-4.6 0-9.1 0-4.2 0-8.4 0-1.5 0-3c0-7.8 0.4-15.1 6-21.1 1.4-1.3 2.8-2.2 4.4-3.2 0.4-0.3 0.4-0.3 0.9-0.6 3.1-2 6.3-3.8 9.5-5.7q2.6-1.6 5.2-3.1 0.5-0.3 1.1-0.7 5.1-3 10.1-6 8-4.9 16-9.7 7-4.1 14-8.3 8-4.9 16-9.7 7-4.1 14-8.3 8-4.9 16-9.7 7-4.1 14-8.3 7.8-4.8 15.6-9.4c0.5-0.3 0.5-0.3 1-0.6q4.5-2.7 9-5.3 0.5-0.3 1-0.6c2.2-1 4-1 6.4-0.4z"/>
	<path fill-rule="evenodd" class="s0" d="m1505.5 2916.5c5.2 1.8 9.9 5.2 14.5 8.1q4.9 3.1 9.8 6 0.9 0.6 1.8 1.1 1.8 1.1 3.6 2.2 4.5 2.7 9 5.4 0.8 0.6 1.7 1.1 7.6 4.6 15.2 9.2 3.6 2.2 7.2 4.4 1.4 0.9 2.8 1.8 0.7 0.4 1.5 0.8 7.9 4.8 15.8 9.7c0.7 0.4 0.7 0.4 1.4 0.8q1.4 0.9 2.9 1.8 3.6 2.2 7.2 4.4c8.8 5.3 17.6 10.7 25.6 17.2q0.4 0.3 0.8 0.7c7.4 6 14.1 12.6 19.7 20.3q0.3 0.4 0.6 0.8c13.9 19 20.1 41.6 20.1 65q0 1.3 0 2.6 0 2.6 0 5.3 0 2.7 0 5.5c0.1 29.9 0.1 29.9-7.1 37.8-2.3 2.2-4.5 3.3-7.6 4 0.6 0.6 0.6 0.6 1.3 1.2q2.2 2 4.4 4.1 0.9 0.8 1.8 1.6c5.3 5.1 9.3 11.3 13 17.6q0.3 0.5 0.5 0.9c9.8 16.7 13.1 36.1 13.1 55.2q0 1.3 0 2.7 0 3.6 0 7.2 0 2.3 0 4.5 0 7.9 0 15.8 0 7.4 0 14.8 0 6.3 0 12.6 0 3.8 0 7.6 0 3.5 0 7.1 0 1.3 0 2.6c0.1 10.3 0.1 10.3-2 13.2-1.5 1.1-2.3 1.3-4.1 1.3-4.2-1.2-7.9-3.6-11.6-5.9q-0.9-0.6-1.9-1.2-1.8-1.1-3.7-2.3-3.9-2.4-7.7-4.7-1.4-0.8-2.8-1.7-3.6-2.2-7.2-4.3-2.1-1.4-4.3-2.7-2.8-1.7-5.7-3.4c-7.5-4.6-13.9-8.5-16.3-17.4-1-4.5-0.9-9.1-0.9-13.6q0-1.5 0-2.9 0-1.6 0-3.2 0-3.3 0-6.6-0.1-9.4-0.1-18.8 0-5.2 0-10.4-0.1-2.8-0.1-5.5 0-3.1 0-6.2 0-0.8 0-1.8c0-5.6-1.1-10.6-4.2-15.4q-0.4-0.6-0.8-1.3c-3.6-3.6-8.3-6.1-12.6-8.6q-1-0.6-1.9-1.1-1.9-1.2-3.8-2.4-4.1-2.4-8.2-4.9-1.7-1.1-3.5-2.1-1.2-0.8-2.5-1.6-1.7-1-3.4-2-2.5-1.5-4.9-3-0.7-0.4-1.5-0.9-0.6-0.4-1.3-0.8-0.6-0.4-1.2-0.7c-0.9-0.6-0.9-0.6-1.4-1.1 0 0.6 0 0.6 0 1.2q0 15.1-0.1 30.1-0.1 7.3-0.1 14.5 0 6.4 0 12.7 0 3.4 0 6.7-0.1 3.2-0.1 6.3 0 1.2 0 2.4 0 1.5 0 3.1c0 0.9 0 0.9 0 1.8-0.3 2.4-1 4.3-2.5 6.2-2.1 0.9-4.6 0.4-6.7-0.4q-1.4-0.7-2.8-1.6-0.5-0.3-1-0.6-3.9-2.3-7.8-4.8c-3.3-2.1-6.7-4.1-10-6.1q-0.9-0.6-1.8-1.1-3.8-2.3-7.5-4.5c-21.4-13-21.4-13-23.9-17q-0.5-0.6-0.9-1.3c-1.8-3.7-2.5-7.2-2.5-11.3q0-0.7 0-1.4 0-2.2 0-4.5 0-1.6 0-3.3 0-4.5 0-8.9 0-4.9 0-9.7 0-9 0-17.9 0-8.3 0-16.5 0-0.6 0-1.1 0-2.2 0-4.5 0-20.8 0-41.7 0-18.5 0-37 0-20.8 0-41.6 0-2.3 0-4.5 0-0.5 0-1.1 0-8.2 0-16.5 0-9.4 0-18.7 0-4.8 0-9.6 0-4.4 0-8.8 0-1.6 0-3.2 0-2.1 0-4.3 0-0.6 0-1.2c0-2.6 0.4-4.5 1.7-6.8 1.9-1.2 2.8-1.2 5-1zm60.5 107.5q-0.5 9.4-0.7 18.7-0.1 4.4-0.4 8.7c-1.3 12.3-1.3 12.3 2.4 23.5 3.1 3 7 4.5 10.9 5.9 2.7 1.1 5 2.6 7.4 4.1 4.7 3 4.7 3 10 4.1 1.8-0.7 2.7-1.5 3.9-3 2.1-4.5 1.6-10 1.6-14.9q0-1.7 0-3.4c0.1-10.3-1.1-19.4-8.3-27.1-2.5-2.5-5.4-4.2-8.4-5.9q-0.9-0.6-1.7-1.1-1.3-0.8-2.6-1.6-2.9-1.7-5.8-3.5-0.7-0.4-1.4-0.9-1.4-0.8-2.7-1.7-0.6-0.4-1.3-0.8-0.5-0.3-1-0.6c-0.9-0.6-0.9-0.6-1.9-0.5z"/>
	<path class="s0" d="m1992.5 2924c1.8 1.1 2.3 2.4 2.8 4.4 0.4 2.3 0.3 4.7 0.3 7q0.1 0.9 0.1 1.8 0 2.4 0 4.9 0 1.5 0 3 0 5.3 0 10.6 0 4.9 0 9.8 0 4.2 0 8.5 0 2.5 0 5 0.1 2.9 0 5.7 0.1 0.8 0.1 1.6c-0.1 5-1.1 10.1-4.2 14.2-0.4 0.6-0.4 0.6-0.9 1.2-3.3 3.5-7.5 5.7-11.5 8.1q-2.7 1.6-5.4 3.2-0.5 0.3-1.1 0.6-5.2 3.1-10.3 6.2-0.9 0.5-1.7 1-4.1 2.5-8.1 5-2 1.2-4 2.4-0.9 0.6-1.8 1.2-1.3 0.7-2.6 1.5-0.8 0.5-1.5 1c-1.2 0.6-1.2 0.6-2.2 0.6q0 0.7 0 1.3 0.1 39 0.1 77.9 0 4.7 0 9.3 0 1 0 1.9 0 15.1 0 30.2 0 15.4 0 30.9 0 9.5 0.1 19.1 0 6.5 0 13 0 3.8 0 7.6 0 3.4 0 6.9 0 1.3 0 2.5c0 6.5-0.5 12.4-4.2 17.9q-0.3 0.4-0.6 0.9c-1.5 2-3.4 3.3-5.5 4.7q-0.5 0.3-1 0.6c-3.1 1.9-6.3 3.8-9.5 5.7q-2.6 1.6-5.2 3.1-0.5 0.3-1.1 0.7-5.1 3-10.1 6-7.2 4.5-14.5 8.8-1.1 0.6-2.1 1.3c-10.6 6.3-10.6 6.3-13.9 5.7-2-1.2-2.9-2.3-3.5-4.5-0.4-2.4-0.6-4.7-0.6-7.1q0-0.5 0-1.1 0-1.7 0-3.5 0-1.3 0-2.5 0-3.5 0-7 0-3.8 0-7.5 0-6.5 0-13 0.1-9.5 0.1-18.9 0-15.3 0-30.5 0-14.9 0-29.7 0-0.9 0-1.9 0-4.6 0-9.1 0-38.1 0-76.2-2.9 1.7-5.8 3.4-1 0.6-2 1.2-6.8 4-13.6 8.1-0.9 0.6-1.9 1.1-0.7 0.5-1.5 1-5.7 3.4-11.3 6.8-1.1 0.6-2.1 1.2-1.5 0.9-3 1.8-0.8 0.5-1.7 1c-3 1.7-5.2 2.8-8.6 2.9-1.4-0.4-1.4-0.4-2.5-1.5-1.7-3.4-1.7-6.8-1.7-10.5q0-0.9 0-1.8 0-2.9 0-5.8 0-1.5 0-3 0-4.7 0-9.4 0-4.9 0-9.8-0.1-4.2 0-8.4 0-2.5-0.1-5 0-2.7 0-5.5 0-0.8 0-1.7c0.1-6.2 1.8-12 6.2-16.5 3-2.8 6.4-4.9 10-7q2.1-1.2 4.2-2.5 1.1-0.6 2.2-1.2 5.1-3 10.2-6.2 8-4.8 16-9.6 7-4.1 14-8.4 8-4.8 16-9.6 7-4.1 14-8.4 8-4.8 16-9.6 7.1-4.1 14.1-8.4 7-4.3 14.2-8.5 7.1-4.1 14.2-8.5 0.5-0.2 0.9-0.5 4.5-2.7 9-5.5 2-1.2 3.9-2.3 1.4-0.9 2.7-1.7 0.8-0.5 1.7-1 0.7-0.5 1.5-0.9c2.7-1.6 5.1-2.3 8.3-1.8z"/>
</svg>